<svg xmlns="http://www.w3.org/2000/svg" width="22" height="18" fill="none" fill-rule="evenodd" xmlns:v="https://vecta.io/nano"><path d="M21.845 5.317L11.21 0 .577 5.317h21.268zm-.008 0H.577v12.406h21.268l-.008-12.406z" fill="#333f48"/><path d="M11 4.167C7.78 4.167 5.167 6.78 5.167 10S7.78 15.833 11 15.833 16.833 13.22 16.833 10 14.22 4.167 11 4.167zm0 10.5c-2.573 0-4.667-2.094-4.667-4.667S8.428 5.333 11 5.333 15.667 7.428 15.667 10 13.573 14.667 11 14.667zm-1.167-3.4l3.844-3.844.822.828-4.667 4.667L7.5 10.583l.823-.822 1.51 1.505z" fill="#fff"/></svg>