<svg height="512pt" preserveAspectRatio="xMidYMid meet" viewBox="0 0 512 512" width="512pt" xmlns="http://www.w3.org/2000/svg"><g transform="matrix(.1 0 0 -.1 0 512)"><path d="m1638 4481-1268-226v-1702c0-989 4-1703 9-1703s581-99 1280-220 1276-220 1281-220c7 0 10 752 10 2150v2150l-22-1c-13-1-593-103-1290-228zm662-1029c0-4-103-205-229-447l-230-439 74-141c41-77 148-279 238-450 91-170 163-311 162-313-8-9-411 22-417 32-4 6-24 52-44 101-124 311-238 575-244 568-4-4-67-150-139-323-73-173-135-318-139-321-9-8-348 14-357 23-4 3 91 189 211 413l217 406-200 407c-187 379-199 407-179 413 11 3 96 9 187 13l166 7 18-43c9-24 64-164 122-313 57-148 107-273 110-278s68 141 145 324c77 184 142 336 144 338s85 9 186 16 186 13 191 14c4 0 7-2 7-7z"/><path d="m3202 4053 3-138 218-3 217-2-2-213-3-212-217-3-218-2v-65-65l218-2 217-3 3-212 2-213h-220-220v-70-70l218-2 217-3 3-202 2-203h-220-221l3-82 3-83 218-3 217-2v-200-200l-217-2-218-3-3-82-3-83h221 220l-2-202-3-203-217-3-218-2v-150-150h739 740l20 26c53 67 51 6 51 1675 0 1227-3 1549-12 1556-7 4-356 9-776 11l-763 2zm1278-353v-210h-350-350v210 210h350 350zm0-565v-215h-350-350v215 215h350 350zm0-565v-200h-350-350v200 200h350 350zm0-570v-200h-350-350v200 200h350 350zm0-575v-205h-350-350v205 205h350 350z"/></g></svg>