<svg width="13" height="9" viewBox="0 0 13 9" fill="none" xmlns="http://www.w3.org/2000/svg">
<path fill-rule="evenodd" clip-rule="evenodd" d="M6.5 0C3.54545 0 1.02227 1.85975 0 4.48492C1.02227 7.11009 3.54545 8.96984 6.5 8.96984C9.45455 8.96984 11.9777 7.11009 13 4.48492C11.9777 1.85975 9.45455 0 6.5 0ZM6.5 7.4748C4.86909 7.4748 3.54545 6.1353 3.54545 4.48485C3.54545 2.8344 4.86909 1.49491 6.5 1.49491C8.13091 1.49491 9.45455 2.8344 9.45455 4.48485C9.45455 6.1353 8.13091 7.4748 6.5 7.4748ZM4.72723 4.48491C4.72723 3.49225 5.51904 2.69094 6.49995 2.69094C7.48086 2.69094 8.27268 3.49225 8.27268 4.48491C8.27268 5.47757 7.48086 6.27888 6.49995 6.27888C5.51904 6.27888 4.72723 5.47757 4.72723 4.48491Z" fill="#333F48"/>
</svg>
