<svg width="26" height="24" viewBox="0 0 26 24" fill="none" xmlns="http://www.w3.org/2000/svg">
<path d="M0.00462836 10.0019V0.951779C0.00462836 0.158324 0.405284 -0.116635 1.15946 0.158324C3.20987 0.943923 5.26814 1.72952 7.3107 2.51512C8.18102 2.86106 9.15069 2.86106 10.021 2.51512C12.0243 1.72952 14.0433 0.998915 16.0544 0.24474C16.8769 -0.08158 17.793 -0.08158 18.6155 0.24474C20.658 1.03034 22.7163 1.81594 24.7667 2.5544C25.1476 2.65822 25.4795 2.89336 25.7038 3.21826C25.928 3.54316 26.0302 3.9369 25.9922 4.32985V22.2258C25.9922 22.3122 25.9922 22.3986 25.9922 22.485C26.0044 22.611 25.9817 22.7379 25.9267 22.8518C25.8718 22.9658 25.7865 23.0625 25.6804 23.1314C25.5742 23.2002 25.4512 23.2387 25.3247 23.2424C25.1983 23.2462 25.0732 23.2152 24.9631 23.1528L22.2606 22.1551L18.529 20.7567C17.759 20.4542 16.903 20.4542 16.133 20.7567L9.84818 23.1135C9.07538 23.4158 8.21705 23.4158 7.44425 23.1135L1.15946 20.7567C0.802955 20.6444 0.494881 20.4149 0.285246 20.1054C0.0756108 19.7959 -0.0232792 19.4247 0.00462836 19.052V10.0019ZM16.2272 2.46798L15.858 2.60154C13.9333 3.32429 12.0086 4.05489 10.076 4.76193C9.96975 4.7847 9.87599 4.84666 9.81338 4.93548C9.75077 5.02429 9.72393 5.13343 9.7382 5.24115C9.7382 10.3109 9.7382 15.3806 9.7382 20.4503C9.7382 20.5603 9.7382 20.6782 9.7382 20.8117L10.076 20.7017C12.0007 19.979 13.9254 19.2484 15.858 18.5335C15.9693 18.5124 16.0682 18.4491 16.1341 18.3569C16.1999 18.2647 16.2277 18.1507 16.2115 18.0385C16.2115 12.9793 16.2115 7.92004 16.2115 2.86078L16.2272 2.46798ZM2.17288 2.86864C2.17288 2.97077 2.17288 3.01005 2.17288 3.05718C2.17288 8.22642 2.17288 13.393 2.17288 18.557C2.17288 18.7927 2.29072 18.8477 2.46355 18.9106L7.30284 20.7174C7.39793 20.752 7.49499 20.7808 7.59351 20.8039C7.59351 20.6939 7.59351 20.6075 7.59351 20.521C7.59351 15.4094 7.59351 10.2978 7.59351 5.18616C7.6049 5.09171 7.5794 4.99651 7.52232 4.9204C7.46524 4.84429 7.38099 4.79315 7.28713 4.77764L3.59481 3.40285L2.17288 2.86864ZM18.4426 2.47584C18.4426 2.58582 18.4426 2.66438 18.4426 2.73509V18.1328C18.4309 18.2158 18.4511 18.3001 18.4993 18.3687C18.5474 18.4372 18.6199 18.4849 18.7019 18.5021L22.457 19.9004L23.8083 20.3875C23.8083 20.3011 23.8083 20.2461 23.8083 20.1911C23.8083 15.0323 23.8083 9.86832 23.8083 4.69908C23.8083 4.48697 23.7219 4.42413 23.5569 4.36128L19.0004 2.6801L18.4426 2.47584Z" fill="white"/>
</svg>
