<svg width="7" height="17" viewBox="0 0 7 17" fill="none" xmlns="http://www.w3.org/2000/svg">
<path d="M2.09732 16.0837C1.12408 15.5737 0.485564 14.883 0.380017 13.8104C0.274471 12.7379 0.661145 11.8758 1.53822 11.2458C1.60326 11.2074 1.65669 11.1522 1.6928 11.0858C1.72892 11.0195 1.74637 10.9447 1.74331 10.8692C1.76399 9.07711 1.78935 7.2835 1.81938 5.4884C1.82479 5.40759 1.80809 5.32684 1.77107 5.2548C1.73406 5.18277 1.67812 5.12217 1.60928 5.07952C1.29355 4.85163 1.03096 4.55803 0.839592 4.21892C0.648222 3.87982 0.532617 3.50326 0.500739 3.11519C0.46886 2.72712 0.521465 2.33675 0.654931 1.97096C0.788396 1.60517 0.999552 1.27265 1.27386 0.996299C1.55694 0.720158 1.89757 0.501438 2.21133 0.256749L2.2861 0.303509C2.29037 0.397557 2.30085 0.491681 2.29968 0.586438C2.29464 1.18064 2.29347 1.77567 2.27366 2.37046C2.26832 2.55061 2.33795 2.63615 2.48191 2.74125C2.57582 2.81078 2.79493 2.93157 2.94357 3.03518C3.04319 3.08014 3.15097 3.10418 3.26025 3.1058C3.36953 3.10742 3.47799 3.0866 3.57889 3.04461C4.13726 2.80685 4.33148 2.43017 4.26587 1.83276C4.21454 1.33652 4.25573 0.834428 4.25795 0.27981C5.02701 0.654454 5.54965 1.1682 5.83196 1.89336C6.30233 3.11336 5.89739 4.38309 4.83611 5.14674C4.7834 5.19079 4.7401 5.24499 4.70878 5.30613C4.67746 5.36726 4.65876 5.43408 4.65381 5.50259C4.6168 7.29579 4.59611 9.08843 4.56609 10.8825C4.55874 10.9617 4.57436 11.0414 4.6111 11.112C4.64783 11.1825 4.70411 11.241 4.77322 11.2805C5.24132 11.6162 5.58946 12.0932 5.76651 12.6413C5.94357 13.1895 5.94022 13.78 5.75695 14.3261C5.49673 15.1386 4.82058 15.8534 4.09546 16.0697C4.09131 15.9663 4.08318 15.8699 4.08359 15.7743C4.09009 15.1879 4.09191 14.603 4.11004 14.0175C4.11719 13.9412 4.1018 13.8644 4.06577 13.7967C4.02975 13.729 3.97467 13.6734 3.90736 13.6367C3.11827 13.1235 3.11602 13.1165 2.32016 13.6504C2.26999 13.6899 2.2284 13.7392 2.19792 13.7953C2.16744 13.8515 2.14871 13.9132 2.14288 13.9768C2.11931 14.5614 2.12137 15.1472 2.11331 15.7336C2.10817 15.8353 2.10231 15.9315 2.09732 16.0837ZM2.93862 7.00387C3.43702 7.15454 3.5509 7.05419 3.4443 6.56736C2.93188 6.48254 2.92325 6.48942 2.93862 7.00387ZM2.91677 8.26359L3.47411 8.29692L3.47424 7.78577C3.28317 7.7834 3.12469 7.78454 2.93679 7.77755L2.91677 8.26359ZM2.88327 9.52394L3.46767 9.56771L3.45378 9.0595L2.90723 9.03252L2.88327 9.52394Z" fill="#333F48"/>
</svg>
