<svg xmlns="http://www.w3.org/2000/svg" width="45" height="34" fill="#333f48" xmlns:v="https://vecta.io/nano"><path fill-rule="evenodd" d="M25.748 7c-.383 0-.693.325-.693.726s.3.726.693.726h2.075l1 3.557c-2.667.375-5.008 2.134-6.186 4.723l-2.876 6.322-3.513-8.585V10.4h.554c.383 0 .693-.325.693-.725s-.3-.726-.693-.726h-4.156c-.383 0-.693.325-.693.726s.3.725.693.725h2.217v3.95l-2.935 4.016c-1.17-.698-2.528-1.097-3.976-1.097C3.564 17.278 0 20.96 0 25.5s3.564 8.223 7.96 8.223c4.064 0 7.417-3.145 7.9-7.207h2.995a1.48 1.48 0 0 0 .653.65c.725.362 1.593.04 1.94-.72l3.823-8.404c.822-1.806 2.53-2.98 4.428-3.057l.937 2.983c-2.805 1.272-4.764 4.166-4.764 7.532 0 4.54 3.564 8.223 7.962 8.223s7.962-3.68 7.962-8.222-3.565-8.222-7.962-8.222a7.74 7.74 0 0 0-1.912.239l-1.358-4.283-1.5-5.664A.7.7 0 0 0 28.38 7h-2.632zm5.378 12.522l2.066 6.58c.15.368.558.538.9.38a.74.74 0 0 0 .363-.953l-2.05-6.46c.456-.106.93-.162 1.42-.162 3.565 0 6.41 2.978 6.41 6.594s-2.846 6.594-6.41 6.594-6.41-2.978-6.41-6.594c0-2.63 1.506-4.924 3.7-5.978zM7.96 18.907a6.24 6.24 0 0 1 3.021.775l-4.13 5.65c-.17.217-.204.517-.1.77a.69.69 0 0 0 .626.415h6.907c-.474 3.14-3.1 5.578-6.335 5.578-3.565 0-6.41-2.978-6.41-6.594s2.845-6.594 6.41-6.594zm.9 6.158h5.507A6.66 6.66 0 0 0 12.14 20.5L8.85 25.065zm4.225-5.866c1.64 1.42 2.717 3.513 2.836 5.866h2.944l.122-.267-3.6-8.795-2.302 3.196z"/><path d="M38.824.047l5.886 7.5-11.648.095L38.824.047z"/><path d="M36.187 7l5.48.15L41.48 14 36 13.85z"/></svg>