<svg width="53" height="28" viewBox="0 0 53 28" fill="none" xmlns="http://www.w3.org/2000/svg">
<path d="M12.0644 22.0079C12.1136 21.3119 12.1136 20.614 12.0644 19.918C11.7517 17.7079 12.6006 15.8507 14.0795 14.102C15.4601 12.4619 15.1206 10.6124 13.3512 9.35618C13.1457 9.22473 12.9036 9.1431 12.6497 9.11967C10.7821 8.91805 8.90552 8.75132 7.04234 8.53031C6.49677 8.41102 5.96676 8.24341 5.46065 8.03014C5.18762 7.90434 4.89596 7.81171 4.59385 7.75485C3.89237 7.71995 3.18195 7.75485 2.476 7.75485C1.18026 7.73158 0.523461 7.17325 0.469845 6.07209C0.335803 3.41225 0.720055 3.06329 3.78513 3.06717C4.51789 3.06717 5.24172 3.13696 5.8315 2.57475C5.96918 2.47903 6.12727 2.40784 6.29672 2.36526C6.46616 2.32268 6.64363 2.30954 6.81894 2.3266C9.54445 2.5321 11.9527 1.50073 14.4727 0.915254C15.4914 0.694247 16.5325 0.465485 17.5288 0.209581C19.4188 -0.275084 21.1435 0.12428 22.7877 0.961782C25.7635 2.51271 28.7347 4.04037 31.6836 5.61457C31.9927 5.80206 32.3482 5.92396 32.7215 5.97042C33.0948 6.01689 33.4754 5.98664 33.8327 5.8821C37.7065 4.90502 41.5937 3.97834 45.4899 3.07492C46.4684 2.84616 47.1922 2.55536 47.5452 1.59766C47.992 0.434466 49.0688 0.0195927 50.369 0.267741C51.4592 0.473239 52.183 1.34951 52.1562 2.45067C52.1562 4.32342 50.8381 5.8317 48.5147 6.49472C45.3603 7.40201 42.1746 8.23951 39.0067 9.11191C37.8451 9.42985 36.6655 9.70514 35.5351 10.0851C33.6778 10.7352 31.6092 10.7669 29.7266 10.1743C29.1502 9.99982 28.5381 9.92227 27.9796 9.72453C26.5945 9.23211 25.3345 9.36006 24.2354 10.2402C23.9328 10.4843 23.7371 10.8117 23.6813 11.1669C23.6054 12.0548 23.6456 12.9466 23.6545 13.8384C23.6852 14.4122 23.5299 14.982 23.206 15.483C22.8822 15.9841 22.4029 16.3962 21.8226 16.6727C21.2369 16.928 20.7552 17.3326 20.4421 17.8323C20.1291 18.332 19.9996 18.9029 20.0712 19.4682C20.1739 21.5814 20.1069 23.7023 20.098 25.8193C20.098 27.2888 19.3965 27.9092 17.712 27.9402C16.5906 27.9596 15.478 27.9673 14.3431 27.9402C12.7302 27.9169 12.0644 27.3121 12.0644 25.9356C12.0644 24.6251 12.0644 23.3184 12.0644 22.0079ZM18.2393 26.2729C18.2393 24.0008 18.2929 21.8024 18.2393 19.6078C18.1812 17.8359 18.7665 16.4013 20.6565 15.5095C21.0194 15.3516 21.3238 15.1082 21.5347 14.8071C21.7457 14.5061 21.8548 14.1596 21.8494 13.8073C21.8494 12.0626 21.8897 10.3449 21.4026 8.59623C20.7369 6.24657 19.678 4.24587 17.3814 2.78025C16.6576 2.31884 16.1169 2.06682 15.2591 2.39251C14.5219 2.65617 13.731 2.78025 12.967 3.00513C12.0957 3.2494 10.8759 3.30368 10.4515 3.831C10.027 4.35831 10.2906 5.43233 10.2147 6.26208C10.1566 6.90571 10.4202 7.19264 11.1932 7.30896C13.4629 7.65404 15.7148 8.08442 17.9756 8.47215C18.5788 8.58072 19.2803 8.70479 19.1463 9.42985C19.0122 10.1549 18.3197 10.058 17.6897 9.96104C17.1669 9.8835 16.6397 9.82534 15.9829 9.74391C17.2429 11.795 16.805 13.5708 15.3574 15.2924C14.4638 16.3431 13.7087 17.4365 13.7757 18.875C13.8829 21.0424 13.8025 23.2176 13.807 25.3928C13.807 25.6836 13.8472 25.9783 13.8695 26.2884L18.2393 26.2729ZM23.3284 8.86376C24.5124 8.11544 25.6786 7.70057 27.019 7.94096C27.7746 8.06985 28.5207 8.23817 29.253 8.44501C31.2323 9.03436 33.167 9.26313 35.2357 8.58072C37.711 7.76648 40.2757 7.14611 42.8046 6.44431C44.5918 5.94414 46.379 5.45947 48.193 4.95155C49.4173 4.60259 50.2573 3.92018 50.369 2.76086C50.3958 2.47006 50.1143 2.156 49.9713 1.85357C49.6624 2.02593 49.3641 2.2123 49.0777 2.4119C48.9811 2.52623 48.9182 2.65935 48.8945 2.79963C48.75 3.18458 48.4922 3.53014 48.1466 3.80215C47.8011 4.07415 47.3797 4.26319 46.9241 4.35056C42.7018 5.3703 38.475 6.37065 34.2572 7.40589C33.6783 7.56751 33.0648 7.61309 32.4627 7.53922C31.8606 7.46534 31.2856 7.27393 30.7811 6.97938C27.85 5.38193 24.8698 3.85426 21.8941 2.3266C20.9648 1.84581 19.9952 1.45032 18.7665 1.7799C19.0566 2.10025 19.393 2.38694 19.7673 2.63291C21.0541 3.5402 22.1309 4.53667 22.399 6.06821C22.6378 7.01674 22.9483 7.9506 23.3284 8.86376ZM6.76085 3.92793V6.89021H8.36488V3.92793H6.76085ZM2.29281 6.25432C3.10602 6.25402 3.91619 6.16809 4.70555 5.99842C4.91108 5.93251 4.81279 5.11827 4.85747 4.65299H2.29281V6.25432Z" fill="black"/>
</svg>
