<svg width="45" height="19" viewBox="0 0 45 19" fill="none" xmlns="http://www.w3.org/2000/svg">
<path d="M25.8525 18.7949C24.3076 18.7949 22.031 18.2443 18.9255 17.4939C14.3531 16.389 8.66902 15.0144 3.18945 15.0144V13.244C8.86515 13.244 14.6576 14.6448 19.3129 15.7697C21.3356 16.2591 23.0839 16.6824 24.4315 16.8934C25.9825 17.1331 26.4626 16.992 26.5877 16.9308C26.5877 16.7785 26.4927 16.1817 25.4182 14.6523C22.7073 10.7819 20.9108 7.8292 19.9242 5.62807C19.2684 4.16357 18.5116 2.07357 19.497 0.826304C21.0805 -1.18005 25.3364 0.701453 32.1467 3.95507C35.9177 5.75168 39.815 7.60946 41.9171 7.75678L41.7967 9.52218C39.383 9.35363 35.5206 7.51208 31.4308 5.56315C28.8955 4.35459 26.2749 3.10483 24.2113 2.39069C21.3476 1.39188 20.8531 1.89128 20.8061 1.94747C20.7592 2.00365 20.4151 2.548 21.4607 4.88146C22.3872 6.95025 24.18 9.88799 26.7887 13.6123C27.8162 15.0793 28.7656 16.7336 28.0136 17.9134C27.6225 18.5364 26.909 18.7949 25.8525 18.7949Z" fill="#8b5c30"/>
<path d="M4.48138 12.6509H0.474609V15.6074H4.48138V12.6509Z" fill="#8b5c30"/>
<path d="M44.6699 7.15723H40.6631V10.1137H44.6699V7.15723Z" fill="#8b5c30"/>
</svg>
