<svg width="48" height="26" viewBox="0 0 48 26" fill="none" xmlns="http://www.w3.org/2000/svg">
<path d="M48 12.9766C48 20.0209 42.3025 25.9323 35.3016 25.9279C33.0772 25.9279 30.8527 25.4199 28.6461 25.0394C21.9225 23.8547 15.2136 22.599 8.48702 21.4321C6.26261 21.0456 4.23542 20.354 2.70354 18.6185C0.572558 16.2181 -0.0636244 13.4416 0.907702 10.4237C1.92352 7.25619 4.19538 5.31039 7.47862 4.70473C15.6467 3.2017 23.8266 1.76234 31.9991 0.287446C37.5645 -0.71655 42.1335 0.88866 45.5813 5.43182C47.1755 7.5257 48.0015 10.2578 48 12.9766ZM45.1661 12.9766C45.2045 10.609 44.3707 8.30981 42.823 6.51578C40.5897 3.8888 37.7247 2.58568 34.2546 2.89665C32.5655 3.04473 30.8928 3.40309 29.2126 3.70074C22.1583 4.95647 15.1009 6.2359 8.03769 7.48275C6.88664 7.67337 5.82387 8.218 4.99764 9.04065C4.17142 9.86331 3.62293 10.923 3.4287 12.0718C3.03424 14.3493 4.10789 16.7897 6.24629 17.7596C7.58094 18.3668 9.11134 18.6126 10.578 18.8836C17.0495 20.0771 23.525 21.2371 30.0045 22.3635C31.962 22.6997 33.9684 23.1143 35.9259 23.0092C41.1355 22.7278 45.1617 18.2217 45.1661 12.9796V12.9766Z" fill="#8b5c30"/>
<path d="M35.2746 20.1497C31.2988 20.16 28.1164 16.9585 28.1016 12.9366C28.0868 8.98279 31.2529 5.81827 35.2479 5.7931C39.2044 5.76941 42.415 8.97094 42.4639 12.9884C42.5099 16.8208 39.1777 20.1393 35.2746 20.1497ZM30.7487 12.9144C30.7724 15.4969 32.7403 17.5168 35.2464 17.5301C37.6666 17.5419 39.8287 15.4066 39.8154 13.0195C39.8005 10.4903 37.7556 8.41563 35.2731 8.41267C32.7907 8.40971 30.7279 10.4606 30.7487 12.9144Z" fill="#8b5c30"/>
<path d="M5.54587 12.9408C5.54882 12.0233 5.91662 11.1447 6.56836 10.498C6.89107 10.1778 7.27378 9.92425 7.69462 9.75176C8.11547 9.57926 8.56623 9.49124 9.02114 9.49269C9.47606 9.49415 9.92624 9.58507 10.346 9.76026C10.7657 9.93545 11.1468 10.1915 11.4674 10.5137C11.7881 10.836 12.042 11.2181 12.2147 11.6384C12.3875 12.0586 12.4756 12.5087 12.4742 12.963C12.4734 13.8863 12.1059 14.7717 11.4523 15.4249C10.7988 16.0781 9.91246 16.4458 8.98778 16.4474C8.53037 16.4457 8.07785 16.3533 7.65648 16.1756C7.2351 15.9979 6.85325 15.7384 6.53307 15.4122C6.21289 15.086 5.96075 14.6996 5.79129 14.2754C5.62183 13.8511 5.53841 13.3975 5.54587 12.9408ZM10.3313 13.0059C10.34 12.8279 10.3122 12.6499 10.2497 12.4829C10.1872 12.3159 10.0913 12.1634 9.96775 12.0346C9.84423 11.9059 9.69574 11.8036 9.53133 11.7341C9.36692 11.6646 9.19005 11.6292 9.01151 11.6303C8.65557 11.621 8.31054 11.7534 8.05232 11.9982C7.7941 12.243 7.64384 12.5802 7.63459 12.9356C7.62535 13.291 7.75788 13.6356 8.00303 13.8934C8.24818 14.1513 8.58587 14.3013 8.94181 14.3105C9.12013 14.3214 9.29881 14.2958 9.46684 14.2352C9.63486 14.1746 9.78869 14.0802 9.91885 13.958C10.049 13.8358 10.1528 13.6883 10.2237 13.5246C10.2946 13.3608 10.3313 13.1843 10.3313 13.0059Z" fill="#8b5c30"/>
</svg>
