<svg width="74" height="19" viewBox="0 0 74 19" fill="none" xmlns="http://www.w3.org/2000/svg">
<path d="M73.1311 2.92097C67.838 3.1015 62.6538 3.31775 57.4574 3.43282C55.5433 3.47448 54.1188 4.22638 53.1194 5.7659C51.7554 7.87877 50.4437 10.0234 49.1018 12.1521C48.6202 12.9179 48.0943 13.6639 47.635 14.4396C45.9163 17.2905 43.3111 18.578 40.0087 18.6117C37.7158 18.6336 35.4188 18.6693 33.1259 18.6117C30.2527 18.5284 28.2902 16.8659 26.8194 14.6439C25.006 11.92 23.247 9.15443 21.6311 6.31148C20.404 4.15496 18.5524 3.3614 16.2252 3.33561C11.6877 3.29196 7.1583 3.2503 2.61074 3.30585C1.3575 3.31974 0.797363 2.88724 0.797363 1.70483C0.797363 0.421237 1.71211 0.514481 2.61074 0.514481C7.24494 0.514481 11.8892 0.552175 16.5294 0.514481C19.3724 0.486706 21.6774 1.42311 23.4223 3.68874C23.6963 4.04585 24.3512 4.28392 24.8327 4.28392C32.9405 4.32227 41.0477 4.32227 49.1542 4.28392C49.6559 4.28392 50.2885 3.91094 50.6311 3.51813C52.3155 1.57786 54.3747 0.562095 57.0121 0.506545C61.9929 0.401398 66.9797 0.201023 71.9685 0.030406C73.4857 -0.0191918 73.8443 0.812068 73.1311 2.92097ZM25.9832 7.9859C27.4883 10.1682 28.7073 12.2414 30.2648 14.0329C30.9237 14.7887 32.2797 15.2232 33.3475 15.3125C35.834 15.4901 38.3302 15.4901 40.8166 15.3125C41.8362 15.2431 43.1237 14.8106 43.7422 14.0884C45.2896 12.2811 46.5268 10.2138 48.0722 7.98392L25.9832 7.9859Z" fill="black"/>
</svg>
