<svg width="40" height="26" viewBox="0 0 40 26" fill="none" xmlns="http://www.w3.org/2000/svg">
<path d="M15.2769 0.441406V25.0255C11.7511 24.3104 8.45782 23.2335 5.56504 21.318C3.87751 20.2516 2.48133 18.8591 1.48054 17.2442C-0.7694 13.4882 -0.111726 9.26871 3.19148 6.04675C6.05953 3.24849 9.72866 1.73461 13.739 0.750362C14.2186 0.640021 14.7082 0.54292 15.2769 0.441406Z" fill="#8b5c30"/>
<path d="M20.9293 25.5992L15.6333 25.1579V0.26482L20.8848 0V3.17342C22.5117 3.93257 23.1496 5.25667 23.654 6.65139C24.6974 9.51144 24.7023 12.4509 24.4303 15.4037C24.3279 17.2022 23.7718 18.9569 22.8035 20.5368C22.3574 21.0763 21.8612 21.5812 21.32 22.0462C21.1232 22.2054 20.9867 22.4151 20.9293 22.6465C20.9293 23.5778 20.9293 24.5135 20.9293 25.5992ZM16.4789 0.935696V24.5002L20.0491 24.7739C20.0491 23.8558 20.0788 23.0437 20.0491 22.2404C20.0135 22.0665 20.0542 21.8869 20.1628 21.739C20.2714 21.5911 20.4397 21.4862 20.6326 21.446C21.0178 21.2882 21.3564 21.0525 21.6216 20.7575C22.4486 19.7823 22.9846 18.6357 23.1793 17.4251C23.921 14.3457 23.921 11.1608 23.1793 8.08142C22.7491 6.31595 22.3683 4.45339 20.0046 3.75161V0.935696H16.4789Z" fill="#8b5c30"/>
<path d="M32.9553 23.0923C31.2543 23.0923 29.5582 23.0923 27.8621 23.0923C26.6357 23.0923 25.9682 22.4038 26.0769 21.3269C26.0743 21.1709 26.1061 21.0161 26.1706 20.8711C26.235 20.7262 26.3308 20.594 26.4525 20.4821C26.5742 20.3702 26.7194 20.2808 26.8798 20.219C27.0402 20.1572 27.2127 20.1242 27.3873 20.1219C31.0911 20.0866 34.8047 20.0822 38.4986 20.1219C39.4084 20.1219 39.9326 20.8413 39.8782 21.6976C39.8808 21.8795 39.8428 22.0601 39.7663 22.2287C39.6898 22.3973 39.5765 22.5506 39.4328 22.6797C39.2891 22.8087 39.1181 22.9109 38.9297 22.9803C38.7412 23.0496 38.5392 23.0847 38.3354 23.0835C36.5404 23.11 34.7454 23.0835 32.9553 23.0835V23.0923Z" fill="#8b5c30"/>
<path d="M33.0094 11.2633C34.6808 11.2633 36.3572 11.2633 38.0286 11.2633C39.2203 11.2633 39.9472 11.9342 39.8977 12.8699C39.8816 13.1794 39.7533 13.4758 39.5322 13.7146C39.311 13.9534 39.0089 14.1216 38.6714 14.194C38.3473 14.2632 38.0156 14.3002 37.6824 14.3043C34.5704 14.3043 31.4617 14.3043 28.3563 14.3043C28.0237 14.2988 27.6925 14.2648 27.3673 14.2028C27.0017 14.1408 26.6688 13.9741 26.4189 13.728C26.1691 13.4819 26.0159 13.1698 25.9827 12.839C25.9763 12.516 26.087 12.1997 26.2981 11.9373C26.5093 11.6749 26.8097 11.4803 27.1546 11.3825C27.4988 11.2952 27.8551 11.2521 28.2128 11.2545C29.8002 11.2545 31.4073 11.2633 33.0094 11.2633Z" fill="#8b5c30"/>
<path d="M32.9258 5.3805H27.9018C26.6853 5.3805 26.0227 4.89057 25.993 3.98576C25.9634 3.08094 26.7051 2.47185 27.8523 2.44536C28.9996 2.41888 30.1517 2.44536 31.3138 2.44536C33.539 2.44536 35.7642 2.44536 37.9894 2.44536C39.4235 2.44536 40.2493 3.43845 39.7548 4.50658C39.6341 4.78891 39.413 5.02812 39.1254 5.18756C38.8378 5.347 38.4995 5.41788 38.1625 5.38933C36.4169 5.37167 34.6714 5.37609 32.9258 5.3805Z" fill="#8b5c30"/>
</svg>
