<svg width="45" height="37" viewBox="0 0 45 37" fill="none" xmlns="http://www.w3.org/2000/svg">
<path d="M4.23234 36.947C1.82904 33.2158 0.565767 28.9931 0.567384 24.6965C0.567384 11.079 13.0652 7.18504e-05 28.4268 7.18504e-05C34.2809 -0.0124878 39.9885 1.62185 44.7281 4.66785L44.7068 4.69147C44.1378 5.39031 43.3034 5.88369 42.357 6.08099C41.4106 6.27829 40.4156 6.16627 39.5549 5.7655C36.1199 4.173 32.2996 3.34499 28.4232 3.35287C15.1473 3.35287 4.34604 12.9278 4.34604 24.6965C4.3458 27.3577 4.90612 29.9956 5.9982 32.4745C6.35803 33.2848 6.37651 34.1829 6.05025 35.0043C5.72399 35.8257 5.07483 36.5153 4.22168 36.947H4.23234Z" fill="#8b5c30"/>
<path d="M37.2114 4.02414L29.147 22.2285L30.0846 22.5549L38.149 4.35053L37.2114 4.02414Z" fill="#1D1D1B"/>
<path d="M25.9372 24.2935L3.70996 28.0415L3.89819 28.9187L26.1254 25.1707L25.9372 24.2935Z" fill="#1D1D1B"/>
<path d="M28.4887 27.3077C27.8808 27.3081 27.2864 27.1485 26.7808 26.8494C26.2751 26.5502 25.8809 26.1248 25.648 25.627C25.4151 25.1292 25.354 24.5814 25.4724 24.0528C25.5908 23.5242 25.8834 23.0386 26.3131 22.6574C26.7429 22.2762 27.2905 22.0166 27.8867 21.9114C28.4829 21.8061 29.101 21.86 29.6627 22.0661C30.2244 22.2723 30.7045 22.6215 31.0423 23.0695C31.38 23.5176 31.5603 24.0444 31.5603 24.5833C31.5594 25.3053 31.2355 25.9976 30.6598 26.5083C30.084 27.019 29.3032 27.3065 28.4887 27.3077ZM28.4887 22.7518C28.08 22.7515 27.6804 22.8586 27.3404 23.0597C27.0004 23.2608 26.7353 23.5467 26.5786 23.8813C26.422 24.216 26.3808 24.5843 26.4603 24.9397C26.5399 25.295 26.7365 25.6215 27.0254 25.8778C27.3143 26.1341 27.6824 26.3087 28.0832 26.3795C28.4841 26.4503 28.8996 26.4141 29.2772 26.2756C29.6548 26.137 29.9776 25.9022 30.2047 25.601C30.4318 25.2998 30.5531 24.9456 30.5531 24.5833C30.5521 24.0981 30.3344 23.633 29.9475 23.2897C29.5606 22.9465 29.0361 22.7531 28.4887 22.7518Z" fill="#1D1D1B"/>
</svg>
