<svg width="32" height="24" viewBox="0 0 32 24" fill="none" xmlns="http://www.w3.org/2000/svg">
<path d="M0.459902 17.7545H2.51669V5.58943C2.04765 5.58943 1.57424 5.57148 1.10374 5.58943C0.633243 5.60739 0.436595 5.4757 0.449705 4.9639C0.477381 3.91635 0.449705 2.86879 0.461358 1.82124C0.473011 1.05503 1.51889 0.014965 2.26906 0.0134685C11.9053 0.0124708 21.544 0.00798134 31.185 0C31.724 0 31.8464 0.194545 31.8391 0.69288C31.8187 2.1385 31.8143 3.58562 31.8391 5.03274C31.8493 5.55053 31.7109 5.93064 31.2113 6.05485C29.7998 6.43496 29.5114 7.37775 29.5827 8.77549C29.7036 11.0891 29.6308 13.4146 29.6046 15.7312C29.6046 16.2879 29.7823 16.5663 30.2732 16.8012C31.8333 17.5495 31.8231 17.5689 31.8231 19.3198C31.8231 20.4422 31.807 21.5646 31.8231 22.687C31.8318 23.1629 31.6861 23.3364 31.1982 23.335C21.1502 23.323 11.0993 23.323 1.04548 23.335C0.690052 23.335 0.435139 23.3095 0.439508 22.8336C0.470098 21.1845 0.459902 19.5398 0.459902 17.7545ZM16.7059 6.40503C17.1123 6.65943 17.6848 6.85398 17.6833 7.04403C17.6833 7.90901 18.1305 7.81922 18.6622 7.72345C18.888 6.53822 18.888 6.53822 19.8581 6.75671L19.9397 7.71447H20.8312C21.0817 7.33585 20.6666 6.70582 21.4138 6.63848C22.3213 6.55917 21.9193 7.34034 22.1188 7.72045H23.0846C23.1035 7.47802 23.0584 7.24457 23.1472 7.09791C23.2594 6.91234 23.4794 6.68637 23.6556 6.68338C23.7665 6.69917 23.8716 6.74354 23.9613 6.81237C24.051 6.88119 24.1222 6.97221 24.1684 7.07696C24.3432 7.8716 24.3679 7.90452 25.2405 7.63515L25.3089 6.77167C26.212 6.53522 26.212 6.53522 26.4975 7.69352C27.4953 8.10655 27.4677 7.34782 27.4983 6.69535L28.4218 6.60706V2.2672L27.5565 2.21183C27.2652 1.83621 27.7969 1.07748 26.9229 1.07C26.0489 1.06252 26.5777 1.84668 26.2674 2.18938H25.3759C25.0948 1.81376 25.6075 1.11489 24.7831 1.07299C23.8654 1.0251 24.3577 1.83621 24.0984 2.20435C23.9601 2.21482 23.8158 2.23577 23.6716 2.23278C23.5274 2.22979 23.3468 2.20584 23.1939 2.19238C23.0657 0.908377 23.1472 0.995174 22.0795 1.21366C22.0577 1.52344 22.0358 1.8407 22.0125 2.18639H21.0628C20.7365 1.83172 21.2711 1.10442 20.4481 1.0715C19.5144 1.03259 20.097 1.87362 19.8101 2.17741H18.7904C18.7729 1.97688 18.7598 1.83172 18.7467 1.68506C18.7336 1.5384 18.7249 1.34685 18.7103 1.1972C17.8611 0.999663 17.8611 0.999663 17.6382 2.19986L16.7059 2.29713V6.40503ZM20.821 15.5337C21.0977 15.1236 20.636 14.4487 21.4328 14.3829C22.3942 14.3051 21.8625 15.188 22.1334 15.5068H23.0278C23.3191 15.1296 22.8122 14.4278 23.6367 14.3829C24.5646 14.3335 23.9892 15.1955 24.33 15.5082H25.1662C25.4764 15.1416 24.936 14.4457 25.759 14.3799C26.7146 14.3051 26.2368 15.1521 26.4873 15.5127H27.4269C27.456 15.1296 27.4822 14.7944 27.5099 14.4338L28.4276 14.35V10.0355L27.507 9.97867C27.472 9.62251 27.4429 9.31273 27.4109 8.98051H26.4538C26.4072 9.34416 26.3679 9.65543 26.3271 9.9697H25.3803C25.121 9.62101 25.6002 8.92214 24.7641 8.90868C23.8901 8.88922 24.3708 9.65693 24.113 9.95623H23.2055C23.073 8.8129 23.0438 8.79045 22.0941 9.04935C22.062 9.35763 22.0285 9.6674 21.9965 9.95922H21.0045L20.8763 8.99996H19.9412L19.8523 9.95024C18.9128 10.2495 18.6564 9.78413 18.7263 8.99847H17.7839C17.7329 9.37259 17.6921 9.67937 17.6513 9.98017L16.7045 10.0535V14.4113C17.7547 14.1 17.7955 14.7974 17.7431 15.4978H18.719C18.7933 14.3006 18.8545 14.2452 19.8538 14.5056C19.8785 14.8318 19.9033 15.1685 19.9295 15.5277L20.821 15.5337ZM14.451 22.1782C14.4845 21.7876 14.5151 21.4509 14.5443 21.1306L15.4357 21.0423C15.596 20.0516 15.596 20.0516 14.5501 19.914V18.9397C15.5931 18.8529 15.5931 18.8529 15.4401 17.8188L14.5559 17.732V16.701L15.4678 16.5887V15.6025L14.4845 15.5082L14.5341 14.4338L15.4576 14.35V13.3727L14.5413 13.283L14.4336 12.2968H9.05997C9.31343 13.256 8.79195 13.4221 8.06216 13.3593V14.323C9.19544 14.4607 9.23477 14.5131 8.98131 15.5202L8.10732 15.598C7.64848 16.7069 8.46274 16.6291 8.99005 16.7055C9.39937 17.7829 8.71037 17.8039 8.05342 17.8129V18.8185C8.24425 18.8454 8.38554 18.8664 8.52684 18.8844C8.66813 18.9023 8.85167 18.9233 9.04249 18.9457C9.06315 19.1 9.07579 19.2554 9.08036 19.4111C9.08036 19.5757 9.05123 19.7404 9.03666 19.89C7.88008 20.0681 7.87134 20.0741 8.11752 21.0393L9.0454 21.1381C9.07454 21.4972 9.0993 21.813 9.12843 22.1692L14.451 22.1782ZM8.06071 3.23993C9.18961 3.44195 9.18961 3.44195 8.99151 4.41318L8.09712 4.49998C7.93981 5.37244 7.93981 5.37244 9.09056 5.71215C9.09056 5.89622 9.09056 6.09226 9.09056 6.2898C9.08081 6.38153 9.06524 6.47251 9.04395 6.56216C7.86989 6.81956 7.84804 6.84799 8.15102 7.72943L9.31634 7.86711C9.06288 8.31606 8.88954 8.87426 8.71037 8.87575C7.79123 8.88772 7.98205 9.41 8.10295 9.97568L9.05706 10.049C9.0891 10.4067 9.11678 10.7164 9.14446 11.0202H14.4641L14.5239 10.058L15.4649 9.95323V8.97901L14.537 8.87126V7.82371L15.4212 7.72644C15.8115 6.69984 15.2027 6.62202 14.5355 6.63549V5.64481C15.6338 5.49515 15.6338 5.49515 15.4183 4.48651L14.5443 4.42516V3.3776L15.459 3.25788V2.27319L14.5312 2.19387C14.5064 1.83621 14.4831 1.51895 14.4569 1.14632H9.13863L9.04395 2.19836L8.05925 2.28366L8.06071 3.23993ZM6.87499 22.1153V1.16577C5.85534 0.998167 5.80581 1.03558 5.80581 1.99933C5.80581 8.43129 5.80581 14.8633 5.80581 21.2952C5.80581 22.2814 5.87573 22.3338 6.87499 22.1153ZM4.76576 22.1572V9.19151C4.76576 6.72229 4.76576 4.25356 4.76576 1.78533C4.76576 1.1553 4.46424 0.867971 4.00102 1.12387C3.81603 1.22564 3.70969 1.64466 3.70969 1.92001C3.69512 8.40485 3.69124 14.8897 3.69804 21.3745V22.1602L4.76576 22.1572ZM19.3221 22.1677C19.6744 22.174 20.0244 22.1088 20.3521 21.9757C20.6798 21.8426 20.9787 21.6443 21.2315 21.3922C21.4844 21.14 21.6862 20.8391 21.8255 20.5065C21.9648 20.174 22.0387 19.8165 22.0431 19.4545C22.0462 19.0915 21.9796 18.7315 21.8472 18.3949C21.7148 18.0584 21.5192 17.7519 21.2716 17.493C21.0239 17.2342 20.729 17.0279 20.4038 16.8861C20.0785 16.7443 19.7293 16.6697 19.376 16.6665C19.0227 16.6634 18.6722 16.7318 18.3446 16.8678C18.017 17.0038 17.7187 17.2047 17.4667 17.4592C17.2147 17.7136 17.014 18.0166 16.8759 18.3507C16.7379 18.6849 16.6653 19.0437 16.6622 19.4066C16.6562 19.7685 16.7207 20.128 16.8519 20.4639C16.9831 20.7998 17.1783 21.1054 17.4261 21.3627C17.674 21.6199 17.9694 21.8237 18.295 21.9619C18.6206 22.1002 18.9698 22.1701 19.3221 22.1677ZM28.48 19.4545C28.4888 17.8787 27.3657 16.692 25.8508 16.671C25.1396 16.6651 24.4552 16.9496 23.9481 17.4621C23.4411 17.9746 23.153 18.673 23.1472 19.4036C23.1414 20.1343 23.4184 20.8375 23.9172 21.3583C24.4161 21.8792 25.0959 22.1752 25.8071 22.1812C27.3322 22.1871 28.4713 21.0259 28.48 19.4545ZM2.52835 2.20135C2.59244 1.00415 2.50504 0.927831 1.58881 1.20768V2.20135H2.52835ZM30.8063 2.20135C30.6607 1.7524 30.614 1.39923 30.4305 1.13435C30.3591 1.03109 29.8304 1.07449 29.7837 1.17775C29.6526 1.47705 29.6614 1.8407 29.6104 2.20135H30.8063ZM2.50358 22.1482V21.1231H1.58298V22.1707C1.79565 22.1841 1.96171 22.2051 2.12777 22.2036C2.25414 22.1942 2.37972 22.1757 2.50358 22.1482ZM29.7182 21.1126C29.5143 22.2171 29.6337 22.3383 30.6767 22.0899C30.6636 21.7756 30.649 21.4479 30.6344 21.1126H29.7182Z" fill="black"/>
<path d="M1.49182 16.6113H0.482422V6.73438H1.49182V16.6113Z" fill="black"/>
<path d="M31.7414 7.11572V16.2055C30.9505 16.0738 30.63 15.7132 30.6562 14.8586C30.7218 12.7486 30.7232 10.6325 30.6562 8.52244C30.63 7.70535 30.866 7.25939 31.7414 7.11572Z" fill="black"/>
<path d="M17.7549 3.35352H27.4183V5.492H17.7549V3.35352Z" fill="black"/>
<path d="M27.4076 13.28H17.7646V11.125H27.4076V13.28Z" fill="black"/>
<path d="M13.3422 21.0663H10.1973V13.3623H13.3422V21.0663ZM12.2818 19.9664V14.4937H11.3174V19.9664H12.2818Z" fill="black"/>
<path d="M13.3649 2.27344V9.96698H10.1895V2.27344H13.3649ZM11.3038 3.35841V8.82963H12.2666V3.35841H11.3038Z" fill="black"/>
<path d="M19.3854 17.7812C19.8121 17.7917 20.2172 17.9759 20.5117 18.2933C20.8062 18.6107 20.9659 19.0353 20.9557 19.4737C20.9454 19.9121 20.7661 20.3283 20.4571 20.6309C20.1482 20.9334 19.7349 21.0974 19.3082 21.0869C18.8812 21.0736 18.4765 20.8884 18.1814 20.5711C17.8862 20.2539 17.7243 19.8302 17.7306 19.3914C17.7352 19.1737 17.7817 18.959 17.8675 18.7599C17.9534 18.5607 18.0768 18.3811 18.2307 18.2313C18.3846 18.0815 18.5659 17.9646 18.7642 17.8873C18.9624 17.8101 19.1735 17.774 19.3854 17.7812ZM19.8515 19.9855V18.9155H18.8756V19.9855H19.8515Z" fill="black"/>
<path d="M25.8328 21.0871C25.6211 21.09 25.4111 21.0489 25.2152 20.9665C25.0194 20.884 24.8417 20.7617 24.6929 20.6071C24.5441 20.4524 24.4273 20.2685 24.3493 20.0663C24.2713 19.8641 24.2339 19.6478 24.2392 19.4305C24.2319 19.2132 24.2681 18.9966 24.3454 18.7943C24.4227 18.5919 24.5396 18.4079 24.6887 18.2537C24.8379 18.0994 25.0162 17.9782 25.2127 17.8975C25.4092 17.8168 25.6198 17.7783 25.8313 17.7843C26.0432 17.7819 26.2534 17.8228 26.4499 17.9044C26.6463 17.9861 26.825 18.107 26.9756 18.2601C27.1263 18.4132 27.2459 18.5954 27.3275 18.7963C27.4091 18.9972 27.4511 19.2128 27.4511 19.4305C27.4465 19.8694 27.2744 20.2889 26.9717 20.5988C26.669 20.9086 26.26 21.084 25.8328 21.0871ZM26.3207 18.9112H25.3244V19.9737H26.3207V18.9112Z" fill="black"/>
</svg>
