<svg width="47" height="30" viewBox="0 0 47 30" fill="none" xmlns="http://www.w3.org/2000/svg">
<path d="M37.8364 19.446L7.00507 0.575128C6.07951 0.0123565 4.97817 -0.145185 3.94167 0.136923C2.90517 0.419032 2.01778 1.11786 1.47339 2.08071C0.934202 3.04675 0.783262 4.19627 1.05355 5.2781C1.32384 6.35993 1.99338 7.28614 2.91588 7.85434L33.7472 26.7252C34.6728 27.288 35.7741 27.4455 36.8106 27.1634C37.8471 26.8813 38.7345 26.1825 39.2789 25.2196C39.8181 24.2536 39.969 23.1041 39.6987 22.0223C39.4284 20.9404 38.7589 20.0142 37.8364 19.446ZM3.8123 7.11561C3.30398 6.80468 2.89542 6.34339 2.63831 5.79009C2.3812 5.23678 2.28708 4.61631 2.36785 4.00717C2.44863 3.39803 2.70068 2.82757 3.09211 2.36795C3.48355 1.90834 3.99679 1.58021 4.56691 1.42508C5.13704 1.26994 5.73843 1.29477 6.29504 1.49642C6.85164 1.69807 7.33845 2.06748 7.69388 2.55793C8.04931 3.04838 8.2574 3.63783 8.29183 4.25173C8.32626 4.86563 8.18548 5.4764 7.8873 6.00678C7.48765 6.71766 6.83389 7.2338 6.06974 7.44173C5.30559 7.64966 4.49361 7.53236 3.8123 7.11561Z" fill="#8b5c30"/>
<path d="M44.9598 17.8836L22.9343 24.1209C22.5283 24.2359 22.2885 24.6726 22.3987 25.0963L23.3045 28.5811C23.4147 29.0048 23.8331 29.2551 24.2391 29.1402L46.2645 22.9029C46.6705 22.7879 46.9103 22.3512 46.8002 21.9275L45.8943 18.4427C45.7841 18.019 45.3657 17.7687 44.9598 17.8836Z" fill="#8b5c30"/>
</svg>
