<svg width="38" height="37" viewBox="0 0 38 37" fill="none" xmlns="http://www.w3.org/2000/svg">
<path d="M28.8796 13.9707C25.144 13.7769 21.4404 13.1725 17.8342 12.1681C14.7141 11.357 11.5939 10.69 8.33552 10.9063C6.59714 11.019 4.86322 11.1722 3.12929 11.2173C1.24381 11.2668 0.798074 10.8162 0.798074 8.91895C0.77133 6.35027 1.49343 5.12451 3.91825 4.32687C5.50765 3.85502 7.13487 3.52478 8.78126 3.33995C11.42 2.97493 14.0989 2.86226 16.7154 2.38007C18.5563 2.04659 20.3081 1.24444 22.1222 0.717186C25.4608 -0.260717 28.8083 -0.305781 32.0667 1.00109C34.3489 1.90239 36.114 3.36248 36.9698 5.80048C38.1688 9.22089 36.5241 12.5106 33.025 13.4615C32.3637 13.6452 31.6904 13.7822 31.0103 13.8716C30.2793 13.9707 29.5393 13.9707 28.8796 13.9707Z" fill="black"/>
<path d="M19.3633 32.0551V13.1639C19.4816 13.1478 19.6015 13.1478 19.7199 13.1639C20.8298 13.5019 21.9486 13.8354 23.0406 14.2004C23.1202 14.2481 23.1881 14.3134 23.239 14.3915C23.29 14.4696 23.3228 14.5583 23.3348 14.6511C23.366 15.4622 23.3348 31.1898 23.3348 32.0505L19.3633 32.0551Z" fill="black"/>
<path d="M24.0836 24.2681H18.6367V36.9943H24.0836V24.2681Z" fill="black"/>
<path d="M16.8269 31.2639L17.8025 25.3886C17.9057 24.7676 17.4913 24.1796 16.8771 24.0754L16.8727 24.0746C16.2585 23.9704 15.677 24.3893 15.5738 25.0103L14.5982 30.8856C14.4951 31.5066 14.9095 32.0945 15.5237 32.1988L15.5281 32.1995C16.1423 32.3038 16.7238 31.8849 16.8269 31.2639Z" fill="black"/>
</svg>
