<svg width="44" height="44" viewBox="0 0 44 44" fill="none" xmlns="http://www.w3.org/2000/svg">
<path d="M21.948 0.0315328C26.1507 0.0362723 30.2576 1.30234 33.7492 3.66957C37.2407 6.0368 39.9601 9.39883 41.5632 13.3304C43.1663 17.2619 43.5811 21.5863 42.7553 25.7565C41.9294 29.9266 39.8999 33.7552 36.9235 36.758C33.9471 39.7607 30.1576 41.8026 26.0343 42.6253C21.911 43.4481 17.6392 43.0148 13.7593 41.3802C9.87935 39.7456 6.56565 36.9832 4.23737 33.4424C1.90909 29.9016 0.67083 25.7416 0.679243 21.4885C0.673594 18.6635 1.22036 15.8652 2.28803 13.255C3.3557 10.6448 4.92319 8.27414 6.90017 6.27966C8.87716 4.28518 11.2246 2.7063 13.8072 1.63395C16.3898 0.561613 19.1565 0.0170139 21.948 0.0315328ZM40.1872 21.5124C40.1494 11.3005 31.8735 2.96357 21.8866 3.04488C18.2742 3.0515 14.7449 4.14183 11.7448 6.17804C8.74463 8.21424 6.4084 11.1049 5.03141 14.4846C3.65441 17.8643 3.29848 21.5812 4.0086 25.1656C4.71872 28.75 6.46302 32.0408 9.02098 34.6221C11.5789 37.2034 14.8357 38.9592 18.3796 39.6677C21.9235 40.3761 25.5954 40.0053 28.9311 38.6022C32.2668 37.1991 35.1165 34.8266 37.12 31.7847C39.1236 28.7428 40.1909 25.1681 40.1872 21.5124Z" fill="#8b5c30"/>
<path d="M39.4358 21.556C39.4301 25.0641 38.3966 28.4919 36.4657 31.4055C34.5349 34.3192 31.7936 36.5879 28.5886 37.9248C25.3835 39.2616 21.8587 39.6065 18.4599 38.9158C15.0611 38.2251 11.9411 36.5299 9.4945 34.0446C7.04786 31.5592 5.38452 28.3954 4.71487 24.9533C4.04521 21.5111 4.39933 17.9454 5.73242 14.7069C7.06551 11.4685 9.31769 8.70291 12.2041 6.75996C15.0905 4.81701 18.4815 3.78398 21.9481 3.79155C24.2502 3.79153 26.5296 4.2515 28.6556 5.14506C30.7817 6.03863 32.7124 7.3482 34.3372 8.99866C35.9619 10.6491 37.2487 12.608 38.1236 14.7629C38.9986 16.9178 39.4445 19.2263 39.4358 21.556ZM8.10916 12.8459L18.9515 19.064L19.0319 18.9492L11.0773 9.24427C10.3306 10.0813 9.6027 10.8705 8.90319 11.6884C8.61782 12.0593 8.35274 12.4457 8.10916 12.8459ZM8.01463 30.2755L11.0773 33.8437L19.0319 24.1149L18.9421 24.0001L8.01463 30.2755ZM22.5294 38.0959L27.0242 37.3402L22.6287 25.325L22.5294 25.3681V38.0959ZM18.4458 20.3411L18.4883 20.2454L7.54199 13.8073C6.86611 15.2423 6.18078 16.5528 6.12407 18.1121L18.4458 20.3411ZM7.43801 29.3189L18.4789 22.8187L18.4316 22.7183L5.92556 24.9759L7.43801 29.3189ZM21.3195 38.0863V25.349H21.2155L16.8341 37.3402L21.3195 38.0863ZM26.9911 5.79566L22.52 5.01123V17.7295L22.6239 17.7582C24.0655 13.8217 25.4976 9.89956 27.0006 5.79566H26.9911ZM33.0079 9.18209L24.8264 18.954L24.9257 19.064L35.8295 12.7981L33.0079 9.18209ZM24.9257 24.0097L24.8264 24.1197L33.0079 33.8772L35.8437 30.2564L24.9257 24.0097ZM16.8577 5.83393C18.3465 9.89956 19.7881 13.836 21.2249 17.7917L21.3005 17.7534V4.99688L16.8577 5.83393ZM23.7725 18.0786L23.8953 18.1743L32.0437 8.45028L28.116 6.16396L23.7725 18.0786ZM32.0437 34.609L23.9001 24.9041L23.7725 24.9902L28.1207 36.9193L32.0437 34.609ZM37.7437 18.1217C37.5468 16.6043 37.0553 15.1413 36.2974 13.8169L25.6016 20.231L25.6583 20.3363L37.7437 18.1217ZM25.6347 22.7183L25.5921 22.8283L36.3022 29.252C36.9969 27.817 37.6397 26.4969 37.7201 24.9472L25.6347 22.7183ZM38.1974 19.2792L26.0128 21.4459V21.6229L38.1785 23.7753L38.1974 19.2792ZM5.81685 23.7897L17.8597 21.6181L17.8361 21.4316L5.81685 19.2792V23.7897ZM19.9441 18.1504L20.0764 18.0834L15.7187 6.12569L11.9754 8.42158L19.9441 18.1504ZM20.0575 24.9711L19.9393 24.9041L11.9612 34.6521L15.7423 36.9097L20.0575 24.9711Z" fill="#8b5c30"/>
</svg>
