<svg width="56" height="35" viewBox="0 0 56 35" fill="none" xmlns="http://www.w3.org/2000/svg">
<path fill-rule="evenodd" clip-rule="evenodd" d="M34.4966 0C33.984 0 33.5685 0.425431 33.5685 0.950226C33.5685 1.47502 33.984 1.90045 34.4966 1.90045H37.2771L38.6302 6.55954C35.0568 7.05051 31.9202 9.35416 30.342 12.7456L26.4885 21.0262L21.7821 9.78233V4.46606H22.5245C23.0371 4.46606 23.4526 4.04063 23.4526 3.51584C23.4526 2.99104 23.0371 2.56561 22.5245 2.56561H16.9561C16.4436 2.56561 16.0281 2.99104 16.0281 3.51584C16.0281 4.04063 16.4436 4.46606 16.9561 4.46606H19.9259V9.63818L15.9934 14.8984C14.4259 13.9845 12.6068 13.4616 10.6667 13.4616C4.77563 13.4616 0 18.2831 0 24.2308C0 30.1785 4.77563 35 10.6667 35C16.1116 35 20.6036 30.8811 21.2527 25.5611H25.2653C25.4549 25.9202 25.7534 26.2232 26.1409 26.4123C27.1126 26.8863 28.2757 26.4641 28.7387 25.4692L33.8608 14.4623C34.9617 12.0967 37.2508 10.5605 39.7933 10.458L41.0486 14.3656C37.291 16.0316 34.6667 19.8218 34.6667 24.2308C34.6667 30.1785 39.4423 35 45.3333 35C51.2244 35 56 30.1785 56 24.2308C56 18.2831 51.2244 13.4616 45.3333 13.4616C44.4504 13.4616 43.5925 13.5699 42.772 13.774L40.9524 8.16486L38.9296 0.746059C38.836 0.310354 38.4589 0 38.0232 0H34.4966ZM41.7025 16.4009L44.4707 25.0178C44.6729 25.5 45.2187 25.723 45.6896 25.516C46.1606 25.3089 46.3784 24.7501 46.1762 24.2679L43.4314 15.8067C44.0424 15.6681 44.6788 15.5949 45.3333 15.5949C50.1101 15.5949 53.9223 19.4951 53.9223 24.2308C53.9223 28.9665 50.1101 32.8667 45.3333 32.8667C40.5566 32.8667 36.7443 28.9665 36.7443 24.2308C36.7443 20.7849 38.7628 17.7814 41.7025 16.4009ZM10.6667 15.5949C12.1342 15.5949 13.5106 15.963 14.7135 16.6104L9.18218 24.0091C8.95511 24.2933 8.90824 24.686 9.0618 25.0178C9.21536 25.3495 9.54187 25.5611 9.90046 25.5611H19.154C18.5193 29.6753 14.9876 32.8667 10.6667 32.8667C5.88993 32.8667 2.07768 28.9665 2.07768 24.2308C2.07768 19.4951 5.88993 15.5949 10.6667 15.5949ZM11.8589 23.6606H19.2371C19.0823 21.2821 17.9655 19.1531 16.2647 17.6806L11.8589 23.6606ZM17.5194 15.9776C19.7164 17.8391 21.1594 20.5783 21.3186 23.6606H25.2626L25.4254 23.3108L20.6036 11.7913L17.5194 15.9776Z" fill="#333F48"/>
</svg>
