<svg width="93" height="63" viewBox="0 0 93 63" fill="none" xmlns="http://www.w3.org/2000/svg">
<path d="M90.1293 21.5337C88.3725 22.1064 86.7911 22.0639 85.3761 20.9315C83.961 19.799 83.3772 18.3212 83.6488 16.5255C83.679 16.4022 83.6752 16.273 83.6378 16.1516C83.6004 16.0303 83.5308 15.9214 83.4364 15.8365C81.3033 13.7071 79.1739 11.5703 77.0482 9.42616C76.9573 9.32477 76.8405 9.25004 76.7103 9.21001C76.5801 9.16998 76.4415 9.16615 76.3093 9.19894C75.6642 9.31141 75.0024 9.28274 74.3695 9.1149C73.7365 8.94706 73.1475 8.64403 72.6429 8.2267C72.1383 7.80936 71.7301 7.28762 71.4465 6.69741C71.1629 6.10719 71.0106 5.46252 71 4.80779C71 4.14274 71.1367 3.47585 71.2106 2.81081L71.3547 2.77571C71.4729 2.881 71.5985 2.97891 71.7112 3.0916C72.4206 3.79544 73.1355 4.49559 73.8283 5.2179C74.0389 5.43589 74.2236 5.45252 74.5192 5.40264C74.7132 5.37123 75.1159 5.24931 75.4152 5.19204C75.5863 5.12492 75.7418 5.0234 75.8721 4.89375C76.0023 4.7641 76.1046 4.60909 76.1726 4.43832C76.542 3.48694 76.3167 2.81081 75.5205 2.18825C74.8628 1.6673 74.3068 1.02811 73.6417 0.374151C74.9958 -0.111702 76.228 -0.137565 77.4325 0.374151C79.4535 1.24056 80.5065 3.21907 80.1795 5.3934C80.1706 5.50858 80.185 5.62436 80.2218 5.73386C80.2586 5.84335 80.3171 5.94431 80.3938 6.03074C82.509 8.18105 84.6427 10.311 86.7671 12.454C86.8539 12.5559 86.9681 12.6306 87.0962 12.6692C87.2243 12.7079 87.3608 12.7088 87.4894 12.672C88.4433 12.5027 89.4263 12.6437 90.2941 13.0743C91.1619 13.5049 91.8688 14.2023 92.311 15.0643C92.9835 16.3316 93.05 17.9849 92.4588 19.1118C92.3295 18.9954 92.2039 18.892 92.0893 18.7793C91.391 18.0828 90.6891 17.3938 90.0055 16.6844C89.922 16.5862 89.8115 16.5145 89.6878 16.4784C89.564 16.4423 89.4323 16.4433 89.3091 16.4812C87.7647 16.8285 87.7536 16.823 87.4617 18.408C87.4504 18.5148 87.4609 18.6228 87.4927 18.7253C87.5244 18.8279 87.5768 18.923 87.6465 19.0047C88.3226 19.7196 89.0301 20.405 89.7266 21.1033C89.843 21.2289 89.952 21.349 90.1293 21.5337ZM80.1869 9.85844C80.9535 9.4354 80.9665 9.18047 80.2552 8.7371C79.5514 9.25436 79.5495 9.27283 80.1869 9.85844ZM81.6777 11.364L82.3723 10.7322L81.7571 10.1319C81.5299 10.3591 81.3452 10.5512 81.1161 10.7692L81.6777 11.364ZM83.1556 12.8844L83.8945 12.2323L83.2664 11.6522L82.5921 12.2785L83.1556 12.8844Z" fill="#6236BA"/>
<path fill-rule="evenodd" clip-rule="evenodd" d="M53.3164 9.00049C52.5242 9.00049 51.882 9.65687 51.882 10.4666C51.882 11.2762 52.5242 11.9326 53.3164 11.9326H57.6139L59.7052 19.1209C54.1823 19.8784 49.3345 23.4326 46.8952 28.6652L40.9395 41.441L33.6654 24.0932V15.891H34.8129C35.6051 15.891 36.2473 15.2346 36.2473 14.4249C36.2473 13.6152 35.6051 12.9589 34.8129 12.9589H26.2067C25.4145 12.9589 24.7723 13.6152 24.7723 14.4249C24.7723 15.2346 25.4145 15.891 26.2067 15.891H30.7967V23.8708L24.7186 31.9866C22.2961 30.5766 19.4845 29.7697 16.4859 29.7697C7.381 29.7697 0 37.2087 0 46.3851C0 55.5615 7.381 63.0005 16.4859 63.0005C24.9013 63.0005 31.844 56.6456 32.8473 48.4376H39.049C39.3419 48.9917 39.8034 49.4592 40.4023 49.7509C41.9041 50.4822 43.7017 49.8308 44.4172 48.2958L52.3338 31.3138C54.0352 27.6639 57.5732 25.2938 61.5028 25.1356L63.443 31.1646C57.6354 33.7349 53.5793 39.5826 53.5793 46.3851C53.5793 55.5615 60.9603 63.0005 70.0652 63.0005C79.1701 63.0005 86.5511 55.5615 86.5511 46.3851C86.5511 37.2087 79.1701 29.7697 70.0652 29.7697C68.7006 29.7697 67.3747 29.9368 66.1066 30.2519L63.2943 21.5977L60.1679 10.1515C60.0232 9.47932 59.4404 9.00049 58.767 9.00049H53.3164ZM64.4535 34.3048L68.7319 47.5993C69.0445 48.3433 69.888 48.6874 70.6159 48.368C71.3438 48.0485 71.6805 47.1864 71.3679 46.4424L67.1257 33.3879C68.07 33.1742 69.0536 33.0612 70.0652 33.0612C77.4479 33.0612 83.34 39.0786 83.34 46.3851C83.34 53.6916 77.4479 59.7091 70.0652 59.7091C62.6825 59.7091 56.7905 53.6916 56.7905 46.3851C56.7905 41.0686 59.91 36.4346 64.4535 34.3048ZM16.4859 33.0612C18.754 33.0612 20.8815 33.6291 22.7406 34.6279L14.1916 46.0431C13.8406 46.4816 13.7682 47.0874 14.0055 47.5993C14.2429 48.1112 14.7475 48.4376 15.3017 48.4376H29.6035C28.6225 54.7853 23.1641 59.7091 16.4859 59.7091C9.10321 59.7091 3.21117 53.6916 3.21117 46.3851C3.21117 39.0786 9.10321 33.0612 16.4859 33.0612ZM18.3286 45.5054H29.7321C29.4927 41.8357 27.7666 38.5511 25.138 36.2791L18.3286 45.5054ZM27.0771 33.6517C30.4729 36.5236 32.703 40.7499 32.9491 45.5054H39.0447L39.2963 44.9657L31.844 27.1928L27.0771 33.6517Z" fill="#6236BA"/>
</svg>
