<svg width="78" height="40" viewBox="0 0 78 40" fill="none" xmlns="http://www.w3.org/2000/svg">
<path fill-rule="evenodd" clip-rule="evenodd" d="M38.1926 0C37.6251 0 37.1651 0.486206 37.1651 1.08597C37.1651 1.68574 37.6251 2.17194 38.1926 2.17194H41.2711L42.7692 7.49661C38.8129 8.05772 35.3402 10.6905 33.5929 14.5664L29.3266 24.03L24.1159 11.1798V5.10407H24.9379C25.5053 5.10407 25.9654 4.61786 25.9654 4.0181C25.9654 3.41833 25.5053 2.93213 24.9379 2.93213H18.7729C18.2054 2.93213 17.7454 3.41833 17.7454 4.0181C17.7454 4.61786 18.2054 5.10407 18.7729 5.10407H22.0609V11.0151L17.7069 17.0268C15.9716 15.9823 13.9575 15.3846 11.8095 15.3846C5.2873 15.3846 0 20.895 0 27.6923C0 34.4897 5.2873 40 11.8095 40C17.8378 40 22.8111 35.2927 23.5298 29.2126H27.9723C28.1822 29.6231 28.5127 29.9694 28.9417 30.1855C30.0176 30.7272 31.3052 30.2447 31.8178 29.1076L37.4888 16.5283C38.7076 13.8248 41.2419 12.0691 44.0569 11.9519L45.4467 16.4178C41.2865 18.3218 38.381 22.6534 38.381 27.6923C38.381 34.4897 43.6683 40 50.1905 40C56.7127 40 62 34.4897 62 27.6923C62 20.895 56.7127 15.3846 50.1905 15.3846C49.2129 15.3846 48.2631 15.5084 47.3547 15.7418L45.3402 9.33126L43.1006 0.852638C42.997 0.354691 42.5795 0 42.0971 0H38.1926ZM46.1706 18.7439L49.2354 28.5917C49.4593 29.1428 50.0635 29.3977 50.5849 29.1611C51.1064 28.9244 51.3476 28.2858 51.1237 27.7347L48.0848 18.0648C48.7612 17.9064 49.4658 17.8227 50.1905 17.8227C55.479 17.8227 59.6997 22.2801 59.6997 27.6923C59.6997 33.1045 55.479 37.5619 50.1905 37.5619C44.9019 37.5619 40.6812 33.1045 40.6812 27.6923C40.6812 23.7542 42.9159 20.3216 46.1706 18.7439ZM11.8095 17.8227C13.4343 17.8227 14.9582 18.2434 16.29 18.9833L10.166 27.439C9.91458 27.7638 9.86269 28.2125 10.0327 28.5917C10.2027 28.9709 10.5642 29.2126 10.9612 29.2126H21.2062C20.5035 33.9147 16.5934 37.5619 11.8095 37.5619C6.52099 37.5619 2.30029 33.1045 2.30029 27.6923C2.30029 22.2801 6.52099 17.8227 11.8095 17.8227ZM13.1295 27.0407H21.2983C21.1268 24.3224 19.8903 21.8893 18.0074 20.2063L13.1295 27.0407ZM19.3964 18.2601C21.8289 20.3875 23.4265 23.5181 23.6028 27.0407H27.9693L28.1495 26.6409L22.8111 13.4758L19.3964 18.2601Z" fill="#333F48"/>
<rect x="57" y="18" width="21" height="21" rx="2" fill="black"/>
</svg>
