<svg width="57" height="48" viewBox="0 0 57 48" fill="none" xmlns="http://www.w3.org/2000/svg">
<path d="M28.506 0C37.2734 0 46.0407 0 54.8081 0C56.3847 0 57.3433 1.12511 56.8854 2.47902C56.726 2.86666 56.4948 3.22102 56.204 3.52365C49.9391 10.814 43.6662 18.0985 37.3853 25.3772C36.6499 26.1749 36.2525 27.2249 36.2762 28.3076C36.3206 32.303 36.2936 36.3001 36.2936 40.3003C36.2936 41.8436 36.0021 42.2822 34.5903 42.8582C30.7116 44.4446 26.8328 46.0294 22.954 47.6127C21.5835 48.1729 20.7659 47.63 20.7643 46.1231C20.7532 40.2324 20.7437 34.3418 20.7722 28.4496C20.799 27.3125 20.3893 26.2081 19.6267 25.3615C13.4082 18.1732 7.19969 10.9739 1.00127 3.76351C0.880846 3.62938 0.766765 3.47158 0.643176 3.34218C0.0410794 2.68258 -0.202928 1.94093 0.193188 1.10459C0.589304 0.268258 1.3134 0 2.20863 0C10.9739 0.00946794 19.7397 0.00946794 28.506 0Z" fill="#333F48"/>
</svg>
