<svg width="44" height="34" viewBox="0 0 44 34" fill="none" xmlns="http://www.w3.org/2000/svg">
<path fill-rule="evenodd" clip-rule="evenodd" d="M43.6559 10.4324L21.8365 0L0.0172476 10.4323H0V33.9999H43.6711L43.6549 10.4324H43.6559Z" fill="#00AA50"/>
<path d="M17.5709 27.7923C16.5839 28.114 15.6954 28.0902 14.9004 27.4539C14.1054 26.8177 13.7775 25.9874 13.93 24.9786C13.947 24.9093 13.9449 24.8367 13.9238 24.7686C13.9028 24.7004 13.8637 24.6392 13.8107 24.5915C12.6123 23.3952 11.416 22.1947 10.2217 20.9901C10.1706 20.9331 10.105 20.8912 10.0319 20.8687C9.95872 20.8462 9.88083 20.844 9.80657 20.8624C9.44415 20.9256 9.07234 20.9095 8.71674 20.8152C8.36114 20.7209 8.0302 20.5507 7.74671 20.3162C7.46322 20.0818 7.23392 19.7886 7.07458 19.457C6.91524 19.1255 6.82966 18.7633 6.82373 18.3954C6.82373 18.0218 6.90053 17.6471 6.94205 17.2735L7.023 17.2538C7.08942 17.3129 7.16 17.3679 7.22331 17.4312C7.62185 17.8267 8.02351 18.22 8.41271 18.6258C8.53103 18.7483 8.63481 18.7576 8.80087 18.7296C8.90985 18.712 9.1361 18.6435 9.30424 18.6113C9.40037 18.5736 9.48773 18.5166 9.56093 18.4437C9.63412 18.3709 9.69159 18.2838 9.72976 18.1879C9.93734 17.6533 9.81072 17.2735 9.3634 16.9237C8.99392 16.631 8.68152 16.2719 8.30788 15.9045C9.06864 15.6316 9.7609 15.617 10.4376 15.9045C11.573 16.3913 12.1646 17.5029 11.9809 18.7244C11.9759 18.7891 11.984 18.8542 12.0047 18.9157C12.0254 18.9772 12.0582 19.0339 12.1013 19.0825C13.2897 20.2906 14.4884 21.4872 15.6819 22.6912C15.7307 22.7484 15.7949 22.7904 15.8668 22.8121C15.9388 22.8338 16.0155 22.8344 16.0878 22.8136C16.6236 22.7186 17.1759 22.7978 17.6634 23.0397C18.151 23.2816 18.5481 23.6734 18.7966 24.1577C19.1744 24.8697 19.2117 25.7985 18.8796 26.4316C18.807 26.3663 18.7364 26.3081 18.672 26.2448C18.2797 25.8536 17.8853 25.4664 17.5013 25.0679C17.4544 25.0127 17.3923 24.9725 17.3228 24.9522C17.2533 24.9319 17.1793 24.9324 17.1101 24.9537C16.2424 25.1488 16.2362 25.1457 16.0722 26.0362C16.0658 26.0962 16.0717 26.1569 16.0896 26.2145C16.1074 26.2722 16.1368 26.3256 16.176 26.3715C16.5558 26.7731 16.9533 27.1582 17.3446 27.5505C17.41 27.621 17.4712 27.6885 17.5709 27.7923ZM11.9851 21.233C12.4158 20.9953 12.423 20.8521 12.0235 20.603C11.628 20.8936 11.627 20.904 11.9851 21.233ZM12.8226 22.0788L13.2129 21.7239L12.8672 21.3866C12.7396 21.5142 12.6358 21.6222 12.5071 21.7446L12.8226 22.0788ZM13.6529 22.933L14.0681 22.5666L13.7152 22.2407L13.3364 22.5926L13.6529 22.933Z" fill="white"/>
<path d="M25 20.6078L29.6076 25L38 17" stroke="white" stroke-width="3"/>
</svg>
