<svg width="84" height="40" viewBox="0 0 84 40" fill="none" xmlns="http://www.w3.org/2000/svg">
<path fill-rule="evenodd" clip-rule="evenodd" d="M60.1926 0C59.6251 0 59.1651 0.486206 59.1651 1.08597C59.1651 1.68574 59.6251 2.17194 60.1926 2.17194H63.2711L64.7692 7.49661C60.8129 8.05772 57.3402 10.6905 55.5929 14.5664L51.3266 24.03L46.1159 11.1798V5.10407H46.9379C47.5053 5.10407 47.9654 4.61786 47.9654 4.0181C47.9654 3.41833 47.5053 2.93213 46.9379 2.93213H40.7729C40.2054 2.93213 39.7454 3.41833 39.7454 4.0181C39.7454 4.61786 40.2054 5.10407 40.7729 5.10407H44.0609V11.0151L39.7069 17.0268C37.9716 15.9823 35.9575 15.3846 33.8095 15.3846C27.2873 15.3846 22 20.895 22 27.6923C22 34.4897 27.2873 40 33.8095 40C39.8378 40 44.8111 35.2927 45.5298 29.2126H49.9723C50.1822 29.6231 50.5127 29.9694 50.9417 30.1855C52.0176 30.7272 53.3052 30.2447 53.8178 29.1076L59.4888 16.5283C60.7076 13.8248 63.2419 12.0691 66.0569 11.9519L67.4467 16.4178C63.2865 18.3218 60.381 22.6534 60.381 27.6923C60.381 34.4897 65.6683 40 72.1905 40C78.7127 40 84 34.4897 84 27.6923C84 20.895 78.7127 15.3846 72.1905 15.3846C71.2129 15.3846 70.2631 15.5084 69.3547 15.7418L67.3402 9.33126L65.1006 0.852638C64.997 0.354691 64.5795 0 64.0971 0H60.1926ZM68.1706 18.7439L71.2354 28.5917C71.4593 29.1428 72.0635 29.3977 72.5849 29.1611C73.1064 28.9244 73.3476 28.2858 73.1237 27.7347L70.0848 18.0648C70.7612 17.9064 71.4658 17.8227 72.1905 17.8227C77.479 17.8227 81.6997 22.2801 81.6997 27.6923C81.6997 33.1045 77.479 37.5619 72.1905 37.5619C66.9019 37.5619 62.6812 33.1045 62.6812 27.6923C62.6812 23.7542 64.9159 20.3216 68.1706 18.7439ZM33.8095 17.8227C35.4343 17.8227 36.9582 18.2434 38.29 18.9833L32.166 27.439C31.9146 27.7638 31.8627 28.2125 32.0327 28.5917C32.2027 28.9709 32.5642 29.2126 32.9612 29.2126H43.2062C42.5035 33.9147 38.5934 37.5619 33.8095 37.5619C28.521 37.5619 24.3003 33.1045 24.3003 27.6923C24.3003 22.2801 28.521 17.8227 33.8095 17.8227ZM35.1295 27.0407H43.2983C43.1268 24.3224 41.8903 21.8893 40.0074 20.2063L35.1295 27.0407ZM41.3964 18.2601C43.8289 20.3875 45.4265 23.5181 45.6028 27.0407H49.9693L50.1495 26.6409L44.8111 13.4758L41.3964 18.2601Z" fill="#333F48"/>
<path d="M4 18H17.5" stroke="black"/>
<path d="M0 27H13.5" stroke="black"/>
<path d="M4 36H17.5" stroke="black"/>
</svg>
