<svg width="48" height="33" viewBox="0 0 48 33" fill="none" xmlns="http://www.w3.org/2000/svg">
<path d="M0 0H47.9822L48 31.9805H0V0Z" fill="#333F48"/>
<path fill-rule="evenodd" clip-rule="evenodd" d="M30.0633 7.86203C29.7949 7.95408 29.6562 8.25866 29.7535 8.54232C29.8508 8.82598 30.1473 8.98131 30.4157 8.88926L31.8716 8.38987L33.4439 10.6652C31.6638 11.5723 30.4485 13.3808 30.2508 15.4974L29.7682 20.6653L25.2193 15.4331L24.2337 12.5595L24.6224 12.4262C24.8908 12.3341 25.0295 12.0296 24.9322 11.7459C24.8349 11.4622 24.5385 11.3069 24.2701 11.399L21.3543 12.399C21.0859 12.4911 20.9472 12.7957 21.0445 13.0793C21.1418 13.363 21.4383 13.5183 21.7067 13.4263L23.2617 12.8929L24.2206 15.6885L23.1366 19.2381C22.1465 19.0256 21.0969 19.0696 20.081 19.4181C16.9963 20.4761 15.3896 23.94 16.4922 27.1548C17.5949 30.3696 20.9894 32.118 24.0741 31.06C26.9252 30.0821 28.5138 27.049 27.8674 24.0568L29.9685 23.3362C30.1343 23.4963 30.3468 23.6064 30.5848 23.639C31.1815 23.7207 31.7122 23.2836 31.7702 22.6627L32.4117 15.7933C32.5495 14.317 33.4634 13.0755 34.7757 12.5634L36.1575 14.4501C34.4987 16.0255 33.8272 18.5455 34.6446 20.9286C35.7473 24.1435 39.1418 25.8919 42.2265 24.8339C45.3112 23.7758 46.918 20.312 45.8153 17.0972C44.7127 13.8823 41.3181 12.1339 38.2334 13.192C37.7711 13.3505 37.342 13.5631 36.9502 13.8209L34.9575 11.1158L32.5229 7.46911C32.3931 7.25042 32.1381 7.15039 31.91 7.22864L30.0633 7.86203ZM36.8772 15.4328L39.9242 19.5932C40.1195 19.8175 40.4466 19.8401 40.6548 19.6436C40.863 19.4471 40.8735 19.1059 40.6782 18.8816L37.6723 14.8011C37.9666 14.6165 38.2862 14.4626 38.6289 14.3451C41.1302 13.4872 43.8494 14.9106 44.7274 17.4703C45.6054 20.0301 44.3323 22.8229 41.831 23.6808C39.3298 24.5387 36.6105 23.1152 35.7326 20.5555C35.0937 18.6929 35.5938 16.707 36.8772 15.4328ZM20.4765 20.5712C21.245 20.3076 22.034 20.2594 22.7838 20.3933L21.2592 25.3859C21.193 25.5802 21.2412 25.8009 21.3831 25.9527C21.5251 26.1044 21.7352 26.1601 21.923 26.0957L26.7684 24.4338C27.1988 26.7716 25.9412 29.1309 23.6786 29.9069C21.1774 30.7648 18.4581 29.3414 17.5802 26.7816C16.7022 24.2219 17.9753 21.4291 20.4765 20.5712ZM22.5962 24.7167L26.4596 23.3916C25.9375 22.1338 24.9581 21.1836 23.7945 20.6931L22.5962 24.7167ZM24.1358 19.5473C25.6313 20.1589 26.8947 21.3803 27.5495 23.0178L29.6147 22.3094L29.6351 22.0911L24.9746 16.7306L24.1358 19.5473Z" fill="#F5F5F5"/>
</svg>
