<svg width="43" height="36" viewBox="0 0 43 36" fill="none" xmlns="http://www.w3.org/2000/svg">
<path fill-rule="evenodd" clip-rule="evenodd" d="M42.4233 10.6058L21.2117 0L0 10.6058H42.4233ZM42.4076 10.606H0V35.353H42.4233L42.4076 10.606Z" fill="#333F48"/>
<path d="M28.5282 29.8961C27.0121 30.3903 25.6474 30.3536 24.4263 29.3764C23.2051 28.3991 22.7013 27.1237 22.9357 25.5741C22.9617 25.4677 22.9585 25.3562 22.9262 25.2515C22.8939 25.1468 22.8338 25.0528 22.7523 24.9795C20.9115 23.1419 19.0739 21.2979 17.2395 19.4476C17.161 19.3601 17.0602 19.2956 16.9479 19.261C16.8355 19.2265 16.7159 19.2232 16.6018 19.2515C16.0451 19.3485 15.474 19.3238 14.9278 19.1789C14.3816 19.0341 13.8732 18.7726 13.4378 18.4124C13.0023 18.0523 12.6501 17.602 12.4053 17.0927C12.1606 16.5834 12.0291 16.027 12.02 15.462C12.02 14.8881 12.138 14.3126 12.2018 13.7387L12.3261 13.7084C12.4281 13.7992 12.5365 13.8837 12.6338 13.981C13.246 14.5884 13.8629 15.1926 14.4608 15.8159C14.6425 16.004 14.8019 16.0184 15.057 15.9753C15.2244 15.9482 15.5719 15.843 15.8302 15.7936C15.9779 15.7357 16.1121 15.6481 16.2245 15.5362C16.3369 15.4243 16.4252 15.2905 16.4838 15.1432C16.8027 14.3221 16.6082 13.7387 15.9211 13.2014C15.3535 12.7518 14.8737 12.2002 14.2998 11.6359C15.4683 11.2166 16.5317 11.1943 17.5711 11.6359C19.3152 12.3836 20.2239 14.091 19.9417 15.9674C19.9341 16.0668 19.9465 16.1667 19.9783 16.2612C20.01 16.3557 20.0605 16.4428 20.1266 16.5174C21.952 18.3731 23.7933 20.2112 25.6267 22.0605C25.7016 22.1484 25.8001 22.2129 25.9107 22.2463C26.0212 22.2796 26.139 22.2804 26.25 22.2486C27.0732 22.1025 27.9215 22.2242 28.6704 22.5958C29.4193 22.9674 30.0293 23.5693 30.411 24.3131C30.9913 25.4068 31.0486 26.8336 30.5385 27.8061C30.4269 27.7056 30.3185 27.6163 30.2197 27.5191C29.617 26.9181 29.0112 26.3234 28.4214 25.7113C28.3493 25.6265 28.254 25.5647 28.1471 25.5335C28.0403 25.5023 27.9267 25.5032 27.8203 25.5359C26.4876 25.8356 26.478 25.8308 26.2261 27.1987C26.2163 27.2908 26.2254 27.384 26.2528 27.4725C26.2802 27.5611 26.3254 27.6431 26.3855 27.7136C26.969 28.3306 27.5796 28.922 28.1806 29.5246C28.2811 29.633 28.3751 29.7367 28.5282 29.8961ZM19.9481 19.8206C20.6097 19.4555 20.6208 19.2355 20.0071 18.8529C19.3997 19.2993 19.3981 19.3152 19.9481 19.8206ZM21.2346 21.1199L21.834 20.5747L21.3032 20.0565C21.1071 20.2526 20.9477 20.4184 20.75 20.6066L21.2346 21.1199ZM22.51 22.4319L23.1477 21.8692L22.6056 21.3686L22.0238 21.909L22.51 22.4319Z" fill="white"/>
</svg>
