<svg width="74" height="52" viewBox="0 0 74 52" fill="none" xmlns="http://www.w3.org/2000/svg">
<path fill-rule="evenodd" clip-rule="evenodd" d="M38.1926 12C37.6251 12 37.1651 12.4862 37.1651 13.086C37.1651 13.6857 37.6251 14.1719 38.1926 14.1719H41.2711L42.7692 19.4966C38.8129 20.0577 35.3402 22.6905 33.5929 26.5664L29.3266 36.03L24.1159 23.1798V17.1041H24.9379C25.5053 17.1041 25.9654 16.6179 25.9654 16.0181C25.9654 15.4183 25.5053 14.9321 24.9379 14.9321H18.7729C18.2054 14.9321 17.7454 15.4183 17.7454 16.0181C17.7454 16.6179 18.2054 17.1041 18.7729 17.1041H22.0609V23.0151L17.7069 29.0268C15.9716 27.9823 13.9575 27.3846 11.8095 27.3846C5.2873 27.3846 0 32.895 0 39.6923C0 46.4897 5.2873 52 11.8095 52C17.8378 52 22.8111 47.2927 23.5298 41.2126H27.9723C28.1822 41.6231 28.5127 41.9694 28.9417 42.1855C30.0176 42.7272 31.3052 42.2447 31.8178 41.1076L37.4888 28.5283C38.7076 25.8248 41.2419 24.0691 44.0569 23.9519L45.4467 28.4178C41.2865 30.3218 38.381 34.6534 38.381 39.6923C38.381 46.4897 43.6683 52 50.1905 52C56.7127 52 62 46.4897 62 39.6923C62 32.895 56.7127 27.3846 50.1905 27.3846C49.2129 27.3846 48.2631 27.5084 47.3547 27.7418L45.3402 21.3313L43.1006 12.8526C42.997 12.3547 42.5795 12 42.0971 12H38.1926ZM46.1706 30.7439L49.2354 40.5917C49.4593 41.1428 50.0635 41.3977 50.5849 41.1611C51.1064 40.9244 51.3476 40.2858 51.1237 39.7347L48.0848 30.0648C48.7612 29.9064 49.4658 29.8227 50.1905 29.8227C55.479 29.8227 59.6997 34.2801 59.6997 39.6923C59.6997 45.1045 55.479 49.5619 50.1905 49.5619C44.9019 49.5619 40.6812 45.1045 40.6812 39.6923C40.6812 35.7542 42.9159 32.3216 46.1706 30.7439ZM11.8095 29.8227C13.4343 29.8227 14.9582 30.2434 16.29 30.9833L10.166 39.439C9.91458 39.7638 9.86269 40.2125 10.0327 40.5917C10.2027 40.9709 10.5642 41.2126 10.9612 41.2126H21.2062C20.5035 45.9147 16.5934 49.5619 11.8095 49.5619C6.52099 49.5619 2.30029 45.1045 2.30029 39.6923C2.30029 34.2801 6.52099 29.8227 11.8095 29.8227ZM13.1295 39.0407H21.2983C21.1268 36.3224 19.8903 33.8893 18.0074 32.2063L13.1295 39.0407ZM19.3964 30.2601C21.8289 32.3875 23.4265 35.5181 23.6028 39.0407H27.9693L28.1495 38.6409L22.8111 25.4758L19.3964 30.2601Z" fill="#333F48"/>
<path fill-rule="evenodd" clip-rule="evenodd" d="M61.99 2C56.47 2 52 6.48 52 12C52 17.52 56.47 22 61.99 22C67.52 22 72 17.52 72 12C72 6.48 67.52 2 61.99 2ZM62 20C57.58 20 54 16.42 54 12C54 7.58 57.58 4 62 4C66.42 4 70 7.58 70 12C70 16.42 66.42 20 62 20ZM61 7H62.5V12.25L67 14.92L66.25 16.15L61 13V7Z" fill="#333F48"/>
</svg>
