<svg width="47" height="51" viewBox="0 0 47 51" fill="none" xmlns="http://www.w3.org/2000/svg">
<circle cx="30" cy="17" r="15.5" fill="#F5F5F5" stroke="#DF2A2A" stroke-width="3"/>
<path d="M1.75182 43.8774C0.270331 45.1191 0.0758855 47.3266 1.31752 48.8081C2.55915 50.2896 4.76668 50.484 6.24818 49.2424L1.75182 43.8774ZM6.24818 49.2424C6.7321 48.8368 7.7595 47.7952 8.89739 46.6226C10.1178 45.3649 11.6732 43.7373 13.3375 41.9843C16.6679 38.4764 20.4603 34.4385 22.9365 31.7904L17.8235 27.0094C15.3548 29.6496 11.5753 33.6737 8.26098 37.1647C6.60295 38.9111 5.0678 40.5173 3.87367 41.7479C3.27576 42.3641 2.77167 42.8775 2.38434 43.2639C2.19034 43.4573 2.03374 43.6108 1.91402 43.7254C1.78019 43.8534 1.73654 43.8902 1.75182 43.8774L6.24818 49.2424Z" fill="#DF2A2A"/>
<path d="M28.4863 19.9961C28.4993 19.2214 28.5872 18.6094 28.75 18.1602C28.9128 17.7109 29.2448 17.2129 29.7461 16.666L31.0254 15.3477C31.5723 14.7292 31.8457 14.0651 31.8457 13.3555C31.8457 12.6719 31.6667 12.138 31.3086 11.7539C30.9505 11.3633 30.4297 11.168 29.7461 11.168C29.082 11.168 28.5482 11.3438 28.1445 11.6953C27.7409 12.0469 27.5391 12.5189 27.5391 13.1113H25.7324C25.7454 12.0566 26.1198 11.207 26.8555 10.5625C27.5977 9.91146 28.5612 9.58594 29.7461 9.58594C30.9766 9.58594 31.9336 9.91797 32.6172 10.582C33.3073 11.2396 33.6523 12.1445 33.6523 13.2969C33.6523 14.4362 33.125 15.5592 32.0703 16.666L31.0059 17.7207C30.5306 18.248 30.293 19.0065 30.293 19.9961H28.4863ZM28.4082 23.0918C28.4082 22.7988 28.4961 22.5547 28.6719 22.3594C28.8542 22.1576 29.1211 22.0566 29.4727 22.0566C29.8242 22.0566 30.0911 22.1576 30.2734 22.3594C30.4557 22.5547 30.5469 22.7988 30.5469 23.0918C30.5469 23.3848 30.4557 23.6289 30.2734 23.8242C30.0911 24.013 29.8242 24.1074 29.4727 24.1074C29.1211 24.1074 28.8542 24.013 28.6719 23.8242C28.4961 23.6289 28.4082 23.3848 28.4082 23.0918Z" fill="#DF2A2A"/>
</svg>
