<svg width="88" height="42" viewBox="0 0 88 42" fill="none" xmlns="http://www.w3.org/2000/svg">
<path fill-rule="evenodd" clip-rule="evenodd" d="M40.6931 0C40.0885 0 39.5983 0.500973 39.5983 1.11896C39.5983 1.73694 40.0885 2.23791 40.6931 2.23791H43.9731L45.5693 7.7243C41.354 8.30245 37.654 11.0152 35.7922 15.0089L31.2466 24.7598L25.6947 11.5194V5.25909H26.5706C27.1752 5.25909 27.6653 4.75812 27.6653 4.14014C27.6653 3.52215 27.1752 3.02118 26.5706 3.02118H20.0019C19.3973 3.02118 18.9072 3.52215 18.9072 4.14014C18.9072 4.75812 19.3973 5.25909 20.0019 5.25909H23.5052V11.3496L18.8662 17.5439C17.0173 16.4677 14.8713 15.8519 12.5827 15.8519C5.63347 15.8519 0 21.5296 0 28.5334C0 35.5372 5.63347 41.2149 12.5827 41.2149C19.0057 41.2149 24.3046 36.3646 25.0703 30.0999H29.8037C30.0273 30.5228 30.3795 30.8797 30.8366 31.1023C31.9828 31.6605 33.3548 31.1633 33.901 29.9917L39.9432 17.0304C41.2418 14.2447 43.9421 12.4357 46.9413 12.315L48.4221 16.9165C43.9895 18.8783 40.8938 23.3415 40.8938 28.5334C40.8938 35.5372 46.5273 41.2149 53.4765 41.2149C60.4257 41.2149 66.0592 35.5372 66.0592 28.5334C66.0592 21.5296 60.4257 15.8519 53.4765 15.8519C52.435 15.8519 51.423 15.9794 50.4551 16.2199L48.3086 9.61467L45.9225 0.878535C45.812 0.365463 45.3672 0 44.8532 0H40.6931ZM49.1934 19.3132L52.4589 29.4601C52.6974 30.028 53.3412 30.2906 53.8968 30.0468C54.4524 29.8029 54.7093 29.1449 54.4708 28.5771L51.2329 18.6135C51.9537 18.4503 52.7044 18.364 53.4765 18.364C59.1113 18.364 63.6083 22.9568 63.6083 28.5334C63.6083 34.11 59.1113 38.7027 53.4765 38.7027C47.8417 38.7027 43.3447 34.11 43.3447 28.5334C43.3447 24.4757 45.7257 20.9388 49.1934 19.3132ZM12.5827 18.364C14.3138 18.364 15.9375 18.7975 17.3565 19.5598L10.8316 28.2724C10.5637 28.607 10.5084 29.0694 10.6896 29.4601C10.8707 29.8508 11.2559 30.0999 11.6789 30.0999H22.5946C21.8458 34.9447 17.6797 38.7027 12.5827 38.7027C6.94792 38.7027 2.45089 34.11 2.45089 28.5334C2.45089 22.9568 6.94792 18.364 12.5827 18.364ZM13.9891 27.862H22.6927C22.51 25.0611 21.1926 22.5541 19.1863 20.8201L13.9891 27.862ZM20.6663 18.8147C23.2581 21.0067 24.9602 24.2323 25.1481 27.862H29.8005L29.9925 27.4501L24.3046 13.8851L20.6663 18.8147Z" fill="#4186D3"/>
<path d="M76.9112 22.2233C76.9392 20.5694 77.1278 19.2629 77.4772 18.304C77.8266 17.345 78.5393 16.2818 79.6153 15.1143L82.3613 12.2999C83.5351 10.9796 84.1221 9.56198 84.1221 8.04707C84.1221 6.58776 83.7378 5.44811 82.9692 4.62811C82.2006 3.79422 81.0826 3.37727 79.6153 3.37727C78.1899 3.37727 77.044 3.75252 76.1776 4.50303C75.3111 5.25353 74.8779 6.26115 74.8779 7.52589H71C71.0279 5.27438 71.8315 3.46066 73.4106 2.08473C75.0037 0.694911 77.0719 0 79.6153 0C82.2565 0 84.3107 0.70881 85.7781 2.12643C87.2593 3.53015 88 5.462 88 7.92199C88 10.3542 86.8681 12.7516 84.6042 15.1143L82.3194 17.3658C81.2992 18.4916 80.7891 20.1107 80.7891 22.2233H76.9112ZM76.7435 28.8319C76.7435 28.2065 76.9322 27.6853 77.3095 27.2683C77.7008 26.8375 78.2737 26.6221 79.0284 26.6221C79.783 26.6221 80.3559 26.8375 80.7472 27.2683C81.1385 27.6853 81.3342 28.2065 81.3342 28.8319C81.3342 29.4573 81.1385 29.9785 80.7472 30.3954C80.3559 30.7985 79.783 31 79.0284 31C78.2737 31 77.7008 30.7985 77.3095 30.3954C76.9322 29.9785 76.7435 29.4573 76.7435 28.8319Z" fill="#4186D3"/>
</svg>
