<svg width="81" height="32" viewBox="0 0 81 32" fill="none" xmlns="http://www.w3.org/2000/svg">
<path fill-rule="evenodd" clip-rule="evenodd" d="M30.8321 0C30.374 0 30.0026 0.388965 30.0026 0.868778C30.0026 1.34859 30.374 1.73756 30.8321 1.73756H33.3173L34.5267 5.99729C31.3328 6.44618 28.5294 8.55237 27.1188 11.6532L23.6747 19.224L19.4682 8.94384V4.08326H20.1318C20.5899 4.08326 20.9613 3.69429 20.9613 3.21448C20.9613 2.73467 20.5899 2.3457 20.1318 2.3457H15.1549C14.6968 2.3457 14.3255 2.73467 14.3255 3.21448C14.3255 3.69429 14.6968 4.08326 15.1549 4.08326H17.8093V8.81205L14.2944 13.6214C12.8935 12.7858 11.2676 12.3077 9.53357 12.3077C4.26833 12.3077 0 16.716 0 22.1539C0 27.5917 4.26833 32 9.53357 32C14.4001 32 18.4149 28.2341 18.9951 23.3701H22.5814C22.7509 23.6985 23.0177 23.9755 23.3641 24.1484C24.2325 24.5818 25.272 24.1957 25.6858 23.2861L30.2639 13.2227C31.2478 11.0598 33.2937 9.65531 35.5662 9.56156L36.6882 13.1343C33.3297 14.6574 30.9841 18.1227 30.9841 22.1539C30.9841 27.5917 35.2525 32 40.5177 32C45.783 32 50.0513 27.5917 50.0513 22.1539C50.0513 16.716 45.783 12.3077 40.5177 12.3077C39.7286 12.3077 38.9618 12.4067 38.2285 12.5934L36.6022 7.46501L34.7942 0.682111C34.7105 0.283753 34.3735 0 33.9841 0H30.8321ZM37.2726 14.9951L39.7467 22.8734C39.9274 23.3143 40.4152 23.5182 40.8362 23.3289C41.2571 23.1396 41.4518 22.6287 41.271 22.1878L38.8178 14.4518C39.3639 14.3251 39.9327 14.2582 40.5177 14.2582C44.787 14.2582 48.1943 17.8241 48.1943 22.1539C48.1943 26.4836 44.787 30.0495 40.5177 30.0495C36.2484 30.0495 32.8411 26.4836 32.8411 22.1539C32.8411 19.0033 34.6451 16.2573 37.2726 14.9951ZM9.53357 14.2582C10.8452 14.2582 12.0754 14.5947 13.1505 15.1866L8.20679 21.9512C8.00383 22.211 7.96194 22.57 8.09919 22.8734C8.23644 23.1767 8.52826 23.3701 8.84877 23.3701H17.1193C16.552 27.1317 13.3955 30.0495 9.53357 30.0495C5.26426 30.0495 1.85697 26.4836 1.85697 22.1539C1.85697 17.8241 5.26426 14.2582 9.53357 14.2582ZM10.5992 21.6326H17.1936C17.0552 19.4579 16.057 17.5114 14.537 16.1651L10.5992 21.6326ZM15.6583 14.6081C17.622 16.31 18.9117 18.8144 19.054 21.6326H22.579L22.7245 21.3127L18.4149 10.7806L15.6583 14.6081Z" fill="#333F48"/>
<path d="M80.6541 13.027L71.6284 20.0015L71.6284 6.05273L80.6541 13.027Z" fill="#333F48"/>
<rect x="73.0452" y="9.57959" width="5.98731" height="16.7645" transform="rotate(90 73.0452 9.57959)" fill="#333F48"/>
</svg>
