<svg width="81" height="47" viewBox="0 0 81 47" fill="none" xmlns="http://www.w3.org/2000/svg">
<path fill-rule="evenodd" clip-rule="evenodd" d="M38.1926 7C37.6251 7 37.1651 7.48621 37.1651 8.08597C37.1651 8.68574 37.6251 9.17194 38.1926 9.17194H41.2711L42.7692 14.4966C38.8129 15.0577 35.3402 17.6905 33.5929 21.5664L29.3266 31.03L24.1159 18.1798V12.1041H24.9379C25.5053 12.1041 25.9654 11.6179 25.9654 11.0181C25.9654 10.4183 25.5053 9.93213 24.9379 9.93213H18.7729C18.2054 9.93213 17.7454 10.4183 17.7454 11.0181C17.7454 11.6179 18.2054 12.1041 18.7729 12.1041H22.0609V18.0151L17.7069 24.0268C15.9716 22.9823 13.9575 22.3846 11.8095 22.3846C5.2873 22.3846 0 27.895 0 34.6923C0 41.4897 5.2873 47 11.8095 47C17.8378 47 22.8111 42.2927 23.5298 36.2126H27.9723C28.1822 36.6231 28.5127 36.9694 28.9417 37.1855C30.0176 37.7272 31.3052 37.2447 31.8178 36.1076L37.4888 23.5283C38.7076 20.8248 41.2419 19.0691 44.0569 18.9519L45.4467 23.4178C41.2865 25.3218 38.381 29.6534 38.381 34.6923C38.381 41.4897 43.6683 47 50.1905 47C56.7127 47 62 41.4897 62 34.6923C62 27.895 56.7127 22.3846 50.1905 22.3846C49.2129 22.3846 48.2631 22.5084 47.3547 22.7418L45.3402 16.3313L43.1006 7.85264C42.997 7.35469 42.5795 7 42.0971 7H38.1926ZM46.1706 25.7439L49.2354 35.5917C49.4593 36.1428 50.0635 36.3977 50.5849 36.1611C51.1064 35.9244 51.3476 35.2858 51.1237 34.7347L48.0848 25.0648C48.7612 24.9064 49.4658 24.8227 50.1905 24.8227C55.479 24.8227 59.6997 29.2801 59.6997 34.6923C59.6997 40.1045 55.479 44.5619 50.1905 44.5619C44.9019 44.5619 40.6812 40.1045 40.6812 34.6923C40.6812 30.7542 42.9159 27.3216 46.1706 25.7439ZM11.8095 24.8227C13.4343 24.8227 14.9582 25.2434 16.29 25.9833L10.166 34.439C9.91458 34.7638 9.86269 35.2125 10.0327 35.5917C10.2027 35.9709 10.5642 36.2126 10.9612 36.2126H21.2062C20.5035 40.9147 16.5934 44.5619 11.8095 44.5619C6.52099 44.5619 2.30029 40.1045 2.30029 34.6923C2.30029 29.2801 6.52099 24.8227 11.8095 24.8227ZM13.1295 34.0407H21.2983C21.1268 31.3224 19.8903 28.8893 18.0074 27.2063L13.1295 34.0407ZM19.3964 25.2601C21.8289 27.3875 23.4265 30.5181 23.6028 34.0407H27.9693L28.1495 33.6409L22.8111 20.4758L19.3964 25.2601Z" fill="#333F48"/>
<path d="M68.1339 21.1737C67.3128 21.4828 66.6669 21.3536 66.1999 20.8043C65.7511 20.2751 65.7368 19.6273 66.155 18.9029C66.3406 18.5804 66.3291 18.3125 65.9703 18.101C65.6386 17.8922 65.32 17.6634 65.0162 17.4158C64.6832 17.7986 64.3646 18.1948 64.0134 18.5641C63.3942 19.2072 62.7483 19.8244 62.1263 20.4646C61.9856 20.6168 61.8115 20.7344 61.6178 20.8083C61.4241 20.8822 61.2159 20.9103 61.0096 20.8904C60.5838 20.8646 60.2144 20.6828 60.1216 20.2923C60.0421 19.9565 60.0498 19.4971 60.2249 19.2263C60.5292 18.7527 60.9904 18.3775 61.3914 17.9699C61.9655 17.3957 62.532 16.8101 63.1215 16.2474C63.377 16.0053 63.3847 15.8398 63.1837 15.5326C61.1576 12.4232 61.0325 9.23349 62.8086 5.96337C62.8316 5.92222 62.8564 5.88107 62.8813 5.83992C63.4153 4.99017 63.4143 4.99113 62.6899 4.26291C61.9655 3.53469 61.2249 2.79595 60.489 2.06199C59.9043 1.47922 59.8402 0.826599 60.3168 0.352921C60.8373 -0.166689 61.4354 -0.112144 62.0641 0.517512C62.934 1.38353 63.8115 2.23998 64.6631 3.12704C64.9244 3.39881 65.0909 3.41412 65.4114 3.1902C67.2726 1.86678 69.3568 1.42563 71.6161 1.68974C73.1941 1.87443 74.5826 2.4859 75.9692 3.5079C76.3634 3.08111 76.7462 2.63327 77.1529 2.2151C77.7988 1.55577 78.4581 0.906023 79.1318 0.273496C79.4466 -0.0231499 79.8332 -0.0776946 80.2409 0.106035C80.6485 0.289764 80.9318 0.601721 80.8964 1.01798C80.8586 1.38884 80.7099 1.73969 80.4696 2.02467C79.8696 2.70504 79.2045 3.328 78.5557 3.96531C78.2045 4.31076 77.8361 4.63516 77.5108 4.94137C77.9079 5.67342 78.3175 6.28872 78.5921 6.95857C79.8361 9.9834 79.5308 12.8714 77.6983 15.5843C77.5146 15.856 77.5404 16.0072 77.7672 16.2235C78.7242 17.1393 79.6639 18.0685 80.6036 18.9986C81.0992 19.4895 81.1289 20.1172 80.6992 20.5718C80.2839 21.0081 79.4725 21.0263 79.016 20.5794C78.1146 19.6991 77.2342 18.7976 76.3366 17.9182C76.2074 17.7919 75.9309 17.6216 75.8524 17.6732C75.5654 17.8589 75.2209 18.0876 75.1079 18.3804C74.995 18.6732 75.0926 19.0732 75.1768 19.4062C75.3242 19.9919 75.1883 20.4904 74.7816 20.899C74.3577 21.3258 73.819 21.4732 73.2439 21.2732C72.9874 21.1823 72.8506 21.234 72.6697 21.4081C72.1424 21.9172 71.5032 21.9938 70.819 21.6856C70.6898 21.6273 70.5109 21.5785 70.3894 21.6215C69.2736 22.0186 68.9836 21.9698 68.1339 21.1737ZM63.844 10.5432C63.844 12.9413 64.9846 15.1125 67.0612 16.2484C68.0698 16.7996 68.643 17.4053 68.4535 18.589C68.397 18.9421 68.6143 19.0043 68.9415 18.9259C69.2133 18.8598 69.5482 18.7871 69.7798 18.8885C70.2487 19.0924 70.6496 19.1335 71.1195 18.8885C71.3042 18.7928 71.6113 18.8149 71.818 18.8962C72.1204 19.0149 72.3405 18.9488 72.4582 18.6991C72.5847 18.4414 72.6536 18.1593 72.6601 17.8723C72.6534 17.1929 72.9271 16.7546 73.5309 16.4187C76.0027 15.0436 77.2065 12.925 77.0495 10.0925C76.8247 6.11169 73.0142 3.23326 69.0908 4.05239C66.0602 4.68874 63.8449 7.42555 63.844 10.5432Z" fill="black"/>
<path d="M70.3917 26.2127C68.7458 26.1764 67.1439 25.7429 65.7239 24.7228C65.1028 24.2759 64.9287 23.6702 65.2837 23.1238C65.6827 22.5133 66.2932 22.43 66.9822 22.8453C69.2396 24.2061 71.5171 24.2463 73.7984 22.9018C74.4768 22.5008 75.0606 22.6147 75.4768 23.2578C75.829 23.8013 75.6491 24.4826 75.0357 24.8616C73.6435 25.7351 72.0353 26.203 70.3917 26.2127Z" fill="black"/>
<path d="M69.7978 12.8838H71.1145C70.838 11.4723 71.1997 10.5632 72.2628 10.1192C72.7108 9.92923 73.2112 9.90192 73.6772 10.042C74.1432 10.1821 74.5455 10.4808 74.8145 10.8863C75.0835 11.2918 75.2022 11.7786 75.15 12.2624C75.0978 12.7463 74.8781 13.1966 74.5288 13.5354C73.7384 14.3077 72.6915 14.3134 71.592 13.5593C71.592 14.1565 71.6016 14.7603 71.592 15.3632C71.5777 16.0856 71.1049 16.5794 70.4552 16.5756C69.8236 16.5756 69.37 16.0971 69.3375 15.3928C69.3241 15.0904 69.3375 14.7871 69.3375 14.4847V13.6933C68.8523 13.8263 68.3031 14.0646 67.7394 14.1058C67.1117 14.1507 66.5787 13.811 66.1911 13.2981C65.909 12.9229 65.7614 12.4636 65.7723 11.9943C65.7831 11.525 65.9517 11.073 66.2509 10.7113C66.5501 10.3495 66.9624 10.0991 67.4213 10.0003C67.8803 9.90161 68.3591 9.96034 68.7806 10.1671C69.7519 10.6484 70.0896 11.5718 69.7978 12.8838Z" fill="black"/>
</svg>
