<svg width="93" height="37" viewBox="0 0 93 37" fill="none" xmlns="http://www.w3.org/2000/svg">
<path fill-rule="evenodd" clip-rule="evenodd" d="M33.8502 0.925781C33.3473 0.925781 32.9395 1.35282 32.9395 1.8796C32.9395 2.40638 33.3473 2.83343 33.8502 2.83343H36.5787L37.9065 7.51015C34.4 8.00297 31.3222 10.3153 29.7735 13.7197L25.9922 22.0316L21.374 10.7451V5.40874H22.1025C22.6054 5.40874 23.0132 4.9817 23.0132 4.45492C23.0132 3.92814 22.6054 3.5011 22.1025 3.5011H16.6384C16.1355 3.5011 15.7278 3.92814 15.7278 4.45492C15.7278 4.9817 16.1355 5.40874 16.6384 5.40874H19.5526V10.6004L15.6937 15.8806C14.1557 14.9632 12.3706 14.4383 10.4668 14.4383C4.68615 14.4383 0 19.2781 0 25.2483C0 31.2185 4.68615 36.0583 10.4668 36.0583C15.8097 36.0583 20.2176 31.9237 20.8546 26.5836H24.7919C24.9779 26.9441 25.2709 27.2483 25.6511 27.438C26.6046 27.9139 27.7459 27.49 28.2002 26.4914L33.2264 15.4428C34.3066 13.0682 36.5528 11.5262 39.0477 11.4233L40.2796 15.3458C36.5923 17.018 34.0172 20.8226 34.0172 25.2483C34.0172 31.2185 38.7033 36.0583 44.484 36.0583C50.2646 36.0583 54.9508 31.2185 54.9508 25.2483C54.9508 19.2781 50.2646 14.4383 44.484 14.4383C43.6176 14.4383 42.7758 14.547 41.9706 14.7519L40.1851 9.12154L38.2002 1.67466C38.1083 1.23731 37.7383 0.925781 37.3108 0.925781H33.8502ZM40.9212 17.3888L43.6375 26.0382C43.8359 26.5223 44.3714 26.7462 44.8336 26.5383C45.2957 26.3305 45.5095 25.7696 45.3111 25.2855L42.6177 16.7923C43.2172 16.6532 43.8417 16.5797 44.484 16.5797C49.1712 16.5797 52.912 20.4946 52.912 25.2483C52.912 30.0019 49.1712 33.9168 44.484 33.9168C39.7967 33.9168 36.0559 30.0019 36.0559 25.2483C36.0559 21.7894 38.0365 18.7745 40.9212 17.3888ZM10.4668 16.5797C11.9068 16.5797 13.2575 16.9492 14.4378 17.599L9.01014 25.0258C8.78732 25.311 8.74133 25.7052 8.89202 26.0382C9.0427 26.3713 9.36309 26.5836 9.71497 26.5836H18.7951C18.1723 30.7134 14.7067 33.9168 10.4668 33.9168C5.77957 33.9168 2.03875 30.0019 2.03875 25.2483C2.03875 20.4946 5.77957 16.5797 10.4668 16.5797ZM11.6367 24.676H18.8767C18.7247 22.2884 17.6289 20.1514 15.96 18.6733L11.6367 24.676ZM17.1911 16.9639C19.347 18.8324 20.7629 21.582 20.9192 24.676H24.7893L24.949 24.3248L20.2176 12.7617L17.1911 16.9639Z" fill="#333F48"/>
<path d="M64.1708 10.5604C63.7742 10.5604 63.3816 10.6388 63.0154 10.791C62.6493 10.9433 62.3169 11.1664 62.0373 11.4476C61.7576 11.7287 61.5364 12.0624 61.3861 12.4294C61.2359 12.7964 61.1597 13.1894 61.1619 13.586C61.1774 14.3863 61.5049 15.149 62.0745 15.7114C62.6441 16.2739 63.4108 16.5917 64.2113 16.5972C64.6085 16.5938 65.0011 16.5119 65.3665 16.3562C65.7319 16.2005 66.063 15.9741 66.3406 15.6901C66.6182 15.406 66.8369 15.0699 66.9842 14.701C67.1315 14.3321 67.2044 13.9378 67.1987 13.5406C67.2064 13.1431 67.133 12.7481 66.9829 12.3799C66.8329 12.0117 66.6093 11.678 66.3259 11.399C66.0425 11.1201 65.7053 10.9019 65.3347 10.7577C64.9642 10.6135 64.5681 10.5464 64.1708 10.5604Z" fill="#4B4B4B"/>
<path d="M87.1314 10.5635C86.7345 10.5562 86.3401 10.6281 85.9713 10.775C85.6025 10.9218 85.2666 11.1407 84.9834 11.4188C84.7002 11.697 84.4752 12.0288 84.3216 12.3948C84.1681 12.7609 84.089 13.1539 84.0891 13.5509C84.0946 14.3519 84.4132 15.1191 84.9767 15.6885C85.5403 16.2578 86.3041 16.5842 87.1051 16.5979C87.5011 16.5988 87.8933 16.5212 88.259 16.3695C88.6247 16.2178 88.9567 15.9949 89.2357 15.714C89.5147 15.433 89.7351 15.0994 89.8842 14.7326C90.0334 14.3658 90.1082 13.9731 90.1044 13.5771C90.1202 13.1806 90.0545 12.785 89.9112 12.4149C89.7679 12.0448 89.5501 11.7081 89.2714 11.4256C88.9927 11.143 88.659 10.9208 88.2908 10.7725C87.9227 10.6242 87.5281 10.5531 87.1314 10.5635Z" fill="#4B4B4B"/>
<path d="M92.1709 8.61616C92.2019 7.77627 91.9037 7.33007 91.0781 7.25372C89.0977 7.07476 87.5801 6.09886 86.3608 4.57654C86.0888 4.23772 85.7118 3.98241 85.4422 3.6412C83.2947 0.904373 80.1165 0.300696 77.0313 0.145601C71.4765 -0.126411 65.9026 0.0716331 60.3359 0.0430002C59.2908 0.0358419 58.8327 0.386595 58.847 1.50089C58.8947 5.35679 58.8613 9.21268 58.8685 13.071C58.8685 14.264 59.298 14.7603 60.6485 15.1182C60.2166 13.2762 60.3789 11.6083 62.0801 10.4534C63.3949 9.56344 64.7764 9.55628 66.1365 10.3413C68.1813 11.5343 68.1002 13.405 67.5681 15.4857H83.5548C83.2828 11.594 84.2706 9.79489 86.8714 9.75909C87.8259 9.75909 88.8996 10.191 89.6918 10.7469C91.1926 11.8016 91.0399 13.4766 90.7154 15.1445C92.0039 14.5312 92.1471 14.3475 92.1614 13.2595C92.1638 11.7157 92.1137 10.1647 92.1709 8.61616ZM79.4436 6.49494V3.01605C82.9058 1.76813 84.3183 4.48826 86.3966 6.49494H79.4436Z" fill="#4B4B4B"/>
</svg>
