<svg width="89" height="34" viewBox="0 0 89 34" fill="none" xmlns="http://www.w3.org/2000/svg">
<path d="M7.53846 33.9233H0V27.1387H7.53846V33.9233Z" fill="#F7BC00"/>
<path d="M7.53846 20.3538H0V0H7.53846V20.3538Z" fill="#F7BC00"/>
<path fill-rule="evenodd" clip-rule="evenodd" d="M62.1347 0H56C54.3431 0 53 1.34315 53 3V30.9231C53 32.5799 54.3431 33.9231 56 33.9231H83.9231C85.5799 33.9231 86.9231 32.5799 86.9231 30.9231V3C86.9231 1.34315 85.5799 0 83.9231 0H77.7915V24.7904H62.1347V0Z" fill="#6236BA"/>
<path fill-rule="evenodd" clip-rule="evenodd" d="M24.2109 0H18.0762C16.4193 0 15.0762 1.34315 15.0762 3V30.9231C15.0762 32.5799 16.4193 33.9231 18.0762 33.9231H45.9992C47.6561 33.9231 48.9992 32.5799 48.9992 30.9231V3C48.9992 1.34315 47.6561 0 45.9992 0H39.8677V24.7904H24.2109V0Z" fill="#F7BC00"/>
<line x1="50.7509" y1="14.0104" x2="88.6196" y2="10.8546" stroke="#6236BA" stroke-width="6"/>
</svg>
