<svg width="77" height="39" viewBox="0 0 77 39" fill="none" xmlns="http://www.w3.org/2000/svg">
<path fill-rule="evenodd" clip-rule="evenodd" d="M34.4966 4C33.984 4 33.5685 4.42543 33.5685 4.95023C33.5685 5.47502 33.984 5.90045 34.4966 5.90045H37.2771L38.6302 10.5595C35.0568 11.0505 31.9202 13.3542 30.342 16.7456L26.4885 25.0262L21.7821 13.7823V8.46606H22.5245C23.0371 8.46606 23.4526 8.04063 23.4526 7.51584C23.4526 6.99104 23.0371 6.56561 22.5245 6.56561H16.9561C16.4436 6.56561 16.0281 6.99104 16.0281 7.51584C16.0281 8.04063 16.4436 8.46606 16.9561 8.46606H19.9259V13.6382L15.9934 18.8984C14.4259 17.9845 12.6068 17.4616 10.6667 17.4616C4.77563 17.4616 0 22.2831 0 28.2308C0 34.1785 4.77563 39 10.6667 39C16.1116 39 20.6036 34.8811 21.2527 29.5611H25.2653C25.4549 29.9202 25.7534 30.2232 26.1409 30.4123C27.1126 30.8863 28.2757 30.4641 28.7387 29.4692L33.8608 18.4623C34.9617 16.0967 37.2508 14.5605 39.7933 14.458L41.0486 18.3656C37.291 20.0316 34.6667 23.8218 34.6667 28.2308C34.6667 34.1785 39.4423 39 45.3333 39C51.2244 39 56 34.1785 56 28.2308C56 22.2831 51.2244 17.4616 45.3333 17.4616C44.4504 17.4616 43.5925 17.5699 42.772 17.774L40.9524 12.1649L38.9296 4.74606C38.836 4.31035 38.4589 4 38.0232 4H34.4966ZM41.7025 20.4009L44.4707 29.0178C44.6729 29.5 45.2187 29.723 45.6896 29.516C46.1606 29.3089 46.3784 28.7501 46.1762 28.2679L43.4314 19.8067C44.0424 19.6681 44.6788 19.5949 45.3333 19.5949C50.1101 19.5949 53.9223 23.4951 53.9223 28.2308C53.9223 32.9665 50.1101 36.8667 45.3333 36.8667C40.5566 36.8667 36.7443 32.9665 36.7443 28.2308C36.7443 24.7849 38.7628 21.7814 41.7025 20.4009ZM10.6667 19.5949C12.1342 19.5949 13.5106 19.963 14.7135 20.6104L9.18218 28.0091C8.95511 28.2933 8.90824 28.686 9.0618 29.0178C9.21536 29.3495 9.54187 29.5611 9.90046 29.5611H19.154C18.5193 33.6753 14.9876 36.8667 10.6667 36.8667C5.88993 36.8667 2.07768 32.9665 2.07768 28.2308C2.07768 23.4951 5.88993 19.5949 10.6667 19.5949ZM11.8589 27.6606H19.2371C19.0823 25.2821 17.9655 23.1531 16.2647 21.6806L11.8589 27.6606ZM17.5194 19.9776C19.7164 21.8391 21.1594 24.5783 21.3186 27.6606H25.2626L25.4254 27.3108L20.6036 15.7913L17.5194 19.9776Z" fill="#333F48"/>
<path fill-rule="evenodd" clip-rule="evenodd" d="M73.5 10.7188C73.5 6.85125 70.3675 3.71875 66.5 3.71875C65.45 3.71875 64.4525 3.96375 63.56 4.38375L62.265 3.08875C63.525 2.38875 64.96 1.96875 66.5 1.96875C71.33 1.96875 75.25 5.88875 75.25 10.7188C75.25 12.2588 74.8388 13.6938 74.13 14.9538L72.8263 13.65C73.2463 12.7488 73.5 11.7688 73.5 10.7188ZM58.9925 2.28375L57.7588 3.52625L59.5875 5.355C58.4412 6.8425 57.75 8.6975 57.75 10.7188C57.75 13.9563 59.5087 16.7738 62.1163 18.2875L62.9913 16.7737C60.9087 15.5575 59.5 13.3088 59.5 10.7188C59.5 9.17875 59.9987 7.76125 60.8387 6.615L62.09 7.875C61.565 8.68875 61.25 9.66875 61.25 10.7188C61.25 12.6613 62.3088 14.35 63.875 15.26L64.75 13.7375C63.7087 13.125 63 12.0138 63 10.7188C63 10.15 63.1487 9.625 63.385 9.1525L64.7675 10.535L64.75 10.7188C64.75 11.6813 65.5375 12.4688 66.5 12.4688L66.6838 12.4513L73.2638 19.0312L74.4975 17.7975L58.9925 2.28375ZM71.4963 12.3113C71.6538 11.8125 71.75 11.27 71.75 10.7188C71.75 7.8225 69.3962 5.46875 66.5 5.46875C65.9488 5.46875 65.4062 5.565 64.9075 5.7225L66.4125 7.2275C66.4247 7.2275 66.4369 7.22562 66.4499 7.2236C66.465 7.22126 66.4812 7.21875 66.5 7.21875C68.4338 7.21875 70 8.785 70 10.7188C70 10.7363 69.9978 10.7516 69.9956 10.7669C69.9934 10.7822 69.9913 10.7975 69.9913 10.815L71.4963 12.3113Z" fill="#333F48"/>
</svg>
