<svg width="90" height="49" viewBox="0 0 90 49" fill="none" xmlns="http://www.w3.org/2000/svg">
<path fill-rule="evenodd" clip-rule="evenodd" d="M40.6931 6.86914C40.0885 6.86914 39.5983 7.37011 39.5983 7.9881C39.5983 8.60608 40.0885 9.10705 40.6931 9.10705H43.9731L45.5693 14.5934C41.354 15.1716 37.654 17.8843 35.7922 21.878L31.2466 31.629L25.6947 18.3885V12.1282H26.5706C27.1752 12.1282 27.6653 11.6273 27.6653 11.0093C27.6653 10.3913 27.1752 9.89032 26.5706 9.89032H20.0019C19.3973 9.89032 18.9072 10.3913 18.9072 11.0093C18.9072 11.6273 19.3973 12.1282 20.0019 12.1282H23.5052V18.2188L18.8662 24.413C17.0173 23.3369 14.8713 22.721 12.5827 22.721C5.63347 22.721 0 28.3987 0 35.4025C0 42.4063 5.63347 48.084 12.5827 48.084C19.0057 48.084 24.3046 43.2337 25.0703 36.969H29.8037C30.0273 37.392 30.3795 37.7488 30.8366 37.9714C31.9828 38.5296 33.3548 38.0324 33.901 36.8608L39.9432 23.8995C41.2418 21.1138 43.9421 19.3048 46.9413 19.1841L48.4221 23.7856C43.9895 25.7474 40.8938 30.2106 40.8938 35.4025C40.8938 42.4063 46.5273 48.084 53.4765 48.084C60.4257 48.084 66.0592 42.4063 66.0592 35.4025C66.0592 28.3987 60.4257 22.721 53.4765 22.721C52.435 22.721 51.423 22.8486 50.4551 23.089L48.3086 16.4838L45.9225 7.74768C45.812 7.2346 45.3672 6.86914 44.8532 6.86914H40.6931ZM49.1934 26.1824L52.4589 36.3293C52.6974 36.8971 53.3412 37.1598 53.8968 36.9159C54.4524 36.6721 54.7093 36.0141 54.4708 35.4462L51.2329 25.4826C51.9537 25.3194 52.7044 25.2332 53.4765 25.2332C59.1113 25.2332 63.6083 29.8259 63.6083 35.4025C63.6083 40.9791 59.1113 45.5719 53.4765 45.5719C47.8417 45.5719 43.3447 40.9791 43.3447 35.4025C43.3447 31.3448 45.7257 27.808 49.1934 26.1824ZM12.5827 25.2332C14.3138 25.2332 15.9375 25.6667 17.3565 26.429L10.8316 35.1415C10.5637 35.4762 10.5084 35.9386 10.6896 36.3293C10.8707 36.72 11.2559 36.969 11.6789 36.969H22.5946C21.8458 41.8139 17.6797 45.5719 12.5827 45.5719C6.94792 45.5719 2.45089 40.9791 2.45089 35.4025C2.45089 29.8259 6.94792 25.2332 12.5827 25.2332ZM13.9891 34.7311H22.6927C22.51 31.9302 21.1926 29.4233 19.1863 27.6892L13.9891 34.7311ZM20.6663 25.6839C23.2581 27.8759 24.9602 31.1015 25.1481 34.7311H29.8005L29.9925 34.3192L24.3046 20.7542L20.6663 25.6839Z" fill="#333F48"/>
<path fill-rule="evenodd" clip-rule="evenodd" d="M77.4053 0C70.9101 0 65.6387 5.27144 65.6387 11.7666C65.6387 18.2618 70.9101 23.5332 77.4053 23.5332C83.9004 23.5332 89.1719 18.2618 89.1719 11.7666C89.1719 5.27144 83.9004 0 77.4053 0ZM72.4048 12.9433C72.4048 12.1314 73.0638 11.4724 73.8756 11.4724C74.6875 11.4724 75.3465 12.1314 75.3465 12.9433C75.3465 13.7552 74.6875 14.4141 73.8756 14.4141C73.0638 14.4141 72.4048 13.7552 72.4048 12.9433ZM79.4646 12.9433C79.4646 12.1314 80.1235 11.4724 80.9354 11.4724C81.7473 11.4724 82.4063 12.1314 82.4063 12.9433C82.4063 13.7552 81.7473 14.4141 80.9354 14.4141C80.1235 14.4141 79.4646 13.7552 79.4646 12.9433ZM67.9919 11.7666C67.9919 16.9556 72.2161 21.1798 77.4052 21.1798C82.5942 21.1798 86.8185 16.9556 86.8185 11.7666C86.8185 10.837 86.6773 9.94275 86.4302 9.10732C85.583 9.30735 84.7005 9.41325 83.7827 9.41325C79.8173 9.41325 76.3109 7.44823 74.1811 4.43598C73.028 7.2482 70.8277 9.51915 68.0507 10.7546C68.0154 11.0841 67.9919 11.4253 67.9919 11.7666Z" fill="#333F48"/>
</svg>
