<svg width="101" height="27" viewBox="0 0 101 27" fill="none" xmlns="http://www.w3.org/2000/svg">
<path fill-rule="evenodd" clip-rule="evenodd" d="M25.7479 0C25.3653 0 25.0552 0.324825 25.0552 0.725516C25.0552 1.12621 25.3653 1.45103 25.7479 1.45103H27.8233L28.8332 5.00834C26.1661 5.3832 23.8249 7.14209 22.6469 9.73155L19.7707 16.054L16.2579 7.469V3.40993H16.8121C17.1946 3.40993 17.5048 3.0851 17.5048 2.68441C17.5048 2.28372 17.1946 1.95889 16.8121 1.95889H12.6559C12.2733 1.95889 11.9632 2.28372 11.9632 2.68441C11.9632 3.0851 12.2733 3.40993 12.6559 3.40993H14.8725V7.35894L11.9373 11.3752C10.7674 10.6775 9.40958 10.2782 7.96149 10.2782C3.56448 10.2782 0 13.9595 0 18.5007C0 23.0419 3.56448 26.7232 7.96149 26.7232C12.0255 26.7232 15.3783 23.5783 15.8628 19.5164H18.8578C18.9993 19.7906 19.2221 20.022 19.5113 20.1663C20.2366 20.5282 21.1047 20.2059 21.4502 19.4462L25.2734 11.0423C26.095 9.23605 27.8036 8.06315 29.7013 7.98486L30.6383 10.9684C27.8336 12.2404 25.8748 15.1343 25.8748 18.5007C25.8748 23.0419 29.4393 26.7232 33.8363 26.7232C38.2333 26.7232 41.7978 23.0419 41.7978 18.5007C41.7978 13.9595 38.2333 10.2782 33.8363 10.2782C33.1773 10.2782 32.537 10.3609 31.9246 10.5168L30.5665 6.23403L29.0566 0.569631C28.9868 0.236962 28.7053 0 28.3801 0H25.7479ZM31.1263 12.5224L33.1925 19.1016C33.3434 19.4697 33.7507 19.64 34.1023 19.4819C34.4538 19.3238 34.6164 18.8972 34.4655 18.529L32.4168 12.0687C32.8728 11.9629 33.3478 11.907 33.8363 11.907C37.4016 11.907 40.2471 14.8849 40.2471 18.5007C40.2471 22.1165 37.4016 25.0944 33.8363 25.0944C30.271 25.0944 27.4256 22.1165 27.4256 18.5007C27.4256 15.8697 28.9321 13.5765 31.1263 12.5224ZM7.96149 11.907C9.05682 11.907 10.0842 12.1881 10.982 12.6823L6.85349 18.3314C6.684 18.5484 6.64902 18.8482 6.76363 19.1016C6.87825 19.3549 7.12195 19.5164 7.3896 19.5164H14.2963C13.8226 22.6577 11.1866 25.0944 7.96149 25.0944C4.39618 25.0944 1.55076 22.1165 1.55076 18.5007C1.55076 14.8849 4.39618 11.907 7.96149 11.907ZM8.85136 18.0654H14.3584C14.2428 16.2493 13.4092 14.6238 12.1398 13.4995L8.85136 18.0654ZM13.0763 12.1992C14.7161 13.6205 15.7931 15.7119 15.912 18.0654H18.8557L18.9772 17.7983L15.3783 9.00292L13.0763 12.1992Z" fill="#333F48"/>
<path d="M62.3542 10.8789L54.8169 16.7033L54.8169 5.05469L62.3542 10.8789Z" fill="#333F48"/>
<rect x="55.502" y="7.79565" width="5.48168" height="6.8521" transform="rotate(90 55.502 7.79565)" fill="#333F48"/>
<path fill-rule="evenodd" clip-rule="evenodd" d="M101 8.9762L85.7883 1.37036L70.5767 8.9762H101ZM100.989 8.97626H70.5767V26.7232H101L100.989 8.97626Z" fill="#333F48"/>
<path d="M91.8871 24.6326C90.6118 25.0484 89.4638 25.0175 88.4365 24.1954C87.4092 23.3733 86.9854 22.3005 87.1825 20.9969C87.2045 20.9074 87.2017 20.8136 87.1746 20.7255C87.1474 20.6374 87.0969 20.5583 87.0283 20.4967C85.4798 18.9508 83.9339 17.3996 82.3908 15.843C82.3248 15.7694 82.24 15.7152 82.1454 15.6861C82.0509 15.6571 81.9503 15.6543 81.8543 15.6781C81.386 15.7597 80.9056 15.7389 80.4461 15.6171C79.9866 15.4952 79.559 15.2752 79.1927 14.9723C78.8263 14.6693 78.53 14.2905 78.3241 13.8621C78.1182 13.4336 78.0077 12.9656 78 12.4903C78 12.0075 78.0992 11.5233 78.1529 11.0405L78.2575 11.0151C78.3433 11.0915 78.4345 11.1626 78.5163 11.2444C79.0313 11.7553 79.5503 12.2636 80.0532 12.788C80.2061 12.9462 80.3402 12.9583 80.5548 12.9221C80.6956 12.8993 80.988 12.8108 81.2052 12.7692C81.3295 12.7205 81.4423 12.6468 81.5369 12.5527C81.6315 12.4586 81.7058 12.346 81.7551 12.2221C82.0233 11.5314 81.8597 11.0405 81.2817 10.5886C80.8043 10.2104 80.4006 9.74637 79.9178 9.27162C80.9008 8.91891 81.7953 8.90013 82.6697 9.27162C84.1369 9.9006 84.9013 11.3369 84.664 12.9154C84.6575 12.999 84.668 13.0831 84.6947 13.1626C84.7214 13.242 84.7639 13.3153 84.8195 13.3781C86.3551 14.9391 87.9041 16.4854 89.4463 18.0411C89.5093 18.1151 89.5922 18.1693 89.6852 18.1974C89.7782 18.2255 89.8773 18.2261 89.9707 18.1994C90.6632 18.0765 91.3768 18.1789 92.0068 18.4914C92.6368 18.804 93.15 19.3104 93.471 19.9361C93.9592 20.8561 94.0074 22.0564 93.5783 22.8744C93.4844 22.79 93.3932 22.7149 93.3101 22.633C92.8031 22.1275 92.2935 21.6272 91.7973 21.1122C91.7367 21.0409 91.6565 20.9889 91.5666 20.9627C91.4767 20.9365 91.3812 20.9372 91.2917 20.9647C90.1705 21.2168 90.1625 21.2128 89.9506 22.3635C89.9424 22.441 89.95 22.5194 89.9731 22.5939C89.9961 22.6684 90.0341 22.7374 90.0847 22.7967C90.5755 23.3157 91.0892 23.8132 91.5948 24.3202C91.6793 24.4114 91.7584 24.4985 91.8871 24.6326ZM84.6693 16.1569C85.2259 15.8497 85.2353 15.6647 84.7189 15.3428C84.208 15.7183 84.2066 15.7317 84.6693 16.1569ZM85.7516 17.2499L86.2558 16.7912L85.8093 16.3553C85.6443 16.5203 85.5102 16.6598 85.3439 16.818L85.7516 17.2499ZM86.8245 18.3536L87.3609 17.8802L86.9049 17.4591L86.4154 17.9137L86.8245 18.3536Z" fill="white"/>
</svg>
