<svg width="56" height="42" viewBox="0 0 56 42" fill="none" xmlns="http://www.w3.org/2000/svg">
<path fill-rule="evenodd" clip-rule="evenodd" d="M34.4966 3C33.984 3 33.5685 3.42543 33.5685 3.95023C33.5685 4.47502 33.984 4.90045 34.4966 4.90045H37.2771L38.6302 9.55954C35.0568 10.0505 31.9202 12.3542 30.342 15.7456L26.4885 24.0262L21.7821 12.7823V7.46606H22.5245C23.0371 7.46606 23.4526 7.04063 23.4526 6.51584C23.4526 5.99104 23.0371 5.56561 22.5245 5.56561H16.9561C16.4436 5.56561 16.0281 5.99104 16.0281 6.51584C16.0281 7.04063 16.4436 7.46606 16.9561 7.46606H19.9259V12.6382L15.9934 17.8984C14.4259 16.9845 12.6068 16.4616 10.6667 16.4616C4.77563 16.4616 0 21.2831 0 27.2308C0 33.1785 4.77563 38 10.6667 38C16.1116 38 20.6036 33.8811 21.2527 28.5611H25.2653C25.4549 28.9202 25.7534 29.2232 26.1409 29.4123C27.1126 29.8863 28.2757 29.4641 28.7387 28.4692L33.8608 17.4623C34.9617 15.0967 37.2508 13.5605 39.7933 13.458L41.0486 17.3656C37.291 19.0316 34.6667 22.8218 34.6667 27.2308C34.6667 33.1785 39.4423 38 45.3333 38C51.2244 38 56 33.1785 56 27.2308C56 21.2831 51.2244 16.4616 45.3333 16.4616C44.4504 16.4616 43.5925 16.5699 42.772 16.774L40.9524 11.1649L38.9296 3.74606C38.836 3.31035 38.4589 3 38.0232 3H34.4966ZM41.7025 19.4009L44.4707 28.0178C44.6729 28.5 45.2187 28.723 45.6896 28.516C46.1606 28.3089 46.3784 27.7501 46.1762 27.2679L43.4314 18.8067C44.0424 18.6681 44.6788 18.5949 45.3333 18.5949C50.1101 18.5949 53.9223 22.4951 53.9223 27.2308C53.9223 31.9665 50.1101 35.8667 45.3333 35.8667C40.5566 35.8667 36.7443 31.9665 36.7443 27.2308C36.7443 23.7849 38.7628 20.7814 41.7025 19.4009ZM10.6667 18.5949C12.1342 18.5949 13.5106 18.963 14.7135 19.6104L9.18218 27.0091C8.95511 27.2933 8.90824 27.686 9.0618 28.0178C9.21536 28.3495 9.54187 28.5611 9.90046 28.5611H19.154C18.5193 32.6753 14.9876 35.8667 10.6667 35.8667C5.88993 35.8667 2.07768 31.9665 2.07768 27.2308C2.07768 22.4951 5.88993 18.5949 10.6667 18.5949ZM11.8589 26.6606H19.2371C19.0823 24.2821 17.9655 22.1531 16.2647 20.6806L11.8589 26.6606ZM17.5194 18.9776C19.7164 20.8391 21.1594 23.5783 21.3186 26.6606H25.2626L25.4254 26.3108L20.6036 14.7913L17.5194 18.9776Z" fill="#333F48"/>
<path d="M6.5 2L44.5 40" stroke="#333F48" stroke-width="3"/>
</svg>
