<svg xmlns="http://www.w3.org/2000/svg" width="82" height="45" fill="none" xmlns:v="https://vecta.io/nano"><path fill-rule="evenodd" d="M43.12 0c-.64 0-1.16.547-1.16 1.222s.52 1.222 1.16 1.222h3.476l1.69 6c-4.467.63-8.387 3.593-10.36 7.954L33.11 27.034l-5.883-14.456V5.742h.928c.64 0 1.16-.547 1.16-1.222s-.52-1.222-1.16-1.222h-6.96c-.64 0-1.16.547-1.16 1.222s.52 1.222 1.16 1.222h3.712v6.65l-4.916 6.763c-1.96-1.175-4.233-1.847-6.658-1.847C5.97 17.308 0 23.507 0 31.154S5.97 45 13.333 45c6.806 0 12.42-5.296 13.233-12.136h5.016c.237.462.6.85 1.095 1.094 1.215.6 2.668.067 3.247-1.212l6.403-14.152c1.376-3.042 4.237-5.017 7.416-5.148l1.57 5.024c-4.697 2.142-7.977 7.015-7.977 12.684C43.333 38.8 49.303 45 56.667 45S70 38.8 70 31.154s-5.97-13.846-13.333-13.846c-1.104 0-2.176.14-3.202.402l-2.275-7.212L48.662.96C48.545.4 48.074 0 47.53 0H43.12zm9.007 21.087l3.46 11.08c.253.62.935.907 1.524.64s.86-.985.608-1.605l-3.43-10.88a10.45 10.45 0 0 1 2.377-.272c5.97 0 10.736 5.015 10.736 11.103s-4.765 11.103-10.736 11.103S45.93 37.243 45.93 31.154c0-4.43 2.523-8.292 6.198-10.067zM13.333 20.05c1.834 0 3.555.473 5.06 1.306l-6.914 9.513c-.284.365-.342.87-.15 1.297s.6.698 1.048.698h11.567c-.793 5.3-5.208 9.393-10.61 9.393-5.97 0-10.736-5.014-10.736-11.103S7.362 20.05 13.333 20.05zm1.5 10.37h9.223c-.194-3.058-1.6-5.795-3.715-7.69l-5.507 7.69zm7.076-9.878c2.746 2.393 4.55 5.915 4.75 9.878h4.93l.204-.45-6.027-14.81-3.855 5.382z" fill="#ff3d00"/><rect x="63" y="25" width="19" height="20" rx="2" fill="#363636"/></svg>