<svg xmlns="http://www.w3.org/2000/svg" width="93" height="61" fill="none" xmlns:v="https://vecta.io/nano"><path fill-rule="evenodd" d="M57.29 0c-.85 0-1.54.74-1.54 1.656s.7 1.656 1.54 1.656h4.618l2.247 8.12C58.22 12.288 53 16.303 50.39 22.214L44 36.646 36.174 17.05V7.784h1.233c.85 0 1.54-.74 1.54-1.656s-.7-1.656-1.54-1.656H28.16c-.85 0-1.54.74-1.54 1.656s.7 1.656 1.54 1.656h4.932v9.014l-6.53 9.168c-2.603-1.593-5.624-2.504-8.846-2.504C7.93 23.462 0 31.865 0 42.23S7.93 61 17.714 61c9.042 0 16.502-7.18 17.58-16.45h6.664c.315.626.81 1.154 1.454 1.483 1.614.826 3.545.1 4.314-1.644l8.506-19.183c1.828-4.123 5.63-6.8 9.852-6.98l2.085 6.8c-6.24 2.904-10.6 9.51-10.6 17.194 0 10.366 7.93 18.77 17.714 18.77S93 52.597 93 42.23s-7.93-18.77-17.714-18.77c-1.466 0-2.89.19-4.254.545L68 14.23 64.65 1.3C64.495.54 63.87 0 63.146 0H57.29zm11.967 28.585l4.597 15.018c.336.84 1.242 1.23 2.024.868s1.144-1.335.808-2.175L72.127 27.55a13.62 13.62 0 0 1 3.159-.369c7.933 0 14.264 6.797 14.264 15.05s-6.33 15.05-14.264 15.05-14.264-6.797-14.264-15.05c0-6.006 3.352-11.24 8.234-13.646zM17.714 27.18c2.437 0 4.723.642 6.72 1.77L15.25 41.845c-.377.495-.455 1.18-.2 1.758s.797.947 1.393.947H31.81c-1.054 7.17-6.92 12.733-14.095 12.733-7.933 0-14.264-6.797-14.264-15.05s6.33-15.05 14.264-15.05zm1.98 14.057h12.253c-.257-4.145-2.112-7.856-4.936-10.422l-7.317 10.422zm9.4-13.4c3.65 3.244 6.045 8.018 6.3 13.4h6.55l.27-.6-8.008-20.077-5.122 7.296z" fill="#363636"/></svg>