<svg xmlns="http://www.w3.org/2000/svg" width="133" height="61" fill="none" xmlns:v="https://vecta.io/nano"><g fill="#333f48"><path d="M94 16l-11 9V7l11 9z"/><path d="M85 12v8H74v-8z"/><path fill-rule="evenodd" d="M132.423 7.606L117.212 0 102 7.606h30.423zm-.01 0H102v17.747h30.423l-.01-17.747z"/></g><path d="M123.31 23.262c-1.275.416-2.423.385-3.45-.437s-1.45-1.895-1.254-3.2a.5.5 0 0 0-.008-.271c-.027-.088-.077-.167-.146-.23l-4.637-4.654c-.066-.074-.15-.128-.246-.157s-.195-.032-.29-.008a3.29 3.29 0 0 1-2.662-.706c-.366-.303-.662-.682-.868-1.1a3.28 3.28 0 0 1-.324-1.372c0-.483.1-.967.153-1.45l.104-.025.26.23 1.537 1.544c.153.158.287.17.502.134.14-.023.433-.11.65-.153.124-.05.237-.122.332-.217a.98.98 0 0 0 .218-.331c.268-.69.105-1.182-.473-1.633-.478-.378-.882-.842-1.364-1.317.983-.353 1.877-.37 2.752 0 1.467.63 2.23 2.065 1.994 3.644a.61.61 0 0 0 .031.247.62.62 0 0 0 .124.216l4.627 4.663c.063.074.146.128.24.156s.192.03.286.002a3.29 3.29 0 0 1 3.5 1.737c.488.92.536 2.12.107 2.938l-.268-.24-1.513-1.52a.48.48 0 0 0-.231-.15c-.09-.026-.185-.026-.274.002-1.122.252-1.13.248-1.342 1.4a.58.58 0 0 0 .023.23.57.57 0 0 0 .112.203l1.5 1.523.292.313zm-7.218-8.476c.557-.307.566-.492.05-.814-.51.375-.513.39-.05.814zm1.082 1.093l.505-.46-.447-.436-.465.463.407.432zm1.073 1.104l.537-.473-.456-.42-.5.455.41.44z" fill="#fff"/><path fill-rule="evenodd" d="M53.316 7c-.792 0-1.434.656-1.434 1.466s.642 1.466 1.434 1.466h4.297l2.09 7.188c-5.523.758-10.37 4.312-12.8 9.544L40.94 39.44l-7.274-17.348V13.89h1.148c.792 0 1.434-.656 1.434-1.466s-.642-1.466-1.434-1.466h-8.606c-.792 0-1.434.656-1.434 1.466s.642 1.466 1.434 1.466h4.6v7.98l-6.078 8.116a16.31 16.31 0 0 0-8.233-2.217C7.38 27.77 0 35.208 0 44.385S7.38 61 16.486 61c8.415 0 15.358-6.355 16.36-14.563h6.202c.293.554.754 1.022 1.353 1.313 1.502.73 3.3.08 4.015-1.455l7.917-16.982c1.7-3.65 5.24-6.02 9.17-6.178l1.94 6.03c-5.808 2.57-9.864 8.418-9.864 15.22C53.58 53.56 60.96 61 70.065 61S86.55 53.56 86.55 44.385 79.17 27.77 70.065 27.77a16.4 16.4 0 0 0-3.959.482l-2.812-8.654L60.168 8.15C60.023 7.48 59.44 7 58.767 7h-5.45zm11.137 25.304L68.732 45.6c.313.744 1.156 1.088 1.884.77s1.065-1.182.752-1.926l-4.242-13.054a13.3 13.3 0 0 1 2.94-.327c7.383 0 13.275 6.017 13.275 13.324S77.448 57.71 70.065 57.71 56.79 51.69 56.79 44.385c0-5.316 3.12-9.95 7.663-12.08zM16.486 31.06a13.17 13.17 0 0 1 6.255 1.567l-8.55 11.415a1.49 1.49 0 0 0-.186 1.556c.237.512.742.838 1.296.838h14.302c-.98 6.348-6.44 11.27-13.118 11.27-7.383 0-13.275-6.017-13.275-13.324S9.103 31.06 16.486 31.06zm1.843 12.444h11.403c-.24-3.67-1.965-6.954-4.594-9.226l-6.81 9.226zm8.75-11.854c3.396 2.872 5.626 7.098 5.872 11.854h6.096l.252-.54-7.452-17.773-4.767 6.46z" fill="#333f48"/></svg>