<svg xmlns="http://www.w3.org/2000/svg" width="72" height="46" fill="none" fill-rule="evenodd" xmlns:v="https://vecta.io/nano"><path d="M30.8 12.48c-.458 0-.83.397-.83.886s.37.886.83.886h2.483l1.208 4.345c-3.19.458-5.99 2.606-7.4 5.77l-3.44 7.722-4.202-10.486v-4.958h.663c.458 0 .83-.397.83-.886s-.37-.886-.83-.886H15.14c-.458 0-.83.397-.83.886s.37.886.83.886h2.652v4.823l-3.51 4.906c-1.4-.852-3.024-1.34-4.756-1.34C4.264 25.034 0 29.53 0 35.077S4.264 45.12 9.524 45.12c4.862 0 8.872-3.84 9.452-8.802h3.583a1.79 1.79 0 0 0 .782.794c.868.442 1.906.048 2.32-.88l4.573-10.265c.983-2.206 3.027-3.64 5.297-3.734l1.12 3.644c-3.355 1.554-5.698 5.088-5.698 9.2 0 5.547 4.264 10.043 9.524 10.043S50 40.624 50 35.077s-4.264-10.043-9.524-10.043c-.788 0-1.554.1-2.287.29l-1.625-5.23-1.806-6.92c-.084-.406-.42-.696-.81-.696H30.8zm6.434 15.295l2.472 8.036c.18.45.668.658 1.088.465s.615-.714.434-1.164l-2.45-7.89a7.36 7.36 0 0 1 1.698-.198c4.265 0 7.67 3.637 7.67 8.054s-3.404 8.054-7.67 8.054-7.67-3.637-7.67-8.054c0-3.214 1.802-6.015 4.427-7.302zm-27.71-.752a7.34 7.34 0 0 1 3.613.947l-4.94 6.9c-.203.265-.245.63-.107.94s.43.507.75.507h8.262c-.567 3.837-3.72 6.813-7.578 6.813-4.265 0-7.67-3.637-7.67-8.054s3.404-8.054 7.67-8.054zm1.065 7.522h6.588c-.138-2.218-1.135-4.204-2.654-5.577l-3.934 5.577zm5.054-7.165c1.962 1.736 3.25 4.29 3.392 7.165h3.52l.145-.326-4.305-10.743-2.754 3.904z" fill="#df2a2a"/><path d="M60.458 0C55.25 0 50.802 3.344 49 8.064c1.802 4.72 6.25 8.064 11.458 8.064s9.656-3.344 11.458-8.064C70.115 3.344 65.667 0 60.458 0zm0 13.44c-2.875 0-5.208-2.408-5.208-5.376s2.333-5.376 5.208-5.376 5.208 2.41 5.208 5.376-2.333 5.376-5.208 5.376zm-3.125-5.376c0-1.785 1.396-3.226 3.125-3.226s3.125 1.44 3.125 3.226-1.396 3.226-3.125 3.226-3.125-1.44-3.125-3.226z" fill="#333f48"/></svg>