<svg xmlns="http://www.w3.org/2000/svg" width="85" height="71" fill="none" xmlns:v="https://vecta.io/nano"><path fill-rule="evenodd" d="M85 21.25L42.5 0 0 21.25h85zm-.03 0H0v49.583h85l-.03-49.583z" fill="#333f48"/><path d="M76.89 41.976c-2 .655-3.82.607-5.44-.69s-2.287-2.987-1.977-5.042a.8.8 0 0 0-.013-.428c-.043-.14-.122-.264-.23-.36l-7.3-7.336a.86.86 0 0 0-.846-.26c-.738.13-1.496.096-2.22-.096s-1.398-.54-1.976-1.016-1.044-1.075-1.37-1.75-.5-1.413-.51-2.162c0-.76.156-1.524.24-2.285l.165-.04.408.362 2.423 2.433c.24.25.452.268.79.21.222-.036.683-.175 1.025-.24.196-.077.374-.193.523-.34s.266-.326.344-.52c.423-1.09.165-1.863-.746-2.575-.753-.596-1.39-1.328-2.15-2.076 1.55-.556 2.96-.586 4.338 0 2.313.99 3.518 3.256 3.144 5.744-.01.132.006.264.05.4s.11.24.197.34l7.293 7.35c.1.117.23.202.377.246s.303.045.45.003c1.092-.194 2.216-.032 3.2.46s1.802 1.29 2.308 2.277c.77 1.45.846 3.342.17 4.632l-.423-.38-2.385-2.397c-.096-.112-.222-.194-.364-.236s-.292-.04-.433.003c-1.767.397-1.78.39-2.114 2.205-.013.122-.001.246.035.363s.096.226.176.32l2.38 2.4.46.493zm-11.378-13.36c.877-.484.892-.776.078-1.283-.805.592-.808.613-.078 1.283zm1.706 1.723l.795-.723-.704-.687-.734.73.643.68zm1.69 1.74l.846-.746-.72-.664-.772.717.645.693z" fill="#fff"/><path fill-rule="evenodd" d="M42.62 27.497c-.578 0-1.047.49-1.047 1.097s.47 1.097 1.047 1.097h3.138l1.527 5.378c-4.032.567-7.57 3.226-9.352 7.14l-4.348 9.558-5.31-12.98v-6.136h.838c.578 0 1.047-.49 1.047-1.097s-.47-1.097-1.047-1.097h-6.283c-.578 0-1.047.49-1.047 1.097s.47 1.097 1.047 1.097h3.35v5.97l-4.437 6.072a11.69 11.69 0 0 0-6.011-1.659c-6.647 0-12.036 5.565-12.036 12.43s5.39 12.43 12.036 12.43c6.144 0 11.213-4.754 11.945-10.895h4.528c.214.415.55.764.988.983 1.096.547 2.41.06 2.93-1.09l5.78-12.705c1.242-2.73 3.825-4.504 6.694-4.622l1.416 4.51c-4.24 1.923-7.2 6.298-7.2 11.387 0 6.865 5.39 12.43 12.036 12.43s12.036-5.565 12.036-12.43-5.39-12.43-12.036-12.43a11.7 11.7 0 0 0-2.89.361l-2.053-6.474-2.282-8.563c-.106-.503-.53-.86-1.023-.86h-3.98zm8.13 18.93l3.124 9.946c.228.557.844.814 1.375.575s.777-.884.55-1.44l-3.097-9.767c.69-.16 1.407-.244 2.146-.244 5.4 0 9.692 4.502 9.692 9.968s-4.302 9.968-9.692 9.968-9.69-4.502-9.69-9.968c0-3.977 2.277-7.444 5.595-9.038zm-35.02-.93a9.43 9.43 0 0 1 4.566 1.172l-6.24 8.54a1.14 1.14 0 0 0-.136 1.164c.173.383.542.627.946.627h10.44c-.716 4.75-4.7 8.433-9.577 8.433-5.4 0-9.692-4.502-9.692-9.968s4.302-9.968 9.692-9.968zm1.345 9.3h8.325c-.175-2.745-1.435-5.203-3.354-6.903l-4.97 6.903zm6.387-8.868c2.48 2.15 4.107 5.3 4.287 8.868h4.45l.184-.404-5.44-13.297-3.48 4.832z" fill="#f5f5f5"/></svg>