<svg width="80" height="64" viewBox="0 0 80 64" fill="none" xmlns="http://www.w3.org/2000/svg">
<path fill-rule="evenodd" clip-rule="evenodd" d="M33.4596 4.98326C32.7934 5.24702 32.4718 6.01285 32.7414 6.69381C33.011 7.37477 33.7696 7.71298 34.4359 7.44922L38.0501 6.01838L42.2023 11.3675C37.8097 13.8434 34.9159 18.4466 34.6066 23.6595L33.8514 36.3871L21.958 24.2192L19.2271 17.321L20.1921 16.9389C20.8584 16.6752 21.1799 15.9093 20.9103 15.2284C20.6407 14.5474 19.8821 14.2092 19.2159 14.473L11.9779 17.3384C11.3116 17.6022 10.9901 18.368 11.2597 19.0489C11.5293 19.7299 12.2879 20.0681 12.9541 19.8044L16.8144 18.2761L19.4712 24.9873L17.0617 33.8365C14.5548 33.4572 11.9216 33.7147 9.39974 34.7131C1.74236 37.7445 -1.9884 46.4583 1.06686 54.1758C4.12212 61.8933 12.8064 65.6921 20.4638 62.6606C27.5413 59.8588 31.2644 52.2027 29.3753 44.9655L34.591 42.9007C35.0219 43.2692 35.5656 43.5088 36.1664 43.5546C37.673 43.6697 38.9678 42.5233 39.0586 40.9941L40.0624 24.0762C40.2782 20.4401 42.4645 17.2689 45.7167 15.8275L49.3557 20.252C45.3272 24.3473 43.863 30.6158 46.1278 36.3368C49.1831 44.0543 57.8674 47.8531 65.5248 44.8216C73.1822 41.7901 76.9129 33.0764 73.8577 25.3589C70.8024 17.6414 62.1181 13.8426 54.4607 16.874C53.3131 17.3284 52.2536 17.9104 51.292 18.5975L46.0454 12.2556L39.6051 3.67013C39.2596 3.15295 38.6101 2.94428 38.0437 3.16849L33.4596 4.98326ZM51.2512 22.5565L59.2757 32.3129C59.7863 32.8345 60.6103 32.8431 61.1161 32.3321C61.6219 31.821 61.618 30.9839 61.1074 30.4622L53.1932 20.8957C53.9162 20.4015 54.7058 19.979 55.5566 19.6422C61.7656 17.1841 68.7244 20.2832 71.157 26.428C73.5897 32.5729 70.6379 39.5954 64.4289 42.0535C58.2199 44.5115 51.2612 41.4125 48.8285 35.2676C47.0584 30.7964 48.1391 25.8605 51.2512 22.5565ZM10.4956 37.4812C12.4031 36.7261 14.3814 36.4954 16.2775 36.7164L12.8883 49.1632C12.7391 49.6487 12.8799 50.1824 13.25 50.5339C13.62 50.8854 14.1531 50.9918 14.6192 50.8073L26.6472 46.0455C27.9357 51.7107 24.9844 57.669 19.3679 59.8925C13.159 62.3506 6.20018 59.2515 3.76751 53.1067C1.33483 46.9618 4.28664 39.9393 10.4956 37.4812ZM16.1886 47.3335L25.7791 43.5368C24.3559 40.5302 21.8107 38.3424 18.8435 37.3068L16.1886 47.3335ZM19.5996 34.4515C23.4116 35.7363 26.6943 38.5481 28.4847 42.4657L33.6112 40.4362L33.6431 39.8985L21.4581 27.4324L19.5996 34.4515Z" fill="#333F48"/>
<path d="M78 2V61.9018" stroke="#333F48" stroke-width="4" stroke-linecap="round"/>
<path d="M76.3203 28.8716L68.4827 28.8716" stroke="#333F48" stroke-width="4" stroke-linecap="round"/>
</svg>
