<svg xmlns="http://www.w3.org/2000/svg" width="60" height="34" fill="none" fill-rule="evenodd" xmlns:v="https://vecta.io/nano"><path d="M30.8 2c-.458 0-.83.39-.83.87s.37.87.83.87h2.483l1.208 4.26c-3.19.45-5.99 2.555-7.4 5.656l-3.44 7.57-4.202-10.28v-4.86h.663c.458 0 .83-.39.83-.87s-.37-.87-.83-.87H15.14c-.458 0-.83.39-.83.87s.37.87.83.87h2.652v4.73l-3.51 4.81c-1.4-.836-3.024-1.314-4.756-1.314-5.26 0-9.524 4.408-9.524 9.846S4.264 34 9.524 34c4.862 0 8.872-3.766 9.452-8.63h3.583a1.77 1.77 0 0 0 .782.778c.868.433 1.906.047 2.32-.862l4.573-10.063c.983-2.163 3.027-3.567 5.297-3.66l1.12 3.573c-3.355 1.523-5.698 4.988-5.698 9.02 0 5.438 4.264 9.846 9.524 9.846S50 29.592 50 24.154s-4.264-9.846-9.524-9.846a9.25 9.25 0 0 0-2.287.286l-1.625-5.128-1.806-6.783c-.084-.398-.42-.682-.81-.682H30.8zm6.434 14.995l2.472 7.878c.18.44.668.645 1.088.456s.615-.7.434-1.14l-2.45-7.736a7.5 7.5 0 0 1 1.698-.194c4.265 0 7.67 3.566 7.67 7.896s-3.404 7.896-7.67 7.896-7.67-3.566-7.67-7.896c0-3.15 1.802-5.897 4.427-7.16zm-27.71-.737c1.3 0 2.54.337 3.613.928l-4.94 6.765c-.203.26-.245.62-.107.922s.43.497.75.497h8.262c-.567 3.762-3.72 6.68-7.578 6.68-4.265 0-7.67-3.566-7.67-7.896s3.404-7.896 7.67-7.896zm1.065 7.374h6.588c-.138-2.175-1.135-4.12-2.654-5.468l-3.934 5.468zm5.054-7.024c1.962 1.702 3.25 4.206 3.392 7.025h3.52l.145-.32-4.305-10.532-2.754 3.828z" fill="#363636"/><path d="M57.667 4.96h-1.75V3.915c0-1.522-1.114-2.882-2.63-3.027a2.92 2.92 0 0 0-3.203 2.905V4.96h-1.75v8.167h9.333V4.96zM53 10.21a1.17 1.17 0 0 1-1.167-1.167A1.17 1.17 0 0 1 53 7.876a1.17 1.17 0 0 1 1.167 1.167A1.17 1.17 0 0 1 53 10.209zm-1.75-6.417V4.96h3.5V3.792a1.75 1.75 0 1 0-3.5 0z" fill="#333f48"/></svg>