<svg width="50" height="31" viewBox="0 0 50 31" fill="none" xmlns="http://www.w3.org/2000/svg">
<path fill-rule="evenodd" clip-rule="evenodd" d="M30.8005 0C30.3429 0 29.9719 0.37681 29.9719 0.841628C29.9719 1.30645 30.3429 1.68326 30.8005 1.68326H33.2831L34.4913 5.80988C31.3007 6.24473 28.5002 8.28511 27.091 11.289L23.6504 18.6232L19.4483 8.66435V3.95565H20.1112C20.5688 3.95565 20.9398 3.57884 20.9398 3.11403C20.9398 2.64921 20.5688 2.2724 20.1112 2.2724H15.1394C14.6818 2.2724 14.3108 2.64921 14.3108 3.11403C14.3108 3.57884 14.6818 3.95565 15.1394 3.95565H17.791V8.53667L14.2798 13.1957C12.8803 12.3863 11.2561 11.9231 9.5238 11.9231C4.26395 11.9231 0 16.1936 0 21.4615C0 26.7295 4.26395 31 9.5238 31C14.3853 31 18.3961 27.3518 18.9757 22.6398H22.5583C22.7276 22.9579 22.9941 23.2263 23.3401 23.3937C24.2077 23.8136 25.2461 23.4396 25.6595 22.5584L30.2329 12.8095C31.2158 10.7142 33.2596 9.35358 35.5297 9.26276L36.6506 12.7238C33.2955 14.1994 30.9524 17.5564 30.9524 21.4615C30.9524 26.7295 35.2163 31 40.4762 31C45.736 31 50 26.7295 50 21.4615C50 16.1936 45.736 11.9231 40.4762 11.9231C39.6879 11.9231 38.9219 12.019 38.1893 12.1999L36.5647 7.23173L34.7586 0.660795C34.675 0.274885 34.3383 0 33.9493 0H30.8005ZM37.2344 14.5265L39.706 22.1586C39.8865 22.5857 40.3738 22.7832 40.7943 22.5998C41.2148 22.4164 41.4093 21.9215 41.2288 21.4944L38.778 14.0002C39.3236 13.8775 39.8918 13.8126 40.4762 13.8126C44.7411 13.8126 48.1449 17.2671 48.1449 21.4615C48.1449 25.656 44.7411 29.1105 40.4762 29.1105C36.2112 29.1105 32.8075 25.656 32.8075 21.4615C32.8075 18.4095 34.6096 15.7492 37.2344 14.5265ZM9.5238 13.8126C10.8341 13.8126 12.0631 14.1387 13.1371 14.712L8.19838 21.2652C7.99563 21.5169 7.95378 21.8647 8.09089 22.1586C8.228 22.4525 8.51953 22.6398 8.8397 22.6398H17.1018C16.535 26.2839 13.3817 29.1105 9.5238 29.1105C5.25886 29.1105 1.85507 25.656 1.85507 21.4615C1.85507 17.2671 5.25886 13.8126 9.5238 13.8126ZM10.5883 20.9565H17.176C17.0377 18.8498 16.0406 16.9642 14.5221 15.6599L10.5883 20.9565ZM15.6423 14.1516C17.604 15.8003 18.8923 18.2265 19.0345 20.9565H22.5559L22.7012 20.6467L18.3961 10.4438L15.6423 14.1516Z" fill="#108CFF"/>
<path d="M50 7.55357V9H45.2405V7.55357H50ZM45.8424 0V9H44V0H45.8424ZM49.3797 3.66552V5.07486H45.2405V3.66552H49.3797ZM49.9939 0V1.45261H45.2405V0H49.9939Z" fill="#108CFF"/>
</svg>
