<svg width="25" height="24" viewBox="0 0 25 24" fill="none" xmlns="http://www.w3.org/2000/svg">
<path fill-rule="evenodd" clip-rule="evenodd" d="M12.4053 0C5.91011 0 0.638672 5.27144 0.638672 11.7666C0.638672 18.2618 5.91011 23.5332 12.4053 23.5332C18.9004 23.5332 24.1719 18.2618 24.1719 11.7666C24.1719 5.27144 18.9004 0 12.4053 0ZM7.40482 12.9433C7.40482 12.1314 8.06375 11.4724 8.87565 11.4724C9.68754 11.4724 10.3465 12.1314 10.3465 12.9433C10.3465 13.7552 9.68754 14.4141 8.87565 14.4141C8.06375 14.4141 7.40482 13.7552 7.40482 12.9433ZM14.4646 12.9433C14.4646 12.1314 15.1235 11.4724 15.9354 11.4724C16.7473 11.4724 17.4063 12.1314 17.4063 12.9433C17.4063 13.7552 16.7473 14.4141 15.9354 14.4141C15.1235 14.4141 14.4646 13.7552 14.4646 12.9433ZM2.9919 11.7666C2.9919 16.9556 7.21611 21.1798 12.4052 21.1798C17.5942 21.1798 21.8185 16.9556 21.8185 11.7666C21.8185 10.837 21.6773 9.94275 21.4302 9.10732C20.583 9.30735 19.7005 9.41325 18.7827 9.41325C14.8173 9.41325 11.3109 7.44823 9.18113 4.43598C8.02801 7.2482 5.82765 9.51915 3.05074 10.7546C3.01544 11.0841 2.9919 11.4253 2.9919 11.7666Z" fill="#333F48"/>
</svg>
