<svg xmlns="http://www.w3.org/2000/svg" width="117" height="60" fill="none" fill-rule="evenodd" xmlns:v="https://vecta.io/nano"><path d="M53.316 6c-.792 0-1.434.656-1.434 1.466s.642 1.466 1.434 1.466h4.297l2.09 7.188c-5.523.758-10.37 4.312-12.8 9.544L40.94 38.44l-7.274-17.348V12.89h1.148c.792 0 1.434-.656 1.434-1.466s-.642-1.466-1.434-1.466h-8.606c-.792 0-1.434.656-1.434 1.466s.642 1.466 1.434 1.466h4.6v7.98l-6.078 8.116a16.31 16.31 0 0 0-8.233-2.217C7.38 26.77 0 34.208 0 43.385S7.38 60 16.486 60c8.415 0 15.358-6.355 16.36-14.563h6.202c.293.554.754 1.022 1.353 1.313 1.502.73 3.3.08 4.015-1.455l7.917-16.982c1.7-3.65 5.24-6.02 9.17-6.178l1.94 6.03c-5.808 2.57-9.864 8.418-9.864 15.22C53.58 52.56 60.96 60 70.065 60S86.55 52.56 86.55 43.385 79.17 26.77 70.065 26.77a16.4 16.4 0 0 0-3.959.482l-2.812-8.654L60.168 7.15C60.023 6.48 59.44 6 58.767 6h-5.45zm11.137 25.304L68.732 44.6c.313.744 1.156 1.088 1.884.77s1.065-1.182.752-1.926l-4.242-13.054a13.3 13.3 0 0 1 2.94-.327c7.383 0 13.275 6.017 13.275 13.324S77.448 56.71 70.065 56.71 56.79 50.69 56.79 43.385c0-5.316 3.12-9.95 7.663-12.08zM16.486 30.06a13.17 13.17 0 0 1 6.255 1.567l-8.55 11.415a1.49 1.49 0 0 0-.186 1.556c.237.512.742.838 1.296.838h14.302c-.98 6.348-6.44 11.27-13.118 11.27-7.383 0-13.275-6.017-13.275-13.324S9.103 30.06 16.486 30.06zm1.843 12.444h11.403c-.24-3.67-1.965-6.954-4.594-9.226l-6.81 9.226zm8.75-11.854c3.396 2.872 5.626 7.098 5.872 11.854h6.096l.252-.54-7.452-17.773-4.767 6.46z" fill="#f7bc00"/><path d="M101.417 0C92.907 0 86 6.907 86 15.417s6.907 15.417 15.417 15.417 15.416-6.907 15.416-15.417S109.927 0 101.417 0zm-6.552 16.958a1.93 1.93 0 0 1 1.927-1.927 1.93 1.93 0 0 1 1.927 1.927 1.93 1.93 0 0 1-1.927 1.927 1.93 1.93 0 0 1-1.927-1.927zm9.25 0a1.93 1.93 0 0 1 1.927-1.927 1.93 1.93 0 0 1 1.927 1.927 1.93 1.93 0 0 1-1.927 1.927 1.93 1.93 0 0 1-1.927-1.927zm-15.032-1.542c0 6.8 5.535 12.333 12.334 12.333s12.333-5.535 12.333-12.333c0-1.218-.185-2.4-.51-3.484-1.1.262-2.266.4-3.47.4-5.195 0-9.79-2.575-12.58-6.52a15.51 15.51 0 0 1-8.032 8.279c-.046.432-.077.88-.077 1.326z" fill="#333f48"/></svg>