<svg xmlns="http://www.w3.org/2000/svg" width="87" height="58" fill="none" xmlns:v="https://vecta.io/nano"><path d="M0 0h84.394l.03 56.25H0V0z" fill="#333f48"/><path fill-rule="evenodd" d="M51.67 9.108c-.52.18-.8.77-.6 1.32s.764.85 1.284.673l2.824-.97 3.05 4.413c-3.453 1.76-5.8 5.267-6.193 9.372L51.1 33.94l-8.823-10.148-1.912-5.573.754-.26c.52-.178.8-.77.6-1.32s-.764-.85-1.284-.673l-5.655 1.94c-.52.18-.8.77-.6 1.32s.764.85 1.284.673l3.016-1.035 1.86 5.422-2.102 6.884c-1.92-.412-3.956-.327-5.926.35-5.983 2.052-9.1 8.77-6.96 15.006s8.722 9.626 14.705 7.574c5.53-1.897 8.61-7.78 7.357-13.583l4.075-1.398c.322.3.734.524 1.195.587 1.157.158 2.187-.69 2.3-1.894l1.244-13.323c.267-2.863 2.04-5.27 4.585-6.264l2.68 3.66c-3.217 3.056-4.52 7.943-2.934 12.565 2.14 6.235 8.722 9.626 14.705 7.574s9.1-8.77 6.96-15.006-8.722-9.626-14.705-7.574a11.04 11.04 0 0 0-2.489 1.22l-3.865-5.247-4.722-7.073c-.252-.424-.746-.618-1.19-.466L51.67 9.108zm13.216 14.684l5.9 8.07c.38.435 1.013.48 1.417.098s.424-1.043.045-1.478l-5.83-7.914a8.95 8.95 0 0 1 1.855-.884c4.85-1.664 10.125 1.097 11.828 6.062s-.767 10.38-5.618 12.045-10.125-1.097-11.828-6.06c-1.24-3.613-.27-7.464 2.22-9.936zm-31.8 9.966a8.91 8.91 0 0 1 4.475-.345l-2.957 9.683c-.128.377-.035.805.24 1.1s.683.402 1.047.277l9.398-3.223c.835 4.534-1.604 9.1-5.993 10.615-4.85 1.664-10.125-1.097-11.828-6.06s.767-10.382 5.618-12.045zm4.11 8.04l7.493-2.57c-1.013-2.44-2.912-4.282-5.17-5.234l-2.324 7.804zm2.986-10.026c2.9 1.186 5.35 3.555 6.62 6.73L50.8 37.13l.04-.423-9.04-10.397-1.627 5.463z" fill="#f5f5f5"/></svg>