<svg xmlns="http://www.w3.org/2000/svg" width="133" height="54" fill="none" xmlns:v="https://vecta.io/nano"><path fill-rule="evenodd" d="M53.316 0c-.792 0-1.434.656-1.434 1.466s.642 1.466 1.434 1.466h4.297l2.09 7.188c-5.523.758-10.37 4.312-12.8 9.544L40.94 32.44l-7.274-17.348V6.9h1.148c.792 0 1.434-.656 1.434-1.466s-.642-1.466-1.434-1.466h-8.606c-.792 0-1.434.656-1.434 1.466S25.415 6.9 26.207 6.9h4.6v7.98l-6.078 8.116a16.31 16.31 0 0 0-8.233-2.217C7.38 20.77 0 28.208 0 37.385S7.38 54 16.486 54c8.415 0 15.358-6.355 16.36-14.563h6.202c.293.554.754 1.022 1.353 1.313 1.502.73 3.3.08 4.015-1.455l7.917-16.982c1.7-3.65 5.24-6.02 9.17-6.178l1.94 6.03c-5.808 2.57-9.864 8.418-9.864 15.22C53.58 46.56 60.96 54 70.065 54S86.55 46.56 86.55 37.385 79.17 20.77 70.065 20.77a16.4 16.4 0 0 0-3.959.482l-2.812-8.654L60.168 1.15C60.023.48 59.44 0 58.767 0h-5.45zm11.137 25.304L68.732 38.6c.313.744 1.156 1.088 1.884.77s1.065-1.182.752-1.926l-4.242-13.054a13.3 13.3 0 0 1 2.94-.327c7.383 0 13.275 6.017 13.275 13.324S77.448 50.71 70.065 50.71 56.79 44.69 56.79 37.385c0-5.316 3.12-9.95 7.663-12.08zM16.486 24.06a13.17 13.17 0 0 1 6.255 1.567l-8.55 11.415a1.49 1.49 0 0 0-.186 1.556c.237.512.742.838 1.296.838h14.302c-.98 6.348-6.44 11.27-13.118 11.27-7.383 0-13.275-6.017-13.275-13.324S9.103 24.06 16.486 24.06zm1.843 12.444h11.403c-.24-3.67-1.965-6.954-4.594-9.226l-6.81 9.226zm8.75-11.854c3.396 2.872 5.626 7.098 5.872 11.854h6.096l.252-.54-7.452-17.773-4.767 6.46z" fill="#4186d3"/><path d="M131.5 15.542c0 6.62-5.493 12.042-12.338 12.042s-12.337-5.422-12.337-12.042S112.318 3.5 119.162 3.5 131.5 8.922 131.5 15.542z" stroke="#4186d3" stroke-width="3"/><path d="M95.78 36.383a3.5 3.5 0 1 0 4.44 5.412l-4.44-5.412zm4.44 5.412c.427-.35 1.294-1.213 2.207-2.133l3.62-3.7 7.817-8.124-5.06-4.836-7.78 8.086-3.566 3.646-1.204 1.2-.472.45 4.44 5.412zm17.266-22.7c.013-.775.1-1.387.264-1.836s.495-.947.996-1.494l1.28-1.318c.547-.618.82-1.282.82-1.992 0-.684-.18-1.217-.537-1.602-.358-.4-.88-.586-1.563-.586-.664 0-1.198.176-1.6.527s-.606.823-.606 1.416h-1.807c.013-1.055.388-1.904 1.123-2.55.743-.65 1.706-.977 2.9-.977 1.23 0 2.188.332 2.87.996.7.658 1.035 1.563 1.035 2.715 0 1.14-.527 2.262-1.582 3.37l-1.064 1.055c-.475.527-.713 1.286-.713 2.275h-1.807zm-.078 3.096c0-.293.088-.537.264-.733.182-.202.45-.303.8-.303s.618.1.8.303a1.03 1.03 0 0 1 .274.733c0 .293-.1.537-.274.732s-.45.283-.8.283-.62-.094-.8-.283c-.176-.195-.264-.44-.264-.732z" fill="#4186d3"/></svg>