<svg xmlns="http://www.w3.org/2000/svg" width="87" height="54" fill="none" xmlns:v="https://vecta.io/nano"><path fill-rule="evenodd" d="M53.316 0c-.792 0-1.434.656-1.434 1.466s.642 1.466 1.434 1.466h4.297l2.09 7.188c-5.523.758-10.37 4.312-12.8 9.544L40.94 32.44l-7.274-17.348V6.9h1.148c.792 0 1.434-.656 1.434-1.466s-.642-1.466-1.434-1.466h-8.606c-.792 0-1.434.656-1.434 1.466S25.415 6.9 26.207 6.9h4.6v7.98l-6.078 8.116a16.31 16.31 0 0 0-8.233-2.217C7.38 20.77 0 28.208 0 37.385S7.38 54 16.486 54c8.415 0 15.358-6.355 16.36-14.563h6.202c.293.554.754 1.022 1.353 1.313 1.502.73 3.3.08 4.015-1.455l7.917-16.982c1.7-3.65 5.24-6.02 9.17-6.178l1.94 6.03c-5.808 2.57-9.864 8.418-9.864 15.22C53.58 46.56 60.96 54 70.065 54S86.55 46.56 86.55 37.385 79.17 20.77 70.065 20.77a16.4 16.4 0 0 0-3.959.482l-2.812-8.654L60.168 1.15C60.023.48 59.44 0 58.767 0h-5.45zm11.137 25.304L68.732 38.6c.313.744 1.156 1.088 1.884.77s1.065-1.182.752-1.926l-4.242-13.054a13.3 13.3 0 0 1 2.94-.327c7.383 0 13.275 6.017 13.275 13.324S77.448 50.71 70.065 50.71 56.79 44.69 56.79 37.385c0-5.316 3.12-9.95 7.663-12.08zM16.486 24.06a13.17 13.17 0 0 1 6.255 1.567l-8.55 11.415a1.49 1.49 0 0 0-.186 1.556c.237.512.742.838 1.296.838h14.302c-.98 6.348-6.44 11.27-13.118 11.27-7.383 0-13.275-6.017-13.275-13.324S9.103 24.06 16.486 24.06zm1.843 12.444h11.403c-.24-3.67-1.965-6.954-4.594-9.226l-6.81 9.226zm8.75-11.854c3.396 2.872 5.626 7.098 5.872 11.854h6.096l.252-.54-7.452-17.773-4.767 6.46z" fill="#f7bc00"/></svg>