<svg width="22" height="22" viewBox="0 0 40 40" fill="none" xmlns="http://www.w3.org/2000/svg">
<g filter="url(#filter0_d_6517_12072)">
<circle cx="17.5" cy="13.5" r="11.5" fill="#108CFF"/>
<circle cx="17.5" cy="13.5" r="12.5" stroke="black" stroke-width="2"/>
</g>
<path d="M10.231 19.2447C9.86471 18.12 9.89214 17.1078 10.6172 16.2022C11.3423 15.2966 12.2884 14.9231 13.4377 15.0972C13.5167 15.1165 13.5994 15.1141 13.677 15.0902C13.7547 15.0663 13.8245 15.0217 13.8788 14.9613C15.2421 13.5962 16.6102 12.2335 17.983 10.8731C18.0479 10.8149 18.0957 10.7401 18.1214 10.6568C18.147 10.5735 18.1495 10.4848 18.1285 10.4001C18.0566 9.9872 18.0751 9.56358 18.1826 9.15845C18.2901 8.75332 18.4842 8.37631 18.7514 8.05338C19.0186 7.73044 19.3526 7.46925 19.7305 7.28779C20.1083 7.10633 20.521 7.00892 20.9401 7.00225C21.3658 7.00235 21.7926 7.08995 22.2183 7.13734L22.2408 7.22958C22.1734 7.30524 22.1107 7.38564 22.0385 7.45776C21.5879 7.91174 21.1396 8.36927 20.6772 8.8126C20.5376 8.94738 20.5269 9.06562 20.5588 9.25483C20.5789 9.379 20.6569 9.6368 20.6935 9.82837C20.7364 9.93791 20.8014 10.0375 20.8844 10.1209C20.9673 10.2043 21.0666 10.2698 21.1759 10.3133C21.7848 10.5499 22.2176 10.4058 22.6162 9.8962C22.9498 9.4753 23.359 9.11946 23.7777 8.69385C24.0885 9.56069 24.1049 10.3494 23.7772 11.1203C23.2223 12.4139 21.9557 13.0876 20.5639 12.878C20.4902 12.8723 20.4161 12.8815 20.346 12.9051C20.2759 12.9286 20.2113 12.966 20.1559 13.0151C18.7792 14.3687 17.4155 15.7342 16.0435 17.0938C15.9783 17.1493 15.9304 17.2224 15.9057 17.3044C15.8809 17.3864 15.8803 17.4738 15.9039 17.5561C16.0121 18.1667 15.9217 18.7959 15.6459 19.3514C15.3702 19.9068 14.9236 20.3592 14.3718 20.6421C13.5606 21.0724 12.5022 21.1147 11.781 20.7362C11.8555 20.6534 11.9217 20.573 11.9939 20.4997C12.4398 20.0528 12.8809 19.6036 13.3351 19.1661C13.398 19.1127 13.4439 19.042 13.467 18.9628C13.4901 18.8835 13.4895 18.7993 13.4653 18.7204C13.2432 17.7317 13.2467 17.7246 12.2322 17.5376C12.1638 17.5303 12.0947 17.537 12.0291 17.5574C11.9634 17.5777 11.9025 17.6111 11.8502 17.6558C11.3925 18.0884 10.9537 18.5413 10.5066 18.987C10.4262 19.0614 10.3493 19.1312 10.231 19.2447ZM17.7058 12.8821C17.9765 13.3729 18.1397 13.3812 18.4236 12.926C18.0926 12.4754 18.0808 12.4742 17.7058 12.8821ZM16.7419 13.8362L17.1462 14.2809L17.5306 13.8872C17.3852 13.7417 17.2622 13.6234 17.1227 13.4768L16.7419 13.8362ZM15.7685 14.782L16.1858 15.2551L16.5572 14.8531L16.1564 14.4214L15.7685 14.782Z" fill="white"/>
<defs>
<filter id="filter0_d_6517_12072" x="0" y="0" width="40" height="40" filterUnits="userSpaceOnUse" color-interpolation-filters="sRGB">
<feFlood flood-opacity="0" result="BackgroundImageFix"/>
<feColorMatrix in="SourceAlpha" type="matrix" values="0 0 0 0 0 0 0 0 0 0 0 0 0 0 0 0 0 0 127 0" result="hardAlpha"/>
<feOffset dy="4"/>
<feGaussianBlur stdDeviation="2"/>
<feComposite in2="hardAlpha" operator="out"/>
<feColorMatrix type="matrix" values="0 0 0 0 0 0 0 0 0 0 0 0 0 0 0 0 0 0 0.25 0"/>
<feBlend mode="normal" in2="BackgroundImageFix" result="effect1_dropShadow_6517_12072"/>
<feBlend mode="normal" in="SourceGraphic" in2="effect1_dropShadow_6517_12072" result="shape"/>
</filter>
</defs>
</svg>
