<svg width="107" height="61" viewBox="0 0 107 61" fill="none" xmlns="http://www.w3.org/2000/svg">
<path fill-rule="evenodd" clip-rule="evenodd" d="M53.3164 7C52.5242 7 51.882 7.65638 51.882 8.46606C51.882 9.27575 52.5242 9.93212 53.3164 9.93212H57.6139L59.7052 17.1204C54.1823 17.8779 49.3345 21.4321 46.8952 26.6647L40.9395 39.4405L33.6654 22.0927V13.8905H34.8129C35.6051 13.8905 36.2473 13.2341 36.2473 12.4244C36.2473 11.6147 35.6051 10.9584 34.8129 10.9584H26.2067C25.4145 10.9584 24.7723 11.6147 24.7723 12.4244C24.7723 13.2341 25.4145 13.8905 26.2067 13.8905H30.7967V21.8703L24.7186 29.9861C22.2961 28.5761 19.4845 27.7693 16.4859 27.7693C7.381 27.7693 0 35.2082 0 44.3846C0 53.561 7.381 61 16.4859 61C24.9013 61 31.844 54.6451 32.8473 46.4371H39.049C39.3419 46.9912 39.8034 47.4587 40.4023 47.7504C41.9041 48.4818 43.7017 47.8303 44.4172 46.2953L52.3338 29.3133C54.0352 25.6634 57.5732 23.2933 61.5028 23.1351L63.443 29.1641C57.6353 31.7344 53.5793 37.5821 53.5793 44.3846C53.5793 53.561 60.9603 61 70.0652 61C79.1702 61 86.5511 53.561 86.5511 44.3846C86.5511 35.2082 79.1702 27.7693 70.0652 27.7693C68.7006 27.7693 67.3747 27.9364 66.1066 28.2514L63.2943 19.5972L60.1679 8.15106C60.0232 7.47883 59.4404 7 58.767 7H53.3164ZM64.4535 32.3043L68.7319 45.5988C69.0445 46.3428 69.888 46.687 70.6159 46.3675C71.3438 46.048 71.6805 45.1859 71.3679 44.4419L67.1257 31.3875C68.07 31.1737 69.0536 31.0607 70.0652 31.0607C77.4479 31.0607 83.34 37.0781 83.34 44.3846C83.34 51.6911 77.4479 57.7086 70.0652 57.7086C62.6825 57.7086 56.7905 51.6911 56.7905 44.3846C56.7905 39.0681 59.91 34.4342 64.4535 32.3043ZM16.4859 31.0607C18.754 31.0607 20.8815 31.6286 22.7406 32.6274L14.1916 44.0427C13.8406 44.4811 13.7682 45.0869 14.0055 45.5988C14.2429 46.1107 14.7475 46.4371 15.3017 46.4371H29.6035C28.6225 52.7848 23.1641 57.7086 16.4859 57.7086C9.10321 57.7086 3.21117 51.6911 3.21117 44.3846C3.21117 37.0781 9.10321 31.0607 16.4859 31.0607ZM18.3286 43.505H29.7321C29.4927 39.8352 27.7666 36.5506 25.138 34.2786L18.3286 43.505ZM27.0771 31.6512C30.4729 34.5231 32.703 38.7494 32.9491 43.505H39.0447L39.2963 42.9653L31.844 25.1923L27.0771 31.6512Z" fill="#736B58"/>
<path fill-rule="evenodd" clip-rule="evenodd" d="M80 0C73.928 0 69 4.928 69 11C69 17.072 73.928 22 80 22C86.072 22 91 17.072 91 11C91 4.928 86.072 0 80 0ZM75.3255 12.1C75.3255 11.341 75.9415 10.725 76.7005 10.725C77.4595 10.725 78.0755 11.341 78.0755 12.1C78.0755 12.859 77.4595 13.475 76.7005 13.475C75.9415 13.475 75.3255 12.859 75.3255 12.1ZM81.9255 12.1C81.9255 11.341 82.5415 10.725 83.3005 10.725C84.0595 10.725 84.6755 11.341 84.6755 12.1C84.6755 12.859 84.0595 13.475 83.3005 13.475C82.5415 13.475 81.9255 12.859 81.9255 12.1ZM71.2005 10.9999C71.2005 15.8509 75.1495 19.7999 80.0005 19.7999C84.8515 19.7999 88.8005 15.8509 88.8005 10.9999C88.8005 10.1309 88.6685 9.29495 88.4375 8.51395C87.6455 8.70095 86.8205 8.79995 85.9625 8.79995C82.2555 8.79995 78.9775 6.96295 76.9865 4.14695C75.9085 6.77595 73.8515 8.89895 71.2555 10.0539C71.2225 10.3619 71.2005 10.6809 71.2005 10.9999Z" fill="#736B58"/>
<path d="M107 15.4286V18H99.1688V15.4286H107ZM100.205 2V18H97V2H100.205Z" fill="#736B58"/>
</svg>
