<svg width="147" height="61" viewBox="0 0 147 61" fill="none" xmlns="http://www.w3.org/2000/svg">
<path fill-rule="evenodd" clip-rule="evenodd" d="M112.423 7.60583L97.2117 0L82 7.60583H112.423ZM112.412 7.6059H82V25.3528H112.423L112.412 7.6059Z" fill="#00AA50"/>
<path d="M103.311 23.2625C102.036 23.6783 100.888 23.6474 99.8603 22.8253C98.833 22.0032 98.4092 20.9303 98.6064 19.6268C98.6283 19.5372 98.6256 19.4434 98.5984 19.3554C98.5712 19.2673 98.5207 19.1882 98.4521 19.1265C96.9036 17.5807 95.3578 16.0295 93.8146 14.4729C93.7486 14.3993 93.6638 14.3451 93.5693 14.316C93.4748 14.2869 93.3741 14.2842 93.2782 14.308C92.8099 14.3896 92.3294 14.3688 91.8699 14.2469C91.4104 14.1251 90.9828 13.9051 90.6165 13.6021C90.2502 13.2992 89.9539 12.9204 89.748 12.4919C89.5421 12.0635 89.4315 11.5955 89.4238 11.1202C89.4238 10.6374 89.5231 10.1532 89.5767 9.67042L89.6813 9.64494C89.7672 9.72138 89.8583 9.79246 89.9402 9.87427C90.4551 10.3852 90.9741 10.8935 91.4771 11.4179C91.6299 11.5761 91.7641 11.5882 91.9786 11.552C92.1194 11.5292 92.4118 11.4407 92.6291 11.3991C92.7533 11.3504 92.8662 11.2767 92.9608 11.1826C93.0553 11.0884 93.1296 10.9759 93.1789 10.8519C93.4471 10.1613 93.2835 9.67042 92.7055 9.21847C92.2281 8.84028 91.8244 8.37625 91.3416 7.9015C92.3246 7.54879 93.2192 7.53002 94.0936 7.9015C95.5607 8.53048 96.3252 9.9668 96.0878 11.5453C96.0813 11.6289 96.0918 11.713 96.1185 11.7924C96.1452 11.8719 96.1877 11.9452 96.2433 12.008C97.7789 13.569 99.3279 15.1153 100.87 16.671C100.933 16.7449 101.016 16.7992 101.109 16.8273C101.202 16.8553 101.301 16.856 101.395 16.8292C102.087 16.7064 102.801 16.8087 103.431 17.1213C104.061 17.4339 104.574 17.9402 104.895 18.566C105.383 19.486 105.431 20.6863 105.002 21.5043C104.908 21.4198 104.817 21.3447 104.734 21.2629C104.227 20.7573 103.717 20.2571 103.221 19.7421C103.16 19.6708 103.08 19.6188 102.99 19.5926C102.901 19.5664 102.805 19.5671 102.716 19.5946C101.594 19.8467 101.586 19.8427 101.374 20.9934C101.366 21.0709 101.374 21.1493 101.397 21.2238C101.42 21.2982 101.458 21.3672 101.509 21.4265C101.999 21.9456 102.513 22.4431 103.019 22.95C103.103 23.0412 103.182 23.1284 103.311 23.2625ZM96.0931 14.7867C96.6497 14.4796 96.6591 14.2945 96.1428 13.9727C95.6318 14.3482 95.6305 14.3616 96.0931 14.7867ZM97.1754 15.8797L97.6797 15.4211L97.2331 14.9852C97.0681 15.1502 96.934 15.2896 96.7677 15.4479L97.1754 15.8797ZM98.2483 16.9835L98.7847 16.5101L98.3288 16.0889L97.8393 16.5436L98.2483 16.9835Z" fill="white"/>
<path fill-rule="evenodd" clip-rule="evenodd" d="M53.3164 7C52.5242 7 51.882 7.65638 51.882 8.46606C51.882 9.27575 52.5242 9.93212 53.3164 9.93212H57.6139L59.7052 17.1204C54.1823 17.8779 49.3345 21.4321 46.8952 26.6647L40.9395 39.4405L33.6654 22.0927V13.8905H34.8129C35.6051 13.8905 36.2473 13.2341 36.2473 12.4244C36.2473 11.6147 35.6051 10.9584 34.8129 10.9584H26.2067C25.4145 10.9584 24.7723 11.6147 24.7723 12.4244C24.7723 13.2341 25.4145 13.8905 26.2067 13.8905H30.7967V21.8703L24.7186 29.9861C22.2961 28.5761 19.4845 27.7693 16.4859 27.7693C7.381 27.7693 0 35.2082 0 44.3846C0 53.561 7.381 61 16.4859 61C24.9013 61 31.844 54.6451 32.8473 46.4371H39.049C39.3419 46.9912 39.8034 47.4587 40.4023 47.7504C41.9041 48.4818 43.7017 47.8303 44.4172 46.2953L52.3338 29.3133C54.0352 25.6634 57.5732 23.2933 61.5028 23.1351L63.443 29.1641C57.6353 31.7344 53.5793 37.5821 53.5793 44.3846C53.5793 53.561 60.9603 61 70.0652 61C79.1702 61 86.5511 53.561 86.5511 44.3846C86.5511 35.2082 79.1702 27.7693 70.0652 27.7693C68.7006 27.7693 67.3747 27.9364 66.1066 28.2514L63.2943 19.5972L60.1679 8.15106C60.0232 7.47883 59.4404 7 58.767 7H53.3164ZM64.4535 32.3043L68.7319 45.5988C69.0445 46.3428 69.888 46.687 70.6159 46.3675C71.3438 46.048 71.6805 45.1859 71.3679 44.4419L67.1257 31.3875C68.07 31.1737 69.0536 31.0607 70.0652 31.0607C77.4479 31.0607 83.34 37.0781 83.34 44.3846C83.34 51.6911 77.4479 57.7086 70.0652 57.7086C62.6825 57.7086 56.7905 51.6911 56.7905 44.3846C56.7905 39.0681 59.91 34.4342 64.4535 32.3043ZM16.4859 31.0607C18.754 31.0607 20.8815 31.6286 22.7406 32.6274L14.1916 44.0427C13.8406 44.4811 13.7682 45.0869 14.0055 45.5988C14.2429 46.1107 14.7475 46.4371 15.3017 46.4371H29.6035C28.6225 52.7848 23.1641 57.7086 16.4859 57.7086C9.10321 57.7086 3.21117 51.6911 3.21117 44.3846C3.21117 37.0781 9.10321 31.0607 16.4859 31.0607ZM18.3286 43.505H29.7321C29.4927 39.8352 27.7666 36.5506 25.138 34.2786L18.3286 43.505ZM27.0771 31.6512C30.4729 34.5231 32.703 38.7494 32.9491 43.505H39.0447L39.2963 42.9653L31.844 25.1923L27.0771 31.6512Z" fill="#333F48"/>
<path d="M120 12.4146L128.73 21L145 5" stroke="#00AA50" stroke-width="5"/>
</svg>
