<svg xmlns="http://www.w3.org/2000/svg" width="37" height="23" fill="none" xmlns:v="https://vecta.io/nano"><path d="M8.312 18.094c.035-.572.035-1.146 0-1.718-.224-1.817.384-3.344 1.442-4.782.988-1.348.745-2.87-.52-3.902a1.03 1.03 0 0 0-.502-.194L4.72 7.013a5.89 5.89 0 0 1-1.132-.411 2.42 2.42 0 0 0-.62-.226c-.502-.03-1 0-1.515 0C.524 6.357.055 5.898.016 4.992-.08 2.805.195 2.52 2.388 2.522c.524 0 1.042.057 1.464-.405a.96.96 0 0 1 .707-.204c1.95.17 3.673-.68 5.476-1.16l2.187-.58c1.352-.398 2.586-.07 3.763.618l6.365 3.825c.22.154.476.254.743.293a1.73 1.73 0 0 0 .795-.073l8.34-2.308c.7-.188 1.218-.427 1.47-1.215.32-.956 1.1-1.297 2.02-1.093.78.17 1.298.89 1.28 1.795 0 1.54-.943 2.78-2.605 3.325L27.59 7.492l-2.484.8c-1.33.534-2.81.56-4.156.073l-1.25-.37c-.99-.405-1.893-.3-2.68.424-.216.2-.357.47-.396.762-.054.73-.026 1.463-.02 2.196a2.52 2.52 0 0 1-.321 1.352 2.53 2.53 0 0 1-.99.978c-.42.2-.764.543-.988.953s-.317.88-.265 1.345l.02 5.222c0 1.208-.502 1.718-1.707 1.744h-2.4c-1.154-.02-1.63-.516-1.63-1.648v-3.23zM12.73 21.6v-5.48c-.042-1.457.377-2.636 1.73-3.37.26-.13.477-.33.628-.578a1.54 1.54 0 0 0 .225-.822c0-1.434.03-2.847-.32-4.284-.476-1.932-1.234-3.577-2.877-4.782-.518-.38-.905-.587-1.518-.32-.527.217-1.093.32-1.64.504-.623.2-1.496.245-1.8.68s-.115 1.317-.17 2c-.042.53.147.765.7.86l4.853.956c.432.09.934.19.838.787s-.59.516-1.042.437l-1.22-.18c.9 1.686.588 3.146-.448 4.562-.64.864-1.18 1.763-1.132 2.945l.022 5.36c0 .24.03.48.045.736l3.126-.013zm3.64-14.313c.847-.615 1.682-.956 2.64-.76.54.106 1.074.244 1.598.414 1.416.485 2.8.673 4.28.112l5.415-1.756L34.16 4.07c.876-.287 1.477-.848 1.557-1.8.02-.24-.182-.497-.285-.746a7.49 7.49 0 0 0-.639.459.71.71 0 0 0-.131.319 1.91 1.91 0 0 1-.535.824 1.92 1.92 0 0 1-.875.451L24.19 6.09c-.414.133-.853.17-1.284.1a2.88 2.88 0 0 1-1.203-.46l-6.358-3.825c-.665-.395-1.36-.72-2.238-.45a3.92 3.92 0 0 0 .716.701c.92.746 1.69 1.565 1.883 2.824.17.78.393 1.548.665 2.298zM4.517 3.23v2.435h1.148V3.23H4.517zM1.32 5.142a7.21 7.21 0 0 0 1.726-.21c.147-.054.077-.724.11-1.106H1.32v1.317z" fill="#000"/></svg>