<svg xmlns="http://www.w3.org/2000/svg" width="68" height="34" fill="#4b4b4b" xmlns:v="https://vecta.io/nano"><path d="M10.862 21.55a6.14 6.14 0 0 0-6.139 6.173c.032 1.633.7 3.2 1.862 4.337a6.27 6.27 0 0 0 4.36 1.807 6.15 6.15 0 0 0 6.096-6.237 5.97 5.97 0 0 0-6.178-6.081zm46.85.004c-.8-.015-1.614.132-2.367.43a6.06 6.06 0 0 0-2.016 1.314c-.578.568-1.037 1.245-1.35 1.992a6.09 6.09 0 0 0-.474 2.36 6.26 6.26 0 0 0 6.154 6.217c.808.002 1.608-.156 2.354-.466s1.424-.764 1.993-1.338a6.1 6.1 0 0 0 1.323-2.002c.303-.748.457-1.55.45-2.358.032-.8-.102-1.616-.394-2.37a5.95 5.95 0 0 0-1.305-2.02c-.568-.578-1.25-1.03-2-1.332a5.91 5.91 0 0 0-2.366-.426zm10.283-3.974c.063-1.714-.545-2.624-2.23-2.78-4.04-.365-7.137-2.356-9.625-5.463-.555-.7-1.324-1.212-1.874-1.908C49.884 1.845 43.4.614 37.104.297 25.77-.258 14.397.146 3.04.088.906.073-.03.8.001 3.062L.044 26.67c0 2.434.876 3.447 3.632 4.177-.88-3.76-.55-7.162 2.92-9.518 2.683-1.816 5.5-1.83 8.277-.23 4.172 2.434 4.007 6.25 2.92 10.497h32.62c-.555-7.94 1.46-11.612 6.767-11.685 1.947 0 4.138.88 5.755 2.016 3.062 2.152 2.75 5.57 2.1 8.973 2.63-1.25 2.92-1.626 2.95-3.846.005-3.15-.097-6.315.02-9.474zm-25.97-4.328V6.154c7.064-2.546 9.947 3.004 14.187 7.098H42.026z"/></svg>