<svg width="36" height="36" viewBox="0 0 36 36" fill="none" xmlns="http://www.w3.org/2000/svg">
<rect width="36" height="36" rx="5" fill="#333F48"/>
<path fill-rule="evenodd" clip-rule="evenodd" d="M18.5001 9.80371C13.2917 9.80371 8.84383 13.0821 7.04175 17.7098C8.84383 22.3375 13.2917 25.6159 18.5001 25.6159C23.7084 25.6159 28.1563 22.3375 29.9584 17.7098C28.1563 13.0821 23.7084 9.80371 18.5001 9.80371ZM18.5001 22.9806C15.6251 22.9806 13.2917 20.6193 13.2917 17.7098C13.2917 14.8004 15.6251 12.4391 18.5001 12.4391C21.3751 12.4391 23.7084 14.8004 23.7084 17.7098C23.7084 20.6193 21.3751 22.9806 18.5001 22.9806ZM15.3751 17.7098C15.3751 15.9599 16.7709 14.5474 18.5001 14.5474C20.2292 14.5474 21.6251 15.9599 21.6251 17.7098C21.6251 19.4597 20.2292 20.8723 18.5001 20.8723C16.7709 20.8723 15.3751 19.4597 15.3751 17.7098Z" fill="white"/>
</svg>
