<svg xmlns="http://www.w3.org/2000/svg" width="29" height="29" fill="#fff" xmlns:v="https://vecta.io/nano"><path fill-rule="evenodd" d="M0 14.5A14.51 14.51 0 0 1 14.5 0 14.51 14.51 0 0 1 29 14.5 14.51 14.51 0 0 1 14.5 29 14.51 14.51 0 0 1 0 14.5zm2.9 0a11.62 11.62 0 0 0 11.6 11.6 11.62 11.62 0 0 0 11.6-11.6A11.62 11.62 0 0 0 14.5 2.9 11.62 11.62 0 0 0 2.9 14.5z"/><path d="M19.458 10.54l-1-1-3.96 3.96-3.96-3.96-1 1 3.96 3.96-3.96 3.96 1 1 3.96-3.96 3.96 3.96 1-1-3.96-3.96 3.96-3.96z" stroke="#fff" stroke-width="1.5"/></svg>