<svg width="118" height="65" viewBox="0 0 118 65" fill="none" xmlns="http://www.w3.org/2000/svg">
<path fill-rule="evenodd" clip-rule="evenodd" d="M62.217 0C61.2926 0 60.5432 0.790085 60.5432 1.7647C60.5432 2.73932 61.2926 3.52941 62.217 3.52941H67.2319L69.6724 12.182C63.2275 13.0938 57.5704 17.372 54.7239 23.6705L47.7739 39.0487L39.2855 18.1672V8.29411H40.6246C41.549 8.29411 42.2984 7.50403 42.2984 6.52941C42.2984 5.55479 41.549 4.7647 40.6246 4.7647H30.5816C29.6572 4.7647 28.9078 5.55479 28.9078 6.52941C28.9078 7.50403 29.6572 8.29411 30.5816 8.29411H35.9379V17.8995L28.8452 27.6685C26.0182 25.9712 22.7372 25 19.2381 25C8.61318 25 0 33.9543 0 45C0 56.0457 8.61318 65 19.2381 65C29.0584 65 37.1601 57.3506 38.3308 47.4706H45.5678C45.9097 48.1375 46.4481 48.7003 47.147 49.0514C48.8996 49.9317 50.9972 49.1476 51.8322 47.2999L61.0704 26.8586C63.0559 22.4652 67.1844 19.6123 71.7701 19.4219L74.0342 26.679C67.257 29.7729 62.5238 36.8118 62.5238 45C62.5238 56.0457 71.137 65 81.7619 65C92.3868 65 101 56.0457 101 45C101 33.9543 92.3868 25 81.7619 25C80.1695 25 78.6222 25.2012 77.1424 25.5803L73.8606 15.1633L70.2123 1.38554C70.0434 0.576372 69.3634 0 68.5776 0H62.217ZM75.2134 30.4589L80.206 46.4615C80.5708 47.3571 81.5551 47.7713 82.4045 47.3868C83.254 47.0022 83.6469 45.9645 83.2821 45.0689L78.3317 29.3553C79.4336 29.0979 80.5814 28.9619 81.7619 28.9619C90.3771 28.9619 97.2528 36.2052 97.2528 45C97.2528 53.7949 90.3771 61.0381 81.7619 61.0381C73.1467 61.0381 66.2711 53.7949 66.2711 45C66.2711 38.6005 69.9114 33.0226 75.2134 30.4589ZM19.2381 28.9619C21.8848 28.9619 24.3674 29.6456 26.5369 30.8478L16.5607 44.5884C16.1512 45.1161 16.0666 45.8454 16.3436 46.4615C16.6206 47.0777 17.2094 47.4706 17.8562 47.4706H34.5455C33.4008 55.1114 27.0311 61.0381 19.2381 61.0381C10.6229 61.0381 3.74725 53.7949 3.74725 45C3.74725 36.2052 10.6229 28.9619 19.2381 28.9619ZM21.3884 43.9411H34.6955C34.4162 39.5238 32.402 35.5701 29.3346 32.8353L21.3884 43.9411ZM31.5974 29.6727C35.56 33.1297 38.1625 38.2168 38.4497 43.9411H45.5629L45.8565 43.2915L37.16 21.8982L31.5974 29.6727Z" fill="#363636"/>
<rect x="92" y="36" width="26" height="29" rx="2" fill="#363636"/>
</svg>
