<svg width="173" height="70" viewBox="0 0 173 70" fill="none" xmlns="http://www.w3.org/2000/svg">
<path d="M142.904 45.0789L125.913 51.528L133.218 29.7016L142.904 45.0789Z" fill="#333F48"/>
<rect x="133.614" y="36.5762" width="10.2295" height="14.0656" transform="rotate(108.505 133.614 36.5762)" fill="#333F48"/>
<path fill-rule="evenodd" clip-rule="evenodd" d="M68.175 0C67.1621 0 66.3409 0.839304 66.3409 1.87464C66.3409 2.90997 67.1621 3.74927 68.175 3.74927H73.6702L76.3444 12.9409C69.2823 13.9095 63.0834 18.4542 59.9644 25.145L52.3488 41.4813L43.0476 19.2989V8.81079H44.5149C45.5278 8.81079 46.349 7.97149 46.349 6.93616C46.349 5.90082 45.5278 5.06152 44.5149 5.06152H33.5101C32.4972 5.06152 31.676 5.90082 31.676 6.93616C31.676 7.97149 32.4972 8.81079 33.5101 8.81079H39.3793V19.0145L31.6075 29.3921C28.5098 27.5891 24.9146 26.5574 21.0804 26.5574C9.438 26.5574 0 36.0695 0 47.8033C0 59.5371 9.438 69.0492 21.0804 69.0492C31.841 69.0492 40.7186 60.9232 42.0015 50.4277H49.9314C50.3061 51.1363 50.8961 51.7341 51.6619 52.107C53.5823 53.0422 55.8808 52.2092 56.7958 50.2464L66.9186 28.5317C69.0943 23.8647 73.6181 20.8341 78.6429 20.6318L81.1238 28.341C73.6977 31.6276 68.5112 39.105 68.5112 47.8033C68.5112 59.5371 77.9492 69.0492 89.5916 69.0492C101.234 69.0492 110.672 59.5371 110.672 47.8033C110.672 36.0695 101.234 26.5574 89.5916 26.5574C87.8467 26.5574 86.1512 26.7711 84.5297 27.1739L80.9337 16.1079L76.936 1.47185C76.7509 0.612278 76.0058 0 75.1447 0H68.175ZM82.416 32.3563L87.8867 49.3559C88.2864 50.3072 89.365 50.7472 90.2957 50.3387C91.2265 49.9302 91.657 48.8279 91.2574 47.8765L85.8328 31.184C87.0403 30.9106 88.2981 30.7661 89.5916 30.7661C99.0318 30.7661 106.566 38.4606 106.566 47.8033C106.566 57.146 99.0318 64.8405 89.5916 64.8405C80.1514 64.8405 72.6173 57.146 72.6173 47.8033C72.6173 41.0052 76.6063 35.0797 82.416 32.3563ZM21.0804 30.7661C23.9806 30.7661 26.7009 31.4924 29.0781 32.7695L18.1466 47.366C17.6978 47.9266 17.6052 48.7013 17.9087 49.3559C18.2122 50.0104 18.8575 50.4277 19.5661 50.4277H37.8537C36.5993 58.5445 29.6197 64.8405 21.0804 64.8405C11.6402 64.8405 4.10609 57.146 4.10609 47.8033C4.10609 38.4606 11.6402 30.7661 21.0804 30.7661ZM23.4366 46.6785H38.0181C37.712 41.986 35.5049 37.786 32.1437 34.8808L23.4366 46.6785ZM34.6232 31.5212C38.9653 35.1935 41.817 40.5976 42.1317 46.6785H49.926L50.2478 45.9884L40.7185 23.2623L34.6232 31.5212Z" fill="#6236BA"/>
<rect x="147" y="43.0492" width="26" height="26" rx="3" fill="#333F48"/>
</svg>
