<svg xmlns="http://www.w3.org/2000/svg" width="118" height="65" fill="#363636" xmlns:v="https://vecta.io/nano"><path fill-rule="evenodd" d="M62.217 0c-.924 0-1.674.8-1.674 1.765s.75 1.765 1.674 1.765h5.015l2.44 8.653c-6.445.912-12.102 5.2-14.948 11.49l-6.95 15.378-8.488-20.88V8.294h1.34c.924 0 1.674-.8 1.674-1.765s-.75-1.765-1.674-1.765H30.582c-.924 0-1.674.8-1.674 1.765s.75 1.765 1.674 1.765h5.356V17.9l-7.093 9.77C26.018 25.97 22.737 25 19.238 25 8.613 25 0 33.954 0 45s8.613 20 19.238 20c9.82 0 17.922-7.65 19.093-17.53h7.237c.342.667.88 1.23 1.58 1.58 1.753.88 3.85.096 4.685-1.75l9.238-20.44c1.986-4.393 6.114-7.246 10.7-7.437l2.264 7.257c-6.777 3.094-11.5 10.133-11.5 18.32 0 11.046 8.613 20 19.238 20S101 56.046 101 45s-8.613-20-19.238-20a18.59 18.59 0 0 0-4.62.58L73.86 15.163 70.212 1.386C70.043.576 69.363 0 68.578 0h-6.36zm12.996 30.46l4.993 16.003c.365.896 1.35 1.3 2.198.925s1.242-1.422.878-2.318l-4.95-15.714a15.06 15.06 0 0 1 3.43-.393c8.615 0 15.49 7.243 15.49 16.038s-6.876 16.038-15.49 16.038S66.27 53.795 66.27 45c0-6.4 3.64-11.977 8.942-14.54zm-55.975-1.497c2.647 0 5.13.684 7.3 1.886l-9.976 13.74c-.4.528-.494 1.257-.217 1.873s.866 1.01 1.513 1.01h16.69C33.4 55.11 27.03 61.038 19.238 61.038c-8.615 0-15.49-7.243-15.49-16.038s6.876-16.038 15.49-16.038zm2.15 14.98h13.307c-.28-4.417-2.294-8.37-5.36-11.106L21.388 43.94zm10.21-14.268c3.963 3.457 6.565 8.544 6.852 14.268h7.113l.294-.65-8.696-21.393-5.563 7.775z"/><rect x="92" y="36" width="26" height="29" rx="2"/></svg>