<svg width="67" height="37" viewBox="0 0 67 37" fill="none" xmlns="http://www.w3.org/2000/svg">
<rect x="1.5" y="1.5" width="64" height="34" rx="3.5" fill="#333F48" stroke="#333F48" stroke-width="3"/>
<path d="M0 0V-1H-1V0H0ZM67 0H68V-1H67V0ZM67 37V38H68V37H67ZM0 37H-1V38H0V37ZM0 1H67V-1H0V1ZM66 0V37H68V0H66ZM67 36H0V38H67V36ZM1 37V0H-1V37H1Z" fill="white"/>
<path fill-rule="evenodd" clip-rule="evenodd" d="M14.0393 11H11C10.4477 11 10 11.4477 10 12V25C10 25.5523 10.4477 26 11 26H24C24.5523 26 25 25.5523 25 25V12C25 11.4477 24.5523 11 24 11H20.9624V21.9616H14.0393V11Z" fill="#FAFAFA"/>
<path d="M39.2971 25.7262C38.8263 24.282 38.8612 22.9819 39.7922 21.8186C40.7232 20.6553 41.9381 20.1754 43.4143 20.3986C43.5157 20.4235 43.6219 20.4203 43.7217 20.3896C43.8215 20.3588 43.911 20.3016 43.9808 20.224C45.7314 18.4704 47.488 16.7198 49.2507 14.9723C49.3341 14.8975 49.3955 14.8015 49.4284 14.6944C49.4613 14.5874 49.4645 14.4734 49.4375 14.3648C49.3451 13.8344 49.3686 13.2904 49.5066 12.77C49.6446 12.2497 49.8937 11.7654 50.2368 11.3506C50.5799 10.9358 51.0088 10.6002 51.494 10.3671C51.9793 10.1339 52.5092 10.0087 53.0475 10C53.5942 10 54.1425 10.1124 54.6892 10.1731L54.7181 10.2916C54.6315 10.3888 54.551 10.4921 54.4584 10.5847C53.8798 11.1679 53.3042 11.7556 52.7104 12.3251C52.5311 12.4983 52.5175 12.6501 52.5585 12.8931C52.5843 13.0526 52.6845 13.3837 52.7316 13.6297C52.7868 13.7704 52.8703 13.8982 52.9768 14.0053C53.0834 14.1124 53.2109 14.1965 53.3512 14.2524C54.1334 14.5561 54.6892 14.3708 55.201 13.7163C55.6293 13.1756 56.1548 12.7185 56.6924 12.1718C57.0918 13.285 57.1131 14.298 56.6924 15.2882C55.9801 16.9496 54.3536 17.8153 52.5661 17.5465C52.4714 17.5392 52.3762 17.551 52.2862 17.5813C52.1962 17.6116 52.1132 17.6596 52.0421 17.7226C50.2743 19.4616 48.5233 21.2157 46.7616 22.9622C46.6778 23.0335 46.6164 23.1274 46.5846 23.2327C46.5528 23.338 46.552 23.4503 46.5824 23.556C46.7215 24.3402 46.6056 25.1483 46.2516 25.8617C45.8976 26.5751 45.3242 27.1563 44.6156 27.5198C43.5738 28.0727 42.2145 28.1273 41.2881 27.6413C41.3838 27.535 41.4689 27.4318 41.5615 27.3376C42.1341 26.7635 42.7005 26.1864 43.2837 25.6245C43.3645 25.5558 43.4234 25.465 43.453 25.3633C43.4827 25.2615 43.4819 25.1533 43.4508 25.0519C43.1653 23.7823 43.1698 23.7732 41.8668 23.5332C41.779 23.5239 41.6902 23.5326 41.6059 23.5587C41.5215 23.5848 41.4434 23.6278 41.3762 23.6851C40.7885 24.2409 40.225 24.8226 39.651 25.3952C39.5477 25.4908 39.449 25.5805 39.2971 25.7262ZM48.8953 17.5525C49.2431 18.1828 49.4527 18.1934 49.8172 17.6087C49.392 17.0301 49.3768 17.0286 48.8953 17.5525ZM47.6576 18.7781L48.177 19.3492L48.6706 18.8435C48.4838 18.6566 48.3258 18.5048 48.1466 18.3165L47.6576 18.7781ZM46.4077 19.9931L46.9438 20.6006L47.4207 20.0842L46.9058 19.5299L46.4077 19.9931Z" fill="#F5F5F5"/>
</svg>
