<svg xmlns="http://www.w3.org/2000/svg" width="36" height="36" fill="none" xmlns:v="https://vecta.io/nano"><rect x="1.5" y="1.5" width="33" height="33" rx="3.5" fill="#333f48" stroke="#00aa50" stroke-width="3"/><path fill-rule="evenodd" d="M18.5 9.804c-5.208 0-9.656 3.278-11.458 7.906 1.802 4.628 6.25 7.906 11.458 7.906s9.656-3.278 11.458-7.906c-1.802-4.628-6.25-7.906-11.458-7.906zm0 13.177c-2.875 0-5.208-2.36-5.208-5.27s2.333-5.27 5.208-5.27 5.208 2.36 5.208 5.27-2.333 5.27-5.208 5.27zm-3.125-5.27c0-1.75 1.396-3.162 3.125-3.162s3.125 1.412 3.125 3.162-1.396 3.162-3.125 3.162-3.125-1.413-3.125-3.162z" fill="#fff"/></svg>