<svg xmlns="http://www.w3.org/2000/svg" width="36" height="38" fill="none" xmlns:v="https://vecta.io/nano"><rect y=".5" width="36" height="36.72" rx="5" fill="#00aa50"/><rect y=".5" width="36" height="36.72" rx="5" stroke="#00aa50"/><g fill="#fff"><path fill-rule="evenodd" d="M18.5 10.5c-5.208 0-9.656 3.344-11.458 8.064 1.802 4.72 6.25 8.064 11.458 8.064s9.656-3.344 11.458-8.064c-1.802-4.72-6.25-8.064-11.458-8.064zm0 13.44c-2.875 0-5.208-2.408-5.208-5.376s2.333-5.376 5.208-5.376 5.208 2.41 5.208 5.376-2.333 5.376-5.208 5.376zm-3.125-5.376c0-1.785 1.396-3.226 3.125-3.226s3.125 1.44 3.125 3.226S20.23 21.79 18.5 21.79s-3.125-1.44-3.125-3.226z"/><path d="M0 .5v-1h-1v1h1zm36 0h1v-1h-1v1zm0 36.72v1h1v-1h-1zm-36 0h-1v1h1v-1zM0 1.5h36v-2H0v2zm35-1v36.72h2V.5h-2zm1 35.72H0v2h36v-2zm-35 1V.5h-2v36.72h2z"/></g></svg>