<svg width="67" height="37" viewBox="0 0 67 37" fill="none" xmlns="http://www.w3.org/2000/svg">
<rect x="1.5" y="1.5" width="64" height="34" rx="3.5" fill="#333F48" stroke="#333F48" stroke-width="3"/>
<path d="M0 0V-1H-1V0H0ZM67 0H68V-1H67V0ZM67 37V38H68V37H67ZM0 37H-1V38H0V37ZM0 1H67V-1H0V1ZM66 0V37H68V0H66ZM67 36H0V38H67V36ZM1 37V0H-1V37H1Z" fill="white"/>
<path fill-rule="evenodd" clip-rule="evenodd" d="M48.4993 10.8384C43.291 10.8384 38.8431 14.1823 37.041 18.9026C38.8431 23.6229 43.291 26.9668 48.4993 26.9668C53.7077 26.9668 58.1556 23.6229 59.9577 18.9026C58.1556 14.1823 53.7077 10.8384 48.4993 10.8384ZM48.4993 24.2788C45.6243 24.2788 43.291 21.8703 43.291 18.9026C43.291 15.935 45.6243 13.5265 48.4993 13.5265C51.3743 13.5265 53.7077 15.935 53.7077 18.9026C53.7077 21.8703 51.3743 24.2788 48.4993 24.2788ZM45.3743 18.9026C45.3743 17.1177 46.7702 15.6769 48.4993 15.6769C50.2285 15.6769 51.6243 17.1177 51.6243 18.9026C51.6243 20.6875 50.2285 22.1283 48.4993 22.1283C46.7702 22.1283 45.3743 20.6875 45.3743 18.9026Z" fill="#F5F5F5"/>
<path fill-rule="evenodd" clip-rule="evenodd" d="M13.125 15.0325L19.3988 8.75L20.8337 10.1675L19.8538 14.875H27.125V18.725L23.8963 26.25H13.125V15.0325ZM11.375 15.75H7.875V26.25H11.375V15.75Z" fill="#F5F5F5"/>
</svg>
