<svg xmlns="http://www.w3.org/2000/svg" width="68" height="37" fill="none" xmlns:v="https://vecta.io/nano"><rect x="1.5" y="1.5" width="65" height="34" rx="3.5" fill="#00aa50" stroke="#00aa50" stroke-width="3"/><g fill="#fff"><path d="M0 0v-1h-1v1h1zm68 0h1v-1h-1v1zm0 37v1h1v-1h-1zM0 37h-1v1h1v-1zM0 1h68v-2H0v2zm67-1v37h2V0h-2zm1 36H0v2h68v-2zM1 37V0h-2v37h2z"/><path fill-rule="evenodd" d="M21.458 10C16.25 10 11.802 13.344 10 18.064c1.802 4.72 6.25 8.064 11.458 8.064s9.656-3.344 11.458-8.064C31.115 13.344 26.667 10 21.458 10zm0 13.44c-2.875 0-5.208-2.408-5.208-5.376s2.333-5.376 5.208-5.376 5.208 2.41 5.208 5.376-2.333 5.376-5.208 5.376zm-3.125-5.376c0-1.785 1.396-3.226 3.125-3.226s3.125 1.44 3.125 3.226-1.396 3.226-3.125 3.226-3.125-1.44-3.125-3.226z"/><path d="M45.8 21.9l-4.2-4.2-1.4 1.4 5.6 5.6 12-12-1.4-1.4-10.6 10.6z"/></g></svg>