<svg width="70" height="46" viewBox="0 0 70 46" fill="none" xmlns="http://www.w3.org/2000/svg">
<g filter="url(#filter0_d)">
<path d="M63.3922 8.3199L54.2912 6.03598L53.8341 3.62438C53.7852 3.36665 53.6856 3.12102 53.5409 2.90158C53.3963 2.68214 53.2094 2.49321 52.9911 2.34561C52.7727 2.19801 52.5272 2.09464 52.2686 2.04144C52.0099 1.98824 51.7432 1.98624 51.4838 2.03557C51.3435 2.06195 51.2098 2.11556 51.0903 2.19333C50.9709 2.27109 50.8681 2.37149 50.7878 2.48877C50.7075 2.60605 50.6513 2.73791 50.6224 2.87679C50.5935 3.01567 50.5925 3.15884 50.6194 3.29811L51.0123 5.33378H6.95053C6.16806 5.33378 5.41763 5.64241 4.86434 6.19177C4.31105 6.74114 4.00022 7.48624 4.00022 8.26316V33.0884C3.99548 33.4757 4.06835 33.8601 4.21458 34.2192C4.36082 34.5784 4.5775 34.905 4.85203 35.1803C5.12656 35.4555 5.45346 35.6738 5.81372 35.8224C6.17397 35.9711 6.5604 36.0471 6.95053 36.0461H50.8766L50.5623 37.7059C50.5354 37.8452 50.5364 37.9883 50.5653 38.1272C50.5942 38.2661 50.6504 38.3979 50.7306 38.5152C50.8109 38.6325 50.9138 38.7329 51.0332 38.8107C51.1526 38.8884 51.2863 38.942 51.4267 38.9684C51.9504 39.0661 52.4918 38.9537 52.9323 38.656C53.3727 38.3582 53.6765 37.8992 53.7769 37.3796L54.1555 35.3369L63.3922 33.0175C64.0279 32.8579 64.5917 32.492 64.9942 31.9781C65.3967 31.4641 65.6148 30.8314 65.6139 30.1803V11.1571C65.6135 10.5063 65.395 9.87421 64.9927 9.36047C64.5904 8.84673 64.0273 8.48062 63.3922 8.3199V8.3199Z" fill="#ADADAD"/>
<path d="M55.6449 9.32275H49.0371C48.248 9.32275 47.6084 9.95787 47.6084 10.7413V30.2468C47.6084 31.0303 48.248 31.6654 49.0371 31.6654H55.6449C56.434 31.6654 57.0737 31.0303 57.0737 30.2468V10.7413C57.0737 9.95787 56.434 9.32275 55.6449 9.32275Z" fill="#010101"/>
<path d="M10.2615 9.32275H7.53982C6.98353 9.32275 6.53257 9.77051 6.53257 10.3229V30.6653C6.53257 31.2176 6.98353 31.6654 7.53982 31.6654H10.2615C10.8178 31.6654 11.2688 31.2176 11.2688 30.6653V10.3229C11.2688 9.77051 10.8178 9.32275 10.2615 9.32275Z" fill="#010101"/>
<path d="M14.7549 8.12771V9.3264C14.7549 9.55361 14.9404 9.73779 15.1692 9.73779H23.0129C23.2417 9.73779 23.4272 9.55361 23.4272 9.3264V8.12771C23.4272 7.9005 23.2417 7.71632 23.0129 7.71632H15.1692C14.9404 7.71632 14.7549 7.9005 14.7549 8.12771Z" fill="#010101"/>
<path d="M24.9345 8.1277V9.32641C24.9345 9.55361 25.12 9.73779 25.3489 9.73779H33.1925C33.4214 9.73779 33.6069 9.55361 33.6069 9.32641V8.1277C33.6069 7.9005 33.4214 7.71632 33.1925 7.71632H25.3489C25.12 7.71632 24.9345 7.9005 24.9345 8.1277Z" fill="#010101"/>
<path d="M35.2142 8.1277V9.32641C35.2142 9.55361 35.3997 9.73779 35.6285 9.73779H43.4722C43.701 9.73779 43.8865 9.55361 43.8865 9.32641V8.1277C43.8865 7.9005 43.701 7.71632 43.4722 7.71632H35.6285C35.3997 7.71632 35.2142 7.9005 35.2142 8.1277Z" fill="#010101"/>
<path d="M14.762 31.6118V32.8105C14.762 33.0377 14.9475 33.2219 15.1763 33.2219H23.02C23.2488 33.2219 23.4343 33.0377 23.4343 32.8105V31.6118C23.4343 31.3846 23.2488 31.2004 23.02 31.2004H15.1763C14.9475 31.2004 14.762 31.3846 14.762 31.6118Z" fill="#010101"/>
<path d="M24.9417 31.6118V32.8105C24.9417 33.0377 25.1272 33.2219 25.356 33.2219H33.1997C33.4285 33.2219 33.614 33.0377 33.614 32.8105V31.6118C33.614 31.3846 33.4285 31.2004 33.1997 31.2004H25.356C25.1272 31.2004 24.9417 31.3846 24.9417 31.6118Z" fill="#010101"/>
<path d="M35.2213 31.6299V32.8286C35.2213 33.0558 35.4068 33.24 35.6356 33.24H43.4793C43.7081 33.24 43.8936 33.0558 43.8936 32.8286V31.6299C43.8936 31.4027 43.7081 31.2185 43.4793 31.2185H35.6356C35.4068 31.2185 35.2213 31.4027 35.2213 31.6299Z" fill="#010101"/>
</g>
<defs>
<filter id="filter0_d" x="0" y="0" width="69.6139" height="45.0028" filterUnits="userSpaceOnUse" color-interpolation-filters="sRGB">
<feFlood flood-opacity="0" result="BackgroundImageFix"/>
<feColorMatrix in="SourceAlpha" type="matrix" values="0 0 0 0 0 0 0 0 0 0 0 0 0 0 0 0 0 0 127 0"/>
<feOffset dy="2"/>
<feGaussianBlur stdDeviation="2"/>
<feColorMatrix type="matrix" values="0 0 0 0 0 0 0 0 0 0 0 0 0 0 0 0 0 0 0.25 0"/>
<feBlend mode="normal" in2="BackgroundImageFix" result="effect1_dropShadow"/>
<feBlend mode="normal" in="SourceGraphic" in2="effect1_dropShadow" result="shape"/>
</filter>
</defs>
</svg>
