<svg xmlns="http://www.w3.org/2000/svg" width="36" height="36" fill="none" xmlns:v="https://vecta.io/nano"><rect x="1.5" y="1.5" width="33" height="33" rx="3.5" fill="#333f48" stroke="#333f48" stroke-width="3"/><path fill-rule="evenodd" d="M26.195 18.083c-.422-3.823-3.456-6.857-7.278-7.278V8.917h-1.833v1.888c-3.823.422-6.857 3.456-7.278 7.278H7.917v1.833h1.888c.422 3.823 3.456 6.857 7.278 7.278v1.888h1.833v-1.888c3.823-.422 6.857-3.456 7.278-7.278h1.888v-1.833h-1.888zM18 15.333c-2.026 0-3.667 1.64-3.667 3.667s1.64 3.667 3.667 3.667 3.667-1.64 3.667-3.667-1.64-3.667-3.667-3.667zM11.583 19c0 3.547 2.87 6.417 6.417 6.417s6.417-2.87 6.417-6.417-2.87-6.417-6.417-6.417-6.417 2.87-6.417 6.417z" fill="#f5f5f5"/></svg>