<svg xmlns="http://www.w3.org/2000/svg" width="43" height="36" fill="none" xmlns:v="https://vecta.io/nano"><path fill-rule="evenodd" d="M42.423 10.606L21.212 0 0 10.606h42.423zm-.016 0H0v24.747h42.423l-.016-24.747z" fill="#333f48"/><path d="M28.528 29.896c-1.516.494-2.88.457-4.102-.52s-1.725-2.253-1.49-3.802c.026-.106.023-.218-.01-.323s-.092-.2-.174-.272l-5.513-5.532a.65.65 0 0 0-.638-.196 3.91 3.91 0 0 1-3.164-.839 3.91 3.91 0 0 1-1.418-2.95c0-.574.118-1.15.182-1.723l.124-.03.308.273 1.827 1.835c.182.188.34.203.596.16.167-.027.515-.132.773-.182a1.16 1.16 0 0 0 .654-.65c.32-.82.124-1.405-.563-1.942-.568-.45-1.047-1-1.62-1.565 1.168-.42 2.232-.442 3.27 0 1.744.748 2.653 2.455 2.37 4.332-.008.1.005.2.037.294a.74.74 0 0 0 .148.256l5.5 5.543a.6.6 0 0 0 .623.188 3.91 3.91 0 0 1 4.161 2.064c.58 1.094.638 2.52.127 3.493l-.32-.287-1.798-1.808a.57.57 0 0 0-.601-.175c-1.333.3-1.342.295-1.594 1.663a.68.68 0 0 0 .159.515l1.795 1.81.348.372zm-8.58-10.076c.662-.365.673-.585.06-.968-.607.446-.61.462-.06.968zm1.287 1.3l.6-.545-.53-.518-.553.55.485.513zm1.275 1.312l.638-.563-.542-.5-.582.54.486.523z" fill="#fff"/></svg>