<svg xmlns="http://www.w3.org/2000/svg" width="26" height="20" fill="#000" xmlns:v="https://vecta.io/nano"><path d="M9.9.328V18.6c-2.307-.53-4.46-1.33-6.354-2.754A9.07 9.07 0 0 1 .864 12.81C-.608 10-.178 6.885 1.984 4.492 3.86 2.413 6.26 1.288 8.884.557L9.9.328zm3.688 18.688l-3.465-.328V.197L13.56 0v2.357c1.064.564 1.482 1.548 1.812 2.584.683 2.125.686 4.308.508 6.502-.067 1.336-.43 2.64-1.064 3.813a8.81 8.81 0 0 1-.97 1.121.85.85 0 0 0-.255.446v2.194zM10.677.695V18.2l2.336.203V16.52c-.023-.13.003-.263.074-.372s.18-.188.307-.218c.252-.117.473-.292.647-.5a5.42 5.42 0 0 0 1.02-2.475 16.73 16.73 0 0 0 0-6.941c-.28-1.3-.53-2.695-2.077-3.216V.695h-2.307zm10.78 16.46h-3.332c-.802 0-1.24-.5-1.168-1.3-.002-.116.02-.23.06-.34s.105-.206.184-.3a.87.87 0 0 1 .28-.196.86.86 0 0 1 .332-.072h7.27c.595 0 .938.534.903 1.17a1.03 1.03 0 0 1-.073.395 1.01 1.01 0 0 1-.218.335 1 1 0 0 1-.329.223.99.99 0 0 1-.389.077h-3.52v.006zm.034-8.787h3.284c.78 0 1.255.498 1.223 1.193a1.07 1.07 0 0 1-.239.627 1.05 1.05 0 0 1-.563.356 2.92 2.92 0 0 1-.647.082h-6.1a3.44 3.44 0 0 1-.647-.075 1.11 1.11 0 0 1-.62-.353 1.14 1.14 0 0 1-.285-.66c-.004-.24.068-.475.206-.67a1.1 1.1 0 0 1 .56-.412 2.42 2.42 0 0 1 .692-.095l3.138.007zm-.053-4.37H18.15c-.796 0-1.23-.364-1.25-1.036s.466-1.125 1.216-1.144h6.632c.938 0 1.478.738 1.155 1.53-.08.2-.224.387-.412.506a1 1 0 0 1-.63.15l-3.426-.007z"/></svg>