<svg xmlns="http://www.w3.org/2000/svg" width="36" height="37" viewBox="0 0 36 36" fill="none" xmlns:v="https://vecta.io/nano"><rect width="36" height="36" rx="5" fill="#333f48"/><g fill="#fff"><path d="M16.99 27.82a.47.47 0 0 0-.046-.329c-.055-.1-.144-.177-.252-.215-3.28-1.175-5.25-4.667-4.46-8.166.82-3.635 4.327-5.97 7.94-5.373l.206-.912c-1.95-.336-3.957.076-5.62 1.155a7.95 7.95 0 0 0-3.367 4.67 7.99 7.99 0 0 0 .657 5.73c.924 1.76 2.47 3.108 4.336 3.777a.46.46 0 0 0 .193.026c.066-.005.13-.024.187-.056s.108-.076.147-.128a.47.47 0 0 0 .082-.178z"/><path d="M13.4 15.085h1.755a6.76 6.76 0 0 1 8.081 0h1.756a.51.51 0 0 0 .36-.151c.096-.096.15-.226.15-.362v-5.06c0-.136-.054-.266-.15-.362A.51.51 0 0 0 24.991 9H13.4a.51.51 0 0 0-.36.151c-.096.096-.15.226-.15.362v5.06c0 .136.054.266.15.362a.51.51 0 0 0 .36.151z"/><path d="M19.115 11.708c-2.328.016-4.554.96-6.2 2.625a8.86 8.86 0 0 0-2.535 6.255c.01 3.237 1.75 6.064 4.336 7.6.057.034.12.052.187.052s.13-.016.188-.05.105-.08.138-.137.05-.122.05-.19v-2.126c0-.055-.012-.1-.036-.16s-.057-.094-.1-.13l-.432-.397a6.37 6.37 0 0 1-1.731-3.255 6.39 6.39 0 0 1 .36-3.673 6.35 6.35 0 0 1 2.329-2.853 6.3 6.3 0 0 1 7.026 0 6.35 6.35 0 0 1 2.329 2.853 6.39 6.39 0 0 1 .36 3.673 6.37 6.37 0 0 1-1.731 3.255l-.432.397c-.042.035-.076.08-.1.13s-.035.104-.036.16v2.127c0 .066.017.13.05.188s.08.105.137.137a.37.37 0 0 0 .374-.002C26.258 26.65 28 23.8 28 20.56c0-4.915-3.985-8.894-8.885-8.852z"/><path d="M14.593 16.655l-2.988-2.187c-.24-.176-.577-.123-.752.12l-1.027 1.417c-.175.24-.122.58.118.756l2.988 2.187c.24.176.577.123.752-.12l1.027-1.417c.175-.24.122-.58-.118-.756z"/></g><path d="M9.935 12.04l-1.352-1.4m-.977 6.674l-1.93-.184M8.1 14.553l-1.724-.886" stroke="#fff" stroke-width="1.5" stroke-linecap="round"/></svg>