<svg width="13" height="13" viewBox="0 0 13 13" fill="none" xmlns="http://www.w3.org/2000/svg">
<path fill-rule="evenodd" clip-rule="evenodd" d="M10.8327 4.60493H9.20768V3.63535C9.20768 2.2216 8.1731 0.959515 6.76477 0.824098C5.1506 0.672431 3.79102 1.93993 3.79102 3.5216V4.60493H2.16602V12.1883H10.8327V4.60493ZM6.49935 9.47993C5.90352 9.47993 5.41602 8.99243 5.41602 8.3966C5.41602 7.80076 5.90352 7.31326 6.49935 7.31326C7.09518 7.31326 7.58268 7.80076 7.58268 8.3966C7.58268 8.99243 7.09518 9.47993 6.49935 9.47993ZM4.87435 3.5216V4.60493H8.12435V3.5216C8.12435 2.62243 7.39852 1.8966 6.49935 1.8966C5.60018 1.8966 4.87435 2.62243 4.87435 3.5216Z" fill="#333F48"/>
</svg>
