<svg width="114" height="60" viewBox="0 0 114 60" fill="none" xmlns="http://www.w3.org/2000/svg">
<path fill-rule="evenodd" clip-rule="evenodd" d="M14.1673 12.0218H12.0423V10.7539C12.0423 8.90515 10.6894 7.25473 8.84773 7.07765C6.7369 6.87931 4.95898 8.53681 4.95898 10.6051V12.0218H2.83398V21.9385H14.1673V12.0218ZM8.50065 18.3968C7.72148 18.3968 7.08398 17.7593 7.08398 16.9801C7.08398 16.201 7.72148 15.5635 8.50065 15.5635C9.27982 15.5635 9.91732 16.201 9.91732 16.9801C9.91732 17.7593 9.27982 18.3968 8.50065 18.3968ZM6.37565 10.6051V12.0218H10.6257V10.6051C10.6257 9.42931 9.67648 8.48015 8.50065 8.48015C7.32482 8.48015 6.37565 9.42931 6.37565 10.6051Z" fill="#333F48"/>
<path fill-rule="evenodd" clip-rule="evenodd" d="M53.3164 6C52.5242 6 51.882 6.65638 51.882 7.46606C51.882 8.27575 52.5242 8.93212 53.3164 8.93212H57.6139L59.7052 16.1204C54.1823 16.8779 49.3345 20.4321 46.8952 25.6647L40.9395 38.4405L33.6654 21.0927V12.8905H34.8129C35.6051 12.8905 36.2473 12.2341 36.2473 11.4244C36.2473 10.6147 35.6051 9.95837 34.8129 9.95837H26.2067C25.4145 9.95837 24.7723 10.6147 24.7723 11.4244C24.7723 12.2341 25.4145 12.8905 26.2067 12.8905H30.7967V20.8703L24.7186 28.9861C22.2961 27.5761 19.4845 26.7693 16.4859 26.7693C7.381 26.7693 0 34.2082 0 43.3846C0 52.561 7.381 60 16.4859 60C24.9013 60 31.844 53.6451 32.8473 45.4371H39.049C39.3419 45.9912 39.8034 46.4587 40.4023 46.7504C41.9041 47.4818 43.7017 46.8303 44.4172 45.2953L52.3338 28.3133C54.0352 24.6634 57.5732 22.2933 61.5028 22.1351L63.443 28.1641C57.6353 30.7344 53.5793 36.5821 53.5793 43.3846C53.5793 52.561 60.9603 60 70.0652 60C79.1702 60 86.5511 52.561 86.5511 43.3846C86.5511 34.2082 79.1702 26.7693 70.0652 26.7693C68.7006 26.7693 67.3747 26.9364 66.1066 27.2514L63.2943 18.5972L60.1679 7.15106C60.0232 6.47883 59.4404 6 58.767 6H53.3164ZM64.4535 31.3043L68.7319 44.5988C69.0445 45.3428 69.888 45.687 70.6159 45.3675C71.3438 45.048 71.6805 44.1859 71.3679 43.4419L67.1257 30.3875C68.07 30.1737 69.0536 30.0607 70.0652 30.0607C77.4479 30.0607 83.34 36.0781 83.34 43.3846C83.34 50.6911 77.4479 56.7086 70.0652 56.7086C62.6825 56.7086 56.7905 50.6911 56.7905 43.3846C56.7905 38.0681 59.91 33.4342 64.4535 31.3043ZM16.4859 30.0607C18.754 30.0607 20.8815 30.6286 22.7406 31.6274L14.1916 43.0427C13.8406 43.4811 13.7682 44.0869 14.0055 44.5988C14.2429 45.1107 14.7475 45.4371 15.3017 45.4371H29.6035C28.6225 51.7848 23.1641 56.7086 16.4859 56.7086C9.10321 56.7086 3.21117 50.6911 3.21117 43.3846C3.21117 36.0781 9.10321 30.0607 16.4859 30.0607ZM18.3286 42.505H29.7321C29.4927 38.8352 27.7666 35.5506 25.138 33.2786L18.3286 42.505ZM27.0771 30.6512C30.4729 33.5231 32.703 37.7494 32.9491 42.505H39.0447L39.2963 41.9653L31.844 24.1923L27.0771 30.6512Z" fill="#F7BC00"/>
<path fill-rule="evenodd" clip-rule="evenodd" d="M98.4167 0C89.9067 0 83 6.90667 83 15.4167C83 23.9267 89.9067 30.8333 98.4167 30.8333C106.927 30.8333 113.833 23.9267 113.833 15.4167C113.833 6.90667 106.927 0 98.4167 0ZM91.8646 16.9583C91.8646 15.8946 92.7279 15.0312 93.7917 15.0312C94.8554 15.0312 95.7188 15.8946 95.7188 16.9583C95.7188 18.0221 94.8554 18.8854 93.7917 18.8854C92.7279 18.8854 91.8646 18.0221 91.8646 16.9583ZM101.115 16.9583C101.115 15.8946 101.978 15.0312 103.042 15.0312C104.105 15.0312 104.969 15.8946 104.969 16.9583C104.969 18.0221 104.105 18.8854 103.042 18.8854C101.978 18.8854 101.115 18.0221 101.115 16.9583ZM86.0833 15.4167C86.0833 22.2154 91.6179 27.75 98.4167 27.75C105.215 27.75 110.75 22.2154 110.75 15.4167C110.75 14.1987 110.565 13.0271 110.241 11.9325C109.131 12.1946 107.975 12.3333 106.772 12.3333C101.577 12.3333 96.9829 9.75875 94.1925 5.81208C92.6817 9.49667 89.7987 12.4721 86.1604 14.0908C86.1142 14.5225 86.0833 14.9696 86.0833 15.4167Z" fill="#333F48"/>
</svg>
