<svg width="105" height="63" viewBox="0 0 105 63" fill="none" xmlns="http://www.w3.org/2000/svg">
<path fill-rule="evenodd" clip-rule="evenodd" d="M18.1673 12.0218H16.0423V10.7539C16.0423 8.90515 14.6894 7.25473 12.8477 7.07765C10.7369 6.87931 8.95898 8.53681 8.95898 10.6051V12.0218H6.83398V21.9385H18.1673V12.0218ZM12.5007 18.3968C11.7215 18.3968 11.084 17.7593 11.084 16.9801C11.084 16.201 11.7215 15.5635 12.5007 15.5635C13.2798 15.5635 13.9173 16.201 13.9173 16.9801C13.9173 17.7593 13.2798 18.3968 12.5007 18.3968ZM10.3757 10.6051V12.0218H14.6257V10.6051C14.6257 9.42931 13.6765 8.48015 12.5007 8.48015C11.3248 8.48015 10.3757 9.42931 10.3757 10.6051Z" fill="#333F48"/>
<path fill-rule="evenodd" clip-rule="evenodd" d="M53.3164 9.00049C52.5242 9.00049 51.882 9.65687 51.882 10.4666C51.882 11.2762 52.5242 11.9326 53.3164 11.9326H57.6139L59.7052 19.1209C54.1823 19.8784 49.3345 23.4326 46.8952 28.6652L40.9395 41.441L33.6654 24.0932V15.891H34.8129C35.6051 15.891 36.2473 15.2346 36.2473 14.4249C36.2473 13.6152 35.6051 12.9589 34.8129 12.9589H26.2067C25.4145 12.9589 24.7723 13.6152 24.7723 14.4249C24.7723 15.2346 25.4145 15.891 26.2067 15.891H30.7967V23.8708L24.7186 31.9866C22.2961 30.5766 19.4845 29.7697 16.4859 29.7697C7.381 29.7697 0 37.2087 0 46.3851C0 55.5615 7.381 63.0005 16.4859 63.0005C24.9013 63.0005 31.844 56.6456 32.8473 48.4376H39.049C39.3419 48.9917 39.8034 49.4592 40.4023 49.7509C41.9041 50.4822 43.7017 49.8308 44.4172 48.2958L52.3338 31.3138C54.0352 27.6639 57.5732 25.2938 61.5028 25.1356L63.443 31.1646C57.6354 33.7349 53.5793 39.5826 53.5793 46.3851C53.5793 55.5615 60.9603 63.0005 70.0652 63.0005C79.1701 63.0005 86.5511 55.5615 86.5511 46.3851C86.5511 37.2087 79.1701 29.7697 70.0652 29.7697C68.7006 29.7697 67.3747 29.9368 66.1066 30.2519L63.2943 21.5977L60.1679 10.1515C60.0232 9.47932 59.4404 9.00049 58.767 9.00049H53.3164ZM64.4535 34.3048L68.7319 47.5993C69.0445 48.3433 69.888 48.6874 70.6159 48.368C71.3438 48.0485 71.6805 47.1864 71.3679 46.4424L67.1257 33.3879C68.07 33.1742 69.0536 33.0612 70.0652 33.0612C77.4479 33.0612 83.34 39.0786 83.34 46.3851C83.34 53.6916 77.4479 59.7091 70.0652 59.7091C62.6825 59.7091 56.7905 53.6916 56.7905 46.3851C56.7905 41.0686 59.91 36.4346 64.4535 34.3048ZM16.4859 33.0612C18.754 33.0612 20.8815 33.6291 22.7406 34.6279L14.1916 46.0431C13.8406 46.4816 13.7682 47.0874 14.0055 47.5993C14.2429 48.1112 14.7475 48.4376 15.3017 48.4376H29.6035C28.6225 54.7853 23.1641 59.7091 16.4859 59.7091C9.10321 59.7091 3.21117 53.6916 3.21117 46.3851C3.21117 39.0786 9.10321 33.0612 16.4859 33.0612ZM18.3286 45.5054H29.7321C29.4927 41.8357 27.7666 38.5511 25.138 36.2791L18.3286 45.5054ZM27.0771 33.6517C30.4729 36.5236 32.703 40.7499 32.9491 45.5054H39.0447L39.2963 44.9657L31.844 27.1928L27.0771 33.6517Z" fill="#333F48"/>
<path fill-rule="evenodd" clip-rule="evenodd" d="M89.4167 0.000244141C80.9067 0.000244141 74 6.90691 74 15.4169C74 23.9269 80.9067 30.8336 89.4167 30.8336C97.9267 30.8336 104.833 23.9269 104.833 15.4169C104.833 6.90691 97.9267 0.000244141 89.4167 0.000244141ZM82.8646 16.9586C82.8646 15.8948 83.7279 15.0315 84.7917 15.0315C85.8554 15.0315 86.7188 15.8948 86.7188 16.9586C86.7188 18.0223 85.8554 18.8857 84.7917 18.8857C83.7279 18.8857 82.8646 18.0223 82.8646 16.9586ZM92.1146 16.9586C92.1146 15.8948 92.9779 15.0315 94.0417 15.0315C95.1054 15.0315 95.9687 15.8948 95.9687 16.9586C95.9687 18.0223 95.1054 18.8857 94.0417 18.8857C92.9779 18.8857 92.1146 18.0223 92.1146 16.9586ZM77.0833 15.4169C77.0833 22.2157 82.6179 27.7502 89.4167 27.7502C96.2154 27.7502 101.75 22.2157 101.75 15.4169C101.75 14.199 101.565 13.0273 101.241 11.9327C100.131 12.1948 98.975 12.3336 97.7725 12.3336C92.5771 12.3336 87.9829 9.75899 85.1925 5.81233C83.6817 9.49691 80.7987 12.4723 77.1604 14.0911C77.1142 14.5227 77.0833 14.9698 77.0833 15.4169Z" fill="#333F48"/>
</svg>
