<svg width="89" height="54" viewBox="0 0 89 54" fill="none" xmlns="http://www.w3.org/2000/svg">
<path fill-rule="evenodd" clip-rule="evenodd" d="M14.1673 6.02181H12.0423V4.7539C12.0423 2.90515 10.6894 1.25473 8.84773 1.07765C6.7369 0.879315 4.95898 2.53681 4.95898 4.60515V6.02181H2.83398V15.9385H14.1673V6.02181ZM8.50065 12.3968C7.72148 12.3968 7.08398 11.7593 7.08398 10.9801C7.08398 10.201 7.72148 9.56348 8.50065 9.56348C9.27982 9.56348 9.91732 10.201 9.91732 10.9801C9.91732 11.7593 9.27982 12.3968 8.50065 12.3968ZM6.37565 4.60515V6.02181H10.6257V4.60515C10.6257 3.42931 9.67648 2.48015 8.50065 2.48015C7.32482 2.48015 6.37565 3.42931 6.37565 4.60515Z" fill="#333F48"/>
<path fill-rule="evenodd" clip-rule="evenodd" d="M53.3164 0C52.5242 0 51.882 0.656378 51.882 1.46606C51.882 2.27575 52.5242 2.93212 53.3164 2.93212H57.6139L59.7052 10.1204C54.1823 10.8779 49.3345 14.4321 46.8952 19.6647L40.9395 32.4405L33.6654 15.0927V6.89049H34.8129C35.6051 6.89049 36.2473 6.23412 36.2473 5.42443C36.2473 4.61475 35.6051 3.95837 34.8129 3.95837H26.2067C25.4145 3.95837 24.7723 4.61475 24.7723 5.42443C24.7723 6.23412 25.4145 6.89049 26.2067 6.89049H30.7967V14.8703L24.7186 22.9861C22.2961 21.5761 19.4845 20.7693 16.4859 20.7693C7.381 20.7693 0 28.2082 0 37.3846C0 46.561 7.381 54 16.4859 54C24.9013 54 31.844 47.6451 32.8473 39.4371H39.049C39.3419 39.9912 39.8034 40.4587 40.4023 40.7504C41.9041 41.4818 43.7017 40.8303 44.4172 39.2953L52.3338 22.3133C54.0352 18.6634 57.5732 16.2933 61.5028 16.1351L63.443 22.1641C57.6354 24.7344 53.5793 30.5821 53.5793 37.3846C53.5793 46.561 60.9603 54 70.0652 54C79.1701 54 86.5511 46.561 86.5511 37.3846C86.5511 28.2082 79.1701 20.7693 70.0652 20.7693C68.7006 20.7693 67.3747 20.9364 66.1066 21.2514L63.2943 12.5972L60.1679 1.15106C60.0232 0.478832 59.4404 0 58.767 0H53.3164ZM64.4535 25.3043L68.7319 38.5988C69.0445 39.3428 69.888 39.687 70.6159 39.3675C71.3438 39.048 71.6805 38.1859 71.3679 37.4419L67.1257 24.3875C68.07 24.1737 69.0536 24.0607 70.0652 24.0607C77.4479 24.0607 83.34 30.0781 83.34 37.3846C83.34 44.6911 77.4479 50.7086 70.0652 50.7086C62.6825 50.7086 56.7905 44.6911 56.7905 37.3846C56.7905 32.0681 59.91 27.4342 64.4535 25.3043ZM16.4859 24.0607C18.754 24.0607 20.8815 24.6286 22.7406 25.6274L14.1916 37.0427C13.8406 37.4811 13.7682 38.0869 14.0055 38.5988C14.2429 39.1107 14.7475 39.4371 15.3017 39.4371H29.6035C28.6225 45.7848 23.1641 50.7086 16.4859 50.7086C9.10321 50.7086 3.21117 44.6911 3.21117 37.3846C3.21117 30.0781 9.10321 24.0607 16.4859 24.0607ZM18.3286 36.505H29.7321C29.4927 32.8352 27.7666 29.5506 25.138 27.2786L18.3286 36.505ZM27.0771 24.6512C30.4729 27.5231 32.703 31.7494 32.9491 36.505H39.0447L39.2963 35.9653L31.844 18.1923L27.0771 24.6512Z" fill="#DF2A2A"/>
<path d="M85.8275 0L80 5.8275L74.1725 0L71 3.1725L76.8275 9L71 14.8275L74.1725 18L80 12.1725L85.8275 18L89 14.8275L83.1725 9L89 3.1725L85.8275 0Z" fill="#DF2A2A"/>
</svg>
