<svg xmlns="http://www.w3.org/2000/svg" width="73" height="27" fill="none" xmlns:v="https://vecta.io/nano"><path fill-rule="evenodd" d="M25.748 0c-.383 0-.693.325-.693.726s.3.726.693.726h2.075l1 3.557c-2.667.375-5.008 2.134-6.186 4.723l-2.876 6.322-3.513-8.585V3.4h.554c.383 0 .693-.325.693-.726s-.3-.726-.693-.726h-4.156c-.383 0-.693.325-.693.726s.3.726.693.726h2.217v3.95l-2.935 4.016c-1.17-.698-2.528-1.097-3.976-1.097C3.564 10.278 0 13.96 0 18.5s3.564 8.223 7.96 8.223c4.064 0 7.417-3.145 7.9-7.207h2.995a1.48 1.48 0 0 0 .653.65c.725.362 1.593.04 1.94-.72l3.823-8.404c.822-1.806 2.53-2.98 4.428-3.057l.937 2.984c-2.805 1.272-4.764 4.166-4.764 7.532 0 4.54 3.564 8.223 7.962 8.223s7.962-3.68 7.962-8.222-3.565-8.222-7.962-8.222a7.74 7.74 0 0 0-1.912.239l-1.358-4.283-1.5-5.664A.7.7 0 0 0 28.38 0h-2.632zm5.378 12.522l2.066 6.58c.15.368.558.538.9.38a.74.74 0 0 0 .363-.953l-2.05-6.46c.456-.106.93-.162 1.42-.162 3.565 0 6.41 2.978 6.41 6.594s-2.846 6.594-6.41 6.594-6.41-2.978-6.41-6.594c0-2.63 1.506-4.924 3.7-5.978zM7.96 11.907a6.24 6.24 0 0 1 3.021.775l-4.13 5.65c-.17.217-.204.517-.1.77a.69.69 0 0 0 .626.415h6.907c-.474 3.14-3.1 5.578-6.335 5.578-3.565 0-6.41-2.978-6.41-6.594s2.845-6.594 6.41-6.594zm.9 6.158h5.507A6.66 6.66 0 0 0 12.14 13.5L8.85 18.065zm4.225-5.866c1.64 1.42 2.717 3.513 2.836 5.866h2.944l.122-.267-3.6-8.795-2.302 3.196z" fill="#333f48"/><path d="M50.17 9.27c-.3 0-.618.06-.905.18a2.37 2.37 0 0 0-.766.514c-.22.22-.392.482-.5.77a2.57 2.57 0 0 0-.176.906 2.41 2.41 0 0 0 .715 1.665c.445.44 1.047.7 1.674.694a2.36 2.36 0 0 0 1.668-.711 2.34 2.34 0 0 0 .504-.775 2.36 2.36 0 0 0 .168-.909c.006-.3-.05-.62-.17-.9s-.293-.55-.515-.768a2.29 2.29 0 0 0-1.688-.657zm17.984.004a2.34 2.34 0 0 0-2.382 2.34c.004.627.254 1.228.695 1.674a2.4 2.4 0 0 0 1.667.712 2.36 2.36 0 0 0 1.669-.693 2.33 2.33 0 0 0 .68-1.675 2.24 2.24 0 0 0-.15-.9 2.27 2.27 0 0 0-2.177-1.45zM72.1 7.748c.024-.658-.2-1.007-.856-1.067-1.55-.14-2.74-.905-3.695-2.097-.213-.265-.508-.465-.72-.733-1.682-2.144-4.17-2.616-6.588-2.738-4.35-.213-8.716-.058-13.076-.08-.82-.006-1.177.27-1.166 1.142l.017 9.062c0 .934.336 1.323 1.394 1.604-.338-1.443-.2-2.75 1.12-3.654 1.03-.697 2.112-.703 3.177-.088 1.602.934 1.538 2.4 1.12 4.03h12.52c-.213-3.048.56-4.457 2.598-4.485.748 0 1.588.338 2.2.774 1.175.826 1.056 2.138.802 3.444 1-.48 1.12-.624 1.132-1.476.002-1.2-.037-2.424.008-3.637zm-9.97-1.66V3.362c2.712-.977 3.818 1.153 5.446 2.725H62.13z" fill="#4b4b4b"/></svg>