<svg xmlns="http://www.w3.org/2000/svg" width="19" height="28" fill="#000" xmlns:v="https://vecta.io/nano"><path d="M3.308 22.573h1.334l.175 1.476c.2 1.438 1.062 2.197 2.468 2.446 3.404.606 5.556-2.3 5.725-4.75.144-1.977.723-3.788 2.076-5.315 1.8-2.037 2.565-4.52 2.565-7.225 0-2.117-.554-4.094-1.964-5.7-1.253-1.435-2.912-2.047-4.757-2.114-2.458-.1-4.776.367-6.783 1.958-1.225.99-2.105 2.366-2.513 3.91a7.67 7.67 0 0 0 .245 4.676l.122.32-1.165.654a6.83 6.83 0 0 1-.792-2.755C-.16 8.08.348 6 1.482 4.263S4.306 1.246 6.264.637c2.192-.673 4.456-.886 6.708-.28 3.188.858 4.958 3.15 5.678 6.294.905 3.925.044 7.512-2.5 10.6-1.143 1.393-1.638 2.95-1.816 4.7-.27 2.586-1.566 4.505-3.886 5.557-.82.368-1.713.536-2.607.5a5.69 5.69 0 0 1-2.547-.749c-1.206-.638-1.632-1.868-1.854-3.16-.085-.488-.094-.98-.14-1.508zm11.2-8.593l-1.106-.545.626-2.525c.118-.563.12-1.144.01-1.7a4.25 4.25 0 0 0-.659-1.571 4.17 4.17 0 0 0-1.218-1.175 4.09 4.09 0 0 0-1.577-.585c-3-.552-5.324 1.2-5.718 4.27l-.1.772h-1.28c-.088-2.707 1.36-5.1 3.627-6.04 2.368-.98 5.3-.383 6.87 1.396 1.788 2.02 1.98 4.834.514 7.713zM5.9 12.9c.27-1.106 1.38-1.795 2.66-1.68 1.4.127 2.565.68 3.057 2.098.54 1.556.297 3.042-.94 4.177a8.47 8.47 0 0 0-2.007 2.828 6.18 6.18 0 0 1-.983 1.54c-.842.957-1.98.737-2.527-.4-.582-1.218-.495-2.5-.357-3.852l1.253.185c.047 1.125-.254 2.27.504 3.43a8.73 8.73 0 0 0 .846-1.275 11.11 11.11 0 0 1 2.449-3.552c1.096-1.062.918-2.803-.232-3.507a2.07 2.07 0 0 0-1.208-.312c-.424.023-.832.178-1.168.442a.52.52 0 0 1-.348.086c-.32-.026-.664-.127-.996-.198z"/></svg>