<svg xmlns="http://www.w3.org/2000/svg" width="27" height="27" fill="none" xmlns:v="https://vecta.io/nano"><g clip-path="url(#A)" fill="#000"><path d="M13.523 0c1.62-.128 3.076.824 4.226 2.316.865 1.136.563 2.36 0 3.486-2.437 5.1-6.476 9.266-11.5 11.828-3.12 1.625-6.584-1.108-6.232-4.75.282-2.935 1.92-5.16 3.812-7.24.03-.034.065-.1.1-.094.563-.03 1.378.162 1.648-.14.313-.347-.056-1.267.23-1.705C7.043 1.904 10.908.034 13.523 0zM7.606 4.754c3.15 3.157 3.172 3.18 1.817 4.5-.408.418-1.2 1.03-1.445.9-1.158-.7-2.186-1.605-3.336-2.5-1.262 1.34-2.414 3-2.654 5.1-.085.736.282 1.526.465 2.293.65-.173 1.38-.207 1.94-.54A28.26 28.26 0 0 0 14.596 4.146a10.2 10.2 0 0 0 .617-1.634C12.796 1.35 9.97 2.225 7.606 4.754zM16.264 3.4c-2.834 5.46-7.25 9.92-12.658 12.785C7.513 16.218 15.858 7.88 16.264 3.4zM9.356 8.058C7.694 5.833 6.94 5.617 6.054 7.024l1.758 2.2 1.544-1.156zm5.882 15.186l-1.087-1.108a9.9 9.9 0 0 1 1.1-1.014c1.197-.852 2.535-1.54 3.603-2.532s2.282-2 2.316-3.73c0-.264.563-.716.87-.722s.845.395.904.682a2.89 2.89 0 0 1-.189 1.762c-1.442 2.618-3.583 4.775-6.18 6.225a8.59 8.59 0 0 1-1.327.438zm-4.815-4.82L9.395 17.3a12.43 12.43 0 0 1 1.144-.972c1-.665 2.135-1.136 2.978-1.958 1.25-1.205 2.792-2.273 2.904-4.32 0-.26.594-.68.902-.668s.845.423.876.713a3.07 3.07 0 0 1-.237 1.764c-1.424 2.567-3.526 4.686-6.07 6.123-.34.213-.792.253-1.468.455zm2.435 2.42l-1.07-1.137a9.96 9.96 0 0 1 1.127-.932c.468-.284 1.082-.375 1.48-.727 1.83-1.628 4.034-2.97 4.482-5.73.037-.233.538-.546.823-.543s.814.35.817.554c0 .7.045 1.543-.282 2.12-1.394 2.428-3.4 4.44-5.818 5.83-.392.23-.868.32-1.558.565zm11.198 4.174l1.3.35-.828-2.82c-.08-.443.18-.95.282-1.42.417.284 1.065.463 1.2.852a20.22 20.22 0 0 1 .944 3.515c.197 1.07-.363 1.68-1.448 1.46a29.39 29.39 0 0 1-3.764-1.023c-.814-.284-.927-.88-.242-1.503a3.77 3.77 0 0 1 .876-.699c.5-.2 1.032-.364 1.564-.494l.1 1.784zm-5.358-.486c-.14-.13-.766-.47-.74-.753a1.51 1.51 0 0 1 .3-.668 1.67 1.67 0 0 1 .555-.468 6.19 6.19 0 0 0 2.337-1.488 6.26 6.26 0 0 0 1.463-2.365c.146-.384.665-.62 1.014-.926.282.42.803.832.814 1.26.04 1.813-3.6 5.398-5.733 5.4z"/></g><defs><clipPath id="A"><path fill="#fff" d="M0 0h27v27H0z"/></clipPath></defs></svg>