<svg xmlns="http://www.w3.org/2000/svg" width="33" height="38" fill="none" xmlns:v="https://vecta.io/nano"><g clip-path="url(#A)" fill="#000"><path d="M9.63 33.888c-4.034-.013-7.537-3.06-7.96-7.042-.377-3.536 1-6.297 4.027-8.106l11.818-6.848c2.773-1.57 5.603-1.52 8.322.133 4.4 2.665 5.076 9.012 1.4 12.593a9.47 9.47 0 0 1-1.784 1.359L13.798 32.74c-1.288.743-2.672 1.148-4.168 1.148zm.682-2.03c.683-.012 1.687-.4 2.64-.946l6.48-3.757c1.845-1.074 3.723-2.088 5.515-3.25 2.715-1.765 3.487-5.403 1.8-8.157-1.784-2.906-5.26-3.805-8.217-2.127L6.67 20.48C4.146 21.964 3 24.853 3.836 27.543c.874 2.852 3.477 4.42 6.475 4.316zM20.603 38a3.53 3.53 0 0 1-2.462-1.048 3.56 3.56 0 0 1-1.023-2.486 3.55 3.55 0 0 1 .594-1.966 3.5 3.5 0 0 1 1.58-1.3 3.49 3.49 0 0 1 2.032-.197c.682.14 1.307.478 1.797.975a3.54 3.54 0 0 1 .955 1.816 3.63 3.63 0 0 1-.2 2.044 3.53 3.53 0 0 1-1.304 1.581c-.58.385-1.262.588-1.957.583zm3.025-3.547c0-1.63-1.342-3.015-2.928-3.022-1.714-.008-3.074 1.334-3.074 3.033a3.02 3.02 0 0 0 3.025 3.045c1.638.01 2.978-1.366 2.978-3.056h-.001zM13.55 10.896c-1.75.005-3.212-1.47-3.202-3.225a3.27 3.27 0 0 1 .953-2.272 3.23 3.23 0 0 1 2.26-.95c1.707-.02 3.186 1.452 3.206 3.2.022 1.77-1.442 3.25-3.218 3.255zm2.693-3.218a2.71 2.71 0 0 0-.453-1.498 2.69 2.69 0 0 0-1.202-.994 2.67 2.67 0 0 0-1.548-.156 2.68 2.68 0 0 0-1.374.734 2.71 2.71 0 0 0-.739 1.378 2.72 2.72 0 0 0 .144 1.559 2.7 2.7 0 0 0 .979 1.217c.438.3.955.462 1.485.466a2.67 2.67 0 0 0 1.036-.199 2.69 2.69 0 0 0 .88-.585c.252-.25.452-.55.588-.88a2.71 2.71 0 0 0 .205-1.04zm.754-5.115a2.6 2.6 0 0 1 .456-1.429c.3-.42.695-.745 1.167-.934a2.55 2.55 0 0 1 1.486-.125c.496.107.95.36 1.305.726a2.58 2.58 0 0 1 .685 1.333 2.61 2.61 0 0 1-.165 1.492 2.59 2.59 0 0 1-.96 1.15 2.56 2.56 0 0 1-1.431.42 2.52 2.52 0 0 1-.986-.21 2.57 2.57 0 0 1-.831-.574 2.59 2.59 0 0 1-.547-.852 2.6 2.6 0 0 1-.18-.998zM19.586.5c-.4-.002-.8.12-1.153.347s-.6.553-.768.933a2.1 2.1 0 0 0-.123 1.205 2.09 2.09 0 0 0 .563 1.071 2.07 2.07 0 0 0 1.059.576 2.06 2.06 0 0 0 1.198-.114 2.08 2.08 0 0 0 .934-.765 2.09 2.09 0 0 0 .354-1.158 2.1 2.1 0 0 0-.602-1.477 2.07 2.07 0 0 0-1.462-.619zM4.597 17.468a2.33 2.33 0 0 1-.39 1.286 2.3 2.3 0 0 1-1.035.85c-.42.174-.884.218-1.33.127a2.29 2.29 0 0 1-1.176-.64 2.32 2.32 0 0 1-.624-1.189 2.33 2.33 0 0 1 .138-1.338 2.31 2.31 0 0 1 .853-1.035 2.29 2.29 0 0 1 1.281-.382c.607.007 1.187.254 1.615.688s.668 1.02.67 1.632zm-2.314-1.8a1.79 1.79 0 0 0-.994.313 1.81 1.81 0 0 0-.656.814c-.134.33-.17.694-.1 1.044s.24.67.492.924a1.8 1.8 0 0 0 .918.496 1.79 1.79 0 0 0 1.037-.098c.328-.135.6-.364.8-.66a1.82 1.82 0 0 0 .311-1 1.83 1.83 0 0 0-.135-.703 1.82 1.82 0 0 0-.394-.596c-.17-.17-.37-.305-.592-.397s-.46-.138-.698-.136zm28.312 16.245a2.32 2.32 0 0 1-.387 1.285c-.253.38-.612.676-1.032.85a2.28 2.28 0 0 1-1.328.129 2.29 2.29 0 0 1-1.175-.636 2.32 2.32 0 0 1-.625-1.187c-.087-.45-.04-.914.137-1.336a2.31 2.31 0 0 1 .852-1.033c.38-.25.825-.385 1.28-.382a2.25 2.25 0 0 1 .878.172c.278.116.53.286.743.5a2.28 2.28 0 0 1 .659 1.635zM28.26 33.72a1.79 1.79 0 0 0 1.003-.288c.3-.194.534-.472.676-.8a1.82 1.82 0 0 0 .121-1.043c-.063-.352-.228-.677-.475-.935a1.8 1.8 0 0 0-.9-.512c-.337-.076-.7-.048-1.04.083a1.8 1.8 0 0 0-.819.65 1.82 1.82 0 0 0-.323.999c-.04.974.764 1.813 1.768 1.847zM33 24.128a2.12 2.12 0 0 1-.163.823 2.11 2.11 0 0 1-.469.694 2.09 2.09 0 0 1-.701.454 2.08 2.08 0 0 1-.822.143c-1.136-.017-2.052-.984-2.045-2.156.01-.565.24-1.103.644-1.495a2.11 2.11 0 0 1 1.506-.6c1.147.013 2.054.957 2.05 2.136zm-2.094 1.606a1.63 1.63 0 0 0 1.61-1.608c-.007-.9-.728-1.628-1.594-1.63a1.79 1.79 0 0 0-.626.1c-.2.068-.38.196-.535.346a1.62 1.62 0 0 0-.36.527 1.63 1.63 0 0 0-.007 1.255 1.62 1.62 0 0 0 .355.531 1.6 1.6 0 0 0 .53.35c.197.08.4.12.625.117zm-22.874-14a2.1 2.1 0 0 1 1.166.357c.346.232.614.562.774.948a2.13 2.13 0 0 1 .121 1.221 2.12 2.12 0 0 1-.571 1.084 2.1 2.1 0 0 1-1.073.583 2.09 2.09 0 0 1-1.214-.114c-.385-.158-.714-.426-.947-.772a2.13 2.13 0 0 1-.363-1.171c-.012-1.17.92-2.115 2.107-2.136zm-1.582 2.12a1.63 1.63 0 0 0 .46 1.142 1.6 1.6 0 0 0 1.126.484c.872 0 1.6-.744 1.608-1.614a1.62 1.62 0 0 0-.109-.627 1.61 1.61 0 0 0-.342-.535c-.148-.154-.325-.276-.52-.36a1.59 1.59 0 0 0-1.239-.005 1.6 1.6 0 0 0-.524.356 1.61 1.61 0 0 0-.346.532 1.62 1.62 0 0 0-.114.626zM8.1 8.756a2.01 2.01 0 0 1-.592 1.411 1.98 1.98 0 0 1-2.812-.019 2.01 2.01 0 0 1-.573-1.419c.008-1.136.9-1.993 2.04-1.984 1.082.01 1.938.897 1.935 2zM4.6 8.75c0 .78.698 1.494 1.48 1.507.804.014 1.504-.677 1.52-1.5a1.53 1.53 0 0 0-1.493-1.523A1.55 1.55 0 0 0 4.61 8.75H4.6zm12.26 13.017c.027 1.76-1.408 3.205-3.198 3.225-1.717.02-3.157-1.413-3.18-3.164-.023-1.803 1.362-3.25 3.137-3.28s3.215 1.4 3.242 3.218zM13.7 19.06a2.68 2.68 0 0 0-1.045.187 2.69 2.69 0 0 0-.892.578 2.71 2.71 0 0 0-.601.88 2.73 2.73 0 0 0-.217 1.046c-.003.36.066.716.2 1.05a2.68 2.68 0 0 0 .588.89 2.69 2.69 0 0 0 .884.592 2.68 2.68 0 0 0 1.042.202c.72.003 1.4-.28 1.92-.8a2.74 2.74 0 0 0 .806-1.924 2.71 2.71 0 0 0-2.686-2.7zm8 .4a2.29 2.29 0 0 1 1.275.386 2.31 2.31 0 0 1 .849 1.033 2.33 2.33 0 0 1 .138 1.333 2.32 2.32 0 0 1-.619 1.187c-.318.325-.725.55-1.17.642s-.906.053-1.327-.117a2.31 2.31 0 0 1-1.04-.838c-.257-.376-.397-.82-.404-1.277a2.33 2.33 0 0 1 .165-.895 2.32 2.32 0 0 1 .495-.762 2.3 2.3 0 0 1 .749-.511 2.29 2.29 0 0 1 .887-.181zm1.814 2.3a1.82 1.82 0 0 0-.311-1 1.83 1.83 0 0 0-.8-.66 1.79 1.79 0 0 0-1.037-.098 1.8 1.8 0 0 0-.918.496c-.25.253-.422.574-.5.925s-.035.713.1 1.044a1.81 1.81 0 0 0 .657.814c.294.2.64.3.994.312a1.8 1.8 0 0 0 .697-.137c.22-.092.422-.227.6-.397a1.82 1.82 0 0 0 .393-.595 1.83 1.83 0 0 0 .135-.702z"/></g><defs><clipPath id="A"><path fill="#fff" d="M0 0h33v38H0z"/></clipPath></defs></svg>