<svg xmlns="http://www.w3.org/2000/svg" width="170" height="78" fill="none" xmlns:v="https://vecta.io/nano"><g fill="#333f48"><path d="M120.197 20.46l-14.065 11.508V8.95l14.065 11.508z"/><path d="M108.69 15.344v10.23H94.623v-10.23z"/><path fill-rule="evenodd" d="M169.328 9.725L149.877 0l-19.45 9.725h38.902zm-.015 0h-38.887V32.42h38.902l-.015-22.693z"/></g><path d="M157.675 29.745c-1.63.532-3.098.492-4.412-.56s-1.855-2.423-1.603-4.1a.65.65 0 0 0-.011-.347c-.034-.113-.1-.214-.187-.293l-5.93-5.95a.69.69 0 0 0-.313-.201.7.7 0 0 0-.373-.01c-.598.104-1.213.078-1.8-.078a4.2 4.2 0 0 1-1.603-.824c-.468-.388-.847-.872-1.11-1.42s-.404-1.146-.414-1.754c0-.617.127-1.236.195-1.854l.134-.033.33.293 1.965 1.974c.196.202.367.218.642.172.18-.03.554-.142.83-.196a1.25 1.25 0 0 0 .425-.277 1.26 1.26 0 0 0 .279-.423c.343-.883.133-1.51-.606-2.09-.6-.484-1.126-1.077-1.744-1.684 1.257-.45 2.4-.475 3.52 0 1.876.804 2.854 2.64 2.55 4.66-.008.107.005.214.04.316s.09.195.16.276l5.916 5.963a.65.65 0 0 0 .306.2c.12.036.245.037.365.003.885-.157 1.798-.026 2.603.373s1.462 1.047 1.873 1.847c.624 1.176.685 2.71.137 3.757l-.343-.31-1.935-1.945a.61.61 0 0 0-.646-.189c-1.434.322-1.444.317-1.715 1.79-.01.1-.001.2.03.295a.72.72 0 0 0 .143.259l1.93 1.948.374.4zm-9.23-10.838c.712-.393.724-.63.063-1.04-.653.48-.655.497-.063 1.04zm1.384 1.398l.645-.587-.57-.557-.595.592.52.552zm1.372 1.41l.686-.605-.583-.538-.626.58.523.563z" fill="#fff"/><path fill-rule="evenodd" d="M68.175 8.95c-1.013 0-1.834.84-1.834 1.875s.82 1.875 1.834 1.875h5.495l2.674 9.192c-7.062.97-13.26 5.513-16.38 12.204L52.35 50.432l-9.3-22.182V17.762h1.467c1.013 0 1.834-.84 1.834-1.875s-.82-1.875-1.834-1.875H33.5c-1.013 0-1.834.84-1.834 1.875s.82 1.875 1.834 1.875h5.87v10.204l-7.772 10.378c-3.098-1.803-6.693-2.835-10.527-2.835C9.438 35.508 0 45.02 0 56.754S9.438 78 21.08 78c10.76 0 19.638-8.126 20.92-18.62h7.93a3.87 3.87 0 0 0 1.731 1.679c1.92.935 4.22.102 5.134-1.86L66.92 37.483c2.176-4.667 6.7-7.698 11.724-7.9l2.48 7.71C73.698 40.578 68.51 48.056 68.51 56.754 68.51 68.488 77.95 78 89.592 78s21.08-9.512 21.08-21.246-9.438-21.246-21.08-21.246c-1.745 0-3.44.214-5.062.616L80.934 25.06l-3.998-14.636c-.185-.86-.93-1.472-1.79-1.472h-6.97zm14.24 32.356l5.47 17c.4.95 1.478 1.39 2.41.983s1.36-1.51.962-2.462l-5.425-16.693c1.207-.273 2.465-.418 3.76-.418 9.44 0 16.974 7.694 16.974 17.037S99.032 73.79 89.592 73.79s-16.974-7.695-16.974-17.037c0-6.798 3.99-12.724 9.8-15.447zm-61.336-1.6a16.84 16.84 0 0 1 7.998 2.003l-10.93 14.596a1.91 1.91 0 0 0-.238 1.99c.303.654.95 1.072 1.657 1.072h18.288C36.6 67.495 29.62 73.79 21.08 73.79c-9.44 0-16.974-7.695-16.974-17.037S11.64 39.717 21.08 39.717zm2.356 15.912h14.58c-.306-4.693-2.513-8.892-5.874-11.798L23.437 55.63zm11.187-15.157a21.26 21.26 0 0 1 7.509 15.157h7.794l.322-.7-9.53-22.726-6.095 8.26z" fill="#333f48"/></svg>