<svg xmlns="http://www.w3.org/2000/svg" width="61" height="39" fill="none" xmlns:v="https://vecta.io/nano"><path fill-rule="evenodd" d="M37.577 0c-.558 0-1.01.474-1.01 1.06s.453 1.06 1.01 1.06h3.03L42.08 7.31c-3.892.547-7.31 3.114-9.028 6.893l-4.198 9.227-5.127-12.53V4.976h.81c.558 0 1.01-.474 1.01-1.06s-.453-1.06-1.01-1.06H18.47c-.558 0-1.01.474-1.01 1.06s.453 1.06 1.01 1.06h3.235v5.763L17.42 16.6c-1.707-1.018-3.69-1.6-5.802-1.6C5.202 15 0 20.373 0 27s5.202 12 11.62 12c5.93 0 10.824-4.6 11.53-10.518h4.37a2.16 2.16 0 0 0 .954.949c1.058.528 2.325.058 2.83-1.05l5.58-12.265c1.2-2.636 3.693-4.348 6.462-4.462l1.367 4.354c-4.093 1.856-6.952 6.08-6.952 10.993 0 6.627 5.202 12 11.62 12S61 33.627 61 27s-5.202-12-11.62-12c-.962 0-1.896.12-2.8.348l-1.982-6.25L42.405.83c-.102-.485-.513-.83-.987-.83h-3.842zm7.85 18.275l3.015 9.602c.22.537.815.786 1.328.555s.75-.853.53-1.39l-3-9.428c.666-.154 1.36-.236 2.072-.236 5.203 0 9.356 4.346 9.356 9.623s-4.153 9.623-9.356 9.623-9.356-4.346-9.356-9.623c0-3.84 2.2-7.186 5.4-8.725zm-33.807-.898c1.6 0 3.098.4 4.408 1.132l-6.025 8.244a1.1 1.1 0 0 0-.131 1.124c.167.37.523.605.914.605h10.08c-.69 4.585-4.538 8.14-9.245 8.14-5.203 0-9.356-4.346-9.356-9.623s4.153-9.623 9.356-9.623zm1.3 8.988h8.037c-.17-2.65-1.385-5.023-3.238-6.663l-4.8 6.663zm6.166-8.56c2.393 2.074 3.965 5.127 4.14 8.56h4.296l.177-.4-5.252-12.836-3.36 4.665z" fill="#333f48"/></svg>