<svg width="62" height="27" viewBox="0 0 62 27" fill="none" xmlns="http://www.w3.org/2000/svg">
<path d="M12.0322 25.0579C10.6006 24.3302 9.65496 23.3323 9.48127 21.7667C9.30757 20.2012 9.85704 18.9343 11.1274 17.9977C11.2218 17.9405 11.2988 17.8587 11.3504 17.7612C11.402 17.6636 11.4261 17.5539 11.4203 17.4437C11.418 14.8243 11.4226 12.2026 11.4339 9.57862C11.4403 9.46042 11.4145 9.34271 11.3591 9.23811C11.3037 9.13351 11.2208 9.04596 11.1194 8.98488C10.6539 8.65757 10.2648 8.23325 9.979 7.74114C9.69318 7.24903 9.5174 6.70082 9.46378 6.13426C9.41015 5.5677 9.47995 4.99625 9.66837 4.45926C9.85679 3.92226 10.1594 3.43248 10.5552 3.02364C10.9639 2.61495 11.4577 2.28913 11.9119 1.92584L12.022 1.99282C12.0299 2.13019 12.0469 2.26756 12.0469 2.40606C12.0504 3.27453 12.0594 4.14414 12.0413 5.01375C12.0367 5.27713 12.14 5.40087 12.3523 5.55186C12.4908 5.65176 12.8132 5.82432 13.0324 5.97304C13.1787 6.03694 13.3367 6.07011 13.4964 6.0705C13.6562 6.07089 13.8143 6.03849 13.961 5.97531C14.7727 5.6177 15.0497 5.0637 14.943 4.19182C14.859 3.46752 14.9101 2.73301 14.9033 1.92244C16.034 2.45601 16.8071 3.19733 17.2328 4.25199C17.9423 6.0264 17.3736 7.88935 15.8364 9.02461C15.7602 9.08994 15.6979 9.16994 15.6532 9.25986C15.6086 9.34977 15.5825 9.44775 15.5765 9.54796C15.5549 12.1693 15.5572 14.7894 15.5458 17.4119C15.5365 17.5278 15.5608 17.6439 15.6157 17.7464C15.6707 17.8489 15.754 17.9334 15.8557 17.9897C16.5459 18.4719 17.0633 19.1627 17.332 19.9606C17.6007 20.7585 17.6065 21.6215 17.3486 22.4229C16.983 23.6149 16.0079 24.6719 14.9521 25.0011C14.9441 24.8501 14.9305 24.7093 14.9294 24.5697C14.9282 23.7126 14.9203 22.8577 14.9362 22.0017C14.9452 21.89 14.9213 21.7781 14.8675 21.6799C14.8136 21.5816 14.7321 21.5013 14.6331 21.4489C13.4706 20.7132 13.4672 20.703 12.3137 21.4977C12.2411 21.5563 12.1812 21.6292 12.1377 21.7117C12.0942 21.7943 12.0679 21.8849 12.0606 21.9779C12.0367 22.8327 12.0504 23.6887 12.0492 24.5459C12.0435 24.6946 12.0367 24.8353 12.0322 25.0579ZM13.0971 11.7731C13.8282 11.9842 13.9928 11.8355 13.8282 11.126C13.0778 11.0113 13.0653 11.0215 13.0971 11.7731ZM13.088 13.6145L13.9031 13.6531L13.894 12.9061C13.6147 12.9061 13.3831 12.9106 13.1084 12.9038L13.088 13.6145ZM13.0619 15.457L13.9167 15.5103L13.8872 14.7679L13.088 14.7384L13.0619 15.457Z" fill="white"/>
<path d="M34 10.3256L43.7971 20L60 4" stroke="white" stroke-width="5"/>
</svg>
