<svg xmlns="http://www.w3.org/2000/svg" width="26" height="27" fill="none" xmlns:v="https://vecta.io/nano"><path d="M22.75 25.61c-2.09.68-3.97.63-5.653-.716s-2.377-3.104-2.054-5.24c.036-.147.03-.3-.013-.445s-.127-.274-.24-.375L7.193 11.2a.89.89 0 0 0-.879-.27 5.39 5.39 0 0 1-4.36-1.156A5.39 5.39 0 0 1 .531 7.965 5.39 5.39 0 0 1 0 5.718c0-.79.163-1.584.25-2.375l.17-.042.424.376 2.518 2.53c.25.26.47.28.822.22.23-.037.7-.182 1.066-.25.203-.08.388-.2.543-.355s.277-.34.357-.542c.44-1.13.17-1.936-.776-2.676-.782-.62-1.443-1.38-2.234-2.157 1.6-.578 3.076-.61 4.508 0 2.404 1.03 3.656 3.383 3.267 5.97-.01.137.007.275.05.405s.113.25.204.353l7.58 7.64c.103.12.24.2.39.256a.83.83 0 0 0 .468.003c1.134-.2 2.303-.034 3.336.48s1.873 1.342 2.4 2.367c.8 1.507.88 3.473.176 4.814l-.44-.395-2.478-2.49c-.1-.117-.23-.202-.378-.245s-.304-.042-.45.003c-1.837.413-1.85.406-2.197 2.29a.94.94 0 0 0 .22.71l2.474 2.496.48.512zM10.926 11.724c.912-.503.927-.806.08-1.333-.837.615-.84.637-.08 1.333zm1.773 1.79l.826-.75-.732-.714-.762.758.668.707zm1.758 1.808l.88-.776-.747-.7-.802.745.67.72z" fill="#333f48"/></svg>