<svg xmlns="http://www.w3.org/2000/svg" width="28" height="27" fill="#000" xmlns:v="https://vecta.io/nano"><path d="M20.742 10.197a38.09 38.09 0 0 1-8.158-1.316c-2.305-.592-4.61-1.08-7.016-.92l-3.845.227C.33 8.223.001 7.894.001 6.5-.02 4.635.514 3.74 2.305 3.158c1.174-.344 2.376-.585 3.592-.72l5.86-.7c1.36-.243 2.653-.83 3.993-1.214C18.217-.2 20.69-.223 23.096.73c1.686.658 2.99 1.723 3.622 3.503.886 2.496-.33 4.897-2.914 5.59-.488.134-.986.234-1.488.3-.54.072-1.086.072-1.574.072z"/><path d="M13.713 23.396V9.608a.99.99 0 0 1 .263 0l2.453.756a.45.45 0 0 1 .217.329c.023.592 0 12.07 0 12.7l-2.933.003z"/><path d="M17.2 17.712h-4.023V27H17.2v-9.288zm-5.36 5.106l.72-4.288a.83.83 0 0 0-.684-.958h-.003c-.454-.076-.883.23-.96.683l-.72 4.288a.83.83 0 0 0 .684.958h.003c.454.076.883-.23.96-.683z"/></svg>