<svg xmlns="http://www.w3.org/2000/svg" width="36" height="36" fill="none" xmlns:v="https://vecta.io/nano"><rect x="1.5" y="1.5" width="33" height="33" rx="3.5" fill="#333f48" stroke="#333f48" stroke-width="3"/><path fill-rule="evenodd" d="M20.656 11.67a.35.35 0 1 0 .146.691l1.02-.216.855 1.588c-1.273.456-2.247 1.537-2.565 2.892l-.777 3.308-2.592-3.72-.41-1.932.272-.058a.35.35 0 0 0 .267-.417.35.35 0 0 0-.414-.273l-2.043.433a.35.35 0 0 0-.267.417.35.35 0 0 0 .414.273l1.1-.23.398 1.88-1.038 2.217a3.98 3.98 0 0 0-2.065-.108 4 4 0 0 0 1.657 7.826 4 4 0 0 0 3.157-4.252l1.472-.312a.73.73 0 0 0 .387.241c.393.097.787-.147.88-.545l1.032-4.397c.222-.945.943-1.68 1.868-1.916l.76 1.322a4 4 0 0 0 3.16 7.165 4 4 0 0 0-1.657-7.826 4.01 4.01 0 0 0-.916.312l-1.1-1.897-1.313-2.54a.35.35 0 0 0-.39-.201l-1.294.274zm3.906 5.4l1.68 2.916c.11.16.33.198.486.086s.194-.332.082-.49l-1.658-2.86a3.25 3.25 0 0 1 .681-.225c1.752-.37 3.45.75 3.816 2.47s-.734 3.434-2.486 3.805-3.45-.75-3.815-2.47a3.21 3.21 0 0 1 1.217-3.23zM13.113 19.19c.538-.114 1.072-.087 1.563.055l-1.46 3.118c-.062.12-.048.267.033.376s.218.16.35.132l3.395-.72c.084 1.544-.966 2.978-2.552 3.314-1.752.37-3.45-.75-3.815-2.47s.734-3.434 2.487-3.805zm1.058 2.838l2.707-.573c-.24-.852-.813-1.54-1.55-1.942l-1.156 2.515zm1.486-3.232a3.99 3.99 0 0 1 1.985 2.497l1.447-.306.033-.14-2.655-3.81-.81 1.76z" fill="#f5f5f5"/><path stroke="#f5f5f5" stroke-width="2" d="M4 9h28v19H4z"/></svg>