<svg xmlns="http://www.w3.org/2000/svg" width="36" height="36" fill="none" xmlns:v="https://vecta.io/nano"><rect width="36" height="36" rx="5" fill="#00aa50"/><path d="M29.5 28.5H5v-15L17.5 8l12 5.5v15z" stroke="#f5f5f5"/><path d="M23.537 26.086c-1.132.37-2.15.342-3.062-.388s-1.288-1.682-1.113-2.84a.45.45 0 0 0-.007-.241c-.024-.078-.07-.148-.13-.203l-4.116-4.13c-.06-.065-.134-.113-.218-.14s-.173-.028-.258-.007a2.92 2.92 0 0 1-2.362-.626 2.92 2.92 0 0 1-1.058-2.203c0-.428.088-.858.136-1.287L11.44 14l.23.204 1.364 1.37c.136.14.255.15.445.12.125-.02.384-.1.577-.136.1-.043.2-.11.294-.192s.15-.183.194-.293c.238-.613.093-1.05-.42-1.45-.424-.336-.782-.747-1.2-1.17.872-.313 1.666-.33 2.442 0 1.302.558 1.98 1.833 1.77 3.234-.006.074.004.15.027.22s.06.136.11.19l4.106 4.138a.45.45 0 0 0 .465.14 2.92 2.92 0 0 1 3.106 1.541c.433.817.476 1.882.095 2.608l-.238-.214-1.343-1.35c-.054-.063-.125-.11-.205-.133s-.165-.023-.244.002c-.995.224-1.002.22-1.2 1.24a.51.51 0 0 0 .119.384l1.34 1.352.26.277zm-6.406-7.522c.494-.273.502-.437.044-.722-.453.333-.455.345-.044.722zm.96.97l.448-.407-.396-.387-.413.41.362.383zm.952.98l.476-.42-.405-.374-.434.404.363.4z" fill="#f5f5f5"/></svg>