<svg xmlns="http://www.w3.org/2000/svg" xmlns:v="https://vecta.io/nano" width="70" height="46" fill="none"><rect id="backgroundrect" width="100%" height="100%" x="0" y="0" fill="none" stroke="none"/><defs><filter id="A" x="0" y="0" width="69.61399841308594" height="45.00299835205078" filterUnits="userSpaceOnUse" color-interpolation-filters="sRGB"><feFlood flood-opacity="0" result="A"/><feColorMatrix in="SourceAlpha" values="0 0 0 0 0 0 0 0 0 0 0 0 0 0 0 0 0 0 127 0"/><feOffset dy="2"/><feGaussianBlur stdDeviation="2"/><feColorMatrix values="0 0 0 0 0 0 0 0 0 0 0 0 0 0 0 0 0 0 0.25 0"/><feBlend in2="A"/><feBlend in="SourceGraphic"/></filter></defs><g class="currentLayer" style=""><title>Layer 1</title><g filter="url(#A)" id="svg_1" class="selected" opacity="0.6"><path d="M63.392 8.32l-9.1-2.284-.457-2.412c-.05-.258-.148-.503-.293-.723a2 2 0 0 0-.55-.556c-.218-.148-.464-.25-.723-.304a2.02 2.02 0 0 0-.785-.006 1.09 1.09 0 0 0-.394.158 1.08 1.08 0 0 0-.303.295c-.08.117-.136.25-.165.388a1.07 1.07 0 0 0-.003.421l.393 2.036H6.95a2.96 2.96 0 0 0-2.086.858A2.92 2.92 0 0 0 4 8.263v24.825c-.005.387.068.772.214 1.13a2.92 2.92 0 0 0 .637.961c.275.275.6.493.962.642a2.96 2.96 0 0 0 1.137.224h43.926l-.314 1.66a1.07 1.07 0 0 0 .003.421c.03.14.085.27.165.388a1.08 1.08 0 0 0 .303.295 1.09 1.09 0 0 0 .393.158c.524.098 1.065-.015 1.506-.312a2 2 0 0 0 .845-1.276l.38-2.043 9.237-2.32c.636-.16 1.2-.526 1.602-1.04a2.91 2.91 0 0 0 .62-1.798V11.157c0-.65-.22-1.283-.62-1.797a2.95 2.95 0 0 0-1.6-1.041z" fill="#5BADDC" id="svg_2" opacity="0.6"/><path d="M55.645 9.323h-6.608c-.79 0-1.43.635-1.43 1.42v19.505c0 .784.64 1.42 1.43 1.42h6.608c.79 0 1.43-.635 1.43-1.42V10.74c0-.783-.64-1.42-1.43-1.42z" fill="#010101" id="svg_3" opacity="0.6"/><path d="M10.262 9.323H7.54c-.556 0-1.007.448-1.007 1v20.342c0 .552.45 1 1.007 1h2.722c.556 0 1.007-.448 1.007-1V10.323c0-.552-.45-1-1.007-1z" fill="#010101" id="svg_4" opacity="0.6"/><path d="M14.755 8.128v1.2c0 .227.186.41.414.41h7.844c.23 0 .414-.184.414-.41v-1.2c0-.227-.185-.41-.414-.41H15.17c-.23 0-.414.184-.414.41z" fill="#010101" id="svg_5" opacity="0.6"/><path d="M24.935 8.128v1.2c0 .227.186.41.414.41h7.844c.23 0 .414-.184.414-.41v-1.2c0-.227-.186-.41-.414-.41H25.35c-.23 0-.414.184-.414.41z" fill="#010101" id="svg_6" opacity="0.6"/><path d="M35.214 8.128v1.2c0 .227.186.41.414.41h7.844c.23 0 .414-.184.414-.41v-1.2c0-.227-.185-.41-.414-.41H35.63c-.23 0-.414.184-.414.41z" fill="#010101" id="svg_7" opacity="0.6"/><path d="M14.762 31.612v1.2c0 .227.185.41.414.41h7.844c.23 0 .414-.184.414-.41v-1.2c0-.227-.186-.41-.414-.41h-7.844c-.23 0-.414.184-.414.41z" fill="#010101" id="svg_8" opacity="0.6"/><path d="M24.942 31.612v1.2c0 .227.185.41.414.41H33.2c.23 0 .414-.184.414-.41v-1.2c0-.227-.185-.41-.414-.41h-7.844c-.23 0-.414.184-.414.41z" fill="#010101" id="svg_9" opacity="0.6"/><path d="M35.22 31.63v1.2c0 .227.185.41.414.41h7.844c.23 0 .414-.184.414-.41v-1.2c0-.227-.185-.41-.414-.41h-7.844c-.23 0-.414.184-.414.41z" fill="#010101" id="svg_10" opacity="0.6"/></g></g></svg>