<svg xmlns="http://www.w3.org/2000/svg" width="125" height="49" fill="none" xmlns:v="https://vecta.io/nano"><path fill-rule="evenodd" d="M37.577 5c-.558 0-1.01.474-1.01 1.06s.453 1.06 1.01 1.06h3.03l1.474 5.192c-3.892.547-7.31 3.114-9.028 6.893l-4.198 9.227-5.127-12.53V9.976h.81c.558 0 1.01-.474 1.01-1.06s-.453-1.06-1.01-1.06H18.47c-.558 0-1.01.474-1.01 1.06s.453 1.06 1.01 1.06h3.235v5.763L17.42 21.6c-1.707-1.018-3.69-1.6-5.802-1.6C5.202 20 0 25.373 0 32s5.202 12 11.62 12c5.93 0 10.824-4.6 11.53-10.518h4.37a2.16 2.16 0 0 0 .954.948c1.058.528 2.325.058 2.83-1.05l5.58-12.265c1.2-2.636 3.693-4.348 6.462-4.462l1.367 4.354c-4.093 1.856-6.952 6.08-6.952 10.993 0 6.627 5.202 12 11.62 12S61 38.627 61 32s-5.202-12-11.62-12c-.962 0-1.896.12-2.8.348l-1.982-6.25-2.203-8.267c-.102-.486-.513-.83-.987-.83h-3.842zm7.85 18.275l3.015 9.602c.22.537.815.786 1.328.555s.75-.853.53-1.39l-3-9.428c.666-.154 1.36-.236 2.072-.236 5.203 0 9.356 4.346 9.356 9.623s-4.153 9.623-9.356 9.623-9.356-4.346-9.356-9.623c0-3.84 2.2-7.186 5.4-8.725zm-33.807-.898c1.6 0 3.098.4 4.408 1.132l-6.025 8.244a1.1 1.1 0 0 0-.131 1.124c.167.37.523.605.914.605h10.08c-.69 4.584-4.538 8.14-9.245 8.14-5.203 0-9.356-4.346-9.356-9.623s4.153-9.623 9.356-9.623zm1.3 8.988h8.037c-.17-2.65-1.385-5.023-3.238-6.663l-4.8 6.663zm6.166-8.56c2.393 2.074 3.965 5.127 4.14 8.56h4.296l.177-.4-5.252-12.836-3.36 4.665z" fill="#333f48"/><path d="M91.248 36.534c-1.15-1.8-1.563-3.583-.706-5.496s2.34-2.996 4.43-3.213a.81.81 0 0 0 .71-.438l5.32-9.013a.87.87 0 0 0 .04-.893c-.313-.69-.473-1.44-.47-2.196a5.25 5.25 0 0 1 1.857-3.974 5.24 5.24 0 0 1 1.985-1.049c.745-.193 1.53-.234 2.297-.344l.08.15-.25.49-1.765 2.987c-.183.3-.148.51-.006.827.09.208.345.623.496.942a1.54 1.54 0 0 0 .466.425c.183.108.386.178.597.204 1.173.137 1.864-.31 2.33-1.384.392-.887.946-1.696 1.485-2.63.937 1.375 1.324 2.746 1.1 4.243-.383 2.514-2.292 4.267-4.82 4.533-.132.024-.257.073-.37.146s-.208.168-.282.28l-5.34 9c-.09.127-.14.276-.146.43a.81.81 0 0 0 .111.441c.467 1.02.594 2.16.364 3.256a5.23 5.23 0 0 1-1.641 2.836c-1.223 1.12-3.055 1.675-4.488 1.34l.265-.5 1.74-2.94a.76.76 0 0 0 .138-.416c.004-.15-.035-.296-.113-.423-.837-1.628-.834-1.642-2.693-1.508-.123.018-.24.06-.346.127s-.197.15-.268.253l-1.745 2.938-.365.576zm10.182-14.52c.696.735.985.676 1.275-.25-.783-.638-.805-.634-1.275.25zm-1.253 2.106l.91.594.494-.863-.9-.532-.503.8zm-1.272 2.096l.945.638.467-.872-.897-.573-.515.807z" fill="#404040"/><g fill="#333f48"><path d="M91 20.877l-11 8.5v-17l11 8.5z"/><path d="M81 16.377v8H71v-8z"/></g></svg>