<svg xmlns="http://www.w3.org/2000/svg" width="173" height="70" fill="#333f48" xmlns:v="https://vecta.io/nano"><path d="M142.904 45.08l-16.99 6.45 7.305-21.826 9.686 15.377z"/><path d="M133.614 36.576l-3.247 9.7-13.338-4.464 3.247-9.7z"/><path fill-rule="evenodd" d="M68.175 0c-1.013 0-1.834.84-1.834 1.875s.82 1.875 1.834 1.875h5.495l2.674 9.192c-7.062.97-13.26 5.513-16.38 12.204L52.35 41.48l-9.3-22.182V8.81h1.467c1.013 0 1.834-.84 1.834-1.875s-.82-1.875-1.834-1.875H33.5c-1.013 0-1.834.84-1.834 1.875s.82 1.875 1.834 1.875h5.87v10.204l-7.772 10.378c-3.098-1.803-6.693-2.835-10.527-2.835C9.438 26.557 0 36.07 0 47.803S9.438 69.05 21.08 69.05c10.76 0 19.638-8.126 20.92-18.62h7.93a3.87 3.87 0 0 0 1.731 1.679c1.92.935 4.22.102 5.134-1.86L66.92 28.532c2.176-4.667 6.7-7.698 11.724-7.9l2.48 7.71C73.698 31.628 68.51 39.105 68.51 47.803c0 11.734 9.438 21.246 21.08 21.246s21.08-9.512 21.08-21.246-9.438-21.246-21.08-21.246c-1.745 0-3.44.214-5.062.616l-3.596-11.066-3.998-14.636C76.75.612 76.006 0 75.145 0h-6.97zm14.24 32.356l5.47 17c.4.95 1.478 1.39 2.41.983s1.36-1.51.962-2.462l-5.425-16.692c1.207-.273 2.465-.418 3.76-.418 9.44 0 16.974 7.694 16.974 17.037S99.032 64.84 89.592 64.84s-16.974-7.695-16.974-17.037c0-6.798 3.99-12.724 9.8-15.447zm-61.336-1.6a16.84 16.84 0 0 1 7.998 2.003l-10.93 14.596a1.91 1.91 0 0 0-.238 1.99c.303.654.95 1.072 1.657 1.072h18.288C36.6 58.545 29.62 64.84 21.08 64.84c-9.44 0-16.974-7.695-16.974-17.037S11.64 30.766 21.08 30.766zm2.356 15.912h14.58c-.306-4.693-2.513-8.892-5.874-11.798L23.437 46.68zM34.623 31.52a21.26 21.26 0 0 1 7.509 15.157h7.794l.322-.7-9.53-22.726-6.095 8.26z"/><rect x="147" y="43.049" width="26" height="26" rx="3"/></svg>