<svg width="125" height="49" viewBox="0 0 125 49" fill="none" xmlns="http://www.w3.org/2000/svg">
<path fill-rule="evenodd" clip-rule="evenodd" d="M37.5766 5C37.0183 5 36.5657 5.47405 36.5657 6.05882C36.5657 6.64359 37.0183 7.11765 37.5766 7.11765H40.6054L42.0794 12.3092C38.1869 12.8563 34.7702 15.4232 33.0511 19.2023L28.8535 28.4292L23.7269 15.9003V9.97647H24.5356C25.094 9.97647 25.5466 9.50242 25.5466 8.91764C25.5466 8.33287 25.094 7.85882 24.5356 7.85882H18.4701C17.9118 7.85882 17.4591 8.33287 17.4591 8.91764C17.4591 9.50242 17.9118 9.97647 18.4701 9.97647H21.705V15.7397L17.4213 21.6011C15.714 20.5827 13.7324 20 11.619 20C5.20202 20 0 25.3726 0 32C0 38.6274 5.20202 44 11.619 44C17.5501 44 22.4432 39.4104 23.1503 33.4823H27.5211C27.7276 33.8825 28.0528 34.2202 28.4749 34.4308C29.5334 34.959 30.8003 34.4885 31.3046 33.3799L36.8841 21.1151C38.0833 18.4791 40.5767 16.7674 43.3463 16.6531L44.7137 21.0074C40.6206 22.8638 37.7619 27.0871 37.7619 32C37.7619 38.6274 42.9639 44 49.381 44C55.798 44 61 38.6274 61 32C61 25.3726 55.798 20 49.381 20C48.4192 20 47.4847 20.1207 46.591 20.3482L44.6089 14.098L42.4054 5.83132C42.3035 5.34582 41.8927 5 41.4181 5H37.5766ZM45.4259 23.2753L48.4413 32.8769C48.6616 33.4143 49.256 33.6628 49.7691 33.4321C50.2821 33.2013 50.5194 32.5787 50.2991 32.0414L47.3092 22.6132C47.9747 22.4588 48.668 22.3772 49.381 22.3772C54.5842 22.3772 58.7368 26.7231 58.7368 32C58.7368 37.2769 54.5842 41.6229 49.381 41.6229C44.1777 41.6229 40.0251 37.2769 40.0251 32C40.0251 28.1603 42.2237 24.8136 45.4259 23.2753ZM11.619 22.3772C13.2176 22.3772 14.7169 22.7873 16.0272 23.5087L10.002 31.753C9.75467 32.0697 9.70362 32.5072 9.87089 32.8769C10.0382 33.2466 10.3938 33.4823 10.7844 33.4823H20.8641C20.1728 38.0668 16.3257 41.6229 11.619 41.6229C6.41581 41.6229 2.26319 37.2769 2.26319 32C2.26319 26.7231 6.41581 22.3772 11.619 22.3772ZM12.9177 31.3647H20.9547C20.786 28.7143 19.5695 26.3421 17.7169 24.7012L12.9177 31.3647ZM19.0836 22.8036C21.4768 24.8778 23.0486 27.9301 23.2221 31.3647H27.5182L27.6955 30.9749L22.4432 18.1389L19.0836 22.8036Z" fill="#333F48"/>
<path d="M91.248 36.5341C90.0967 34.7338 89.685 32.9513 90.5417 31.0384C91.3983 29.1254 92.8831 28.0427 94.9721 27.8252C95.1189 27.8232 95.2625 27.7814 95.3874 27.7043C95.5124 27.6271 95.6141 27.5176 95.6817 27.3872C97.4459 24.381 99.2193 21.3767 101.002 18.3744C101.089 18.2432 101.139 18.0907 101.146 17.9334C101.153 17.776 101.117 17.6197 101.042 17.4812C100.729 16.7918 100.569 16.0426 100.573 15.2854C100.577 14.5281 100.745 13.7807 101.065 13.0946C101.386 12.4085 101.852 11.8001 102.43 11.3112C103.008 10.8223 103.686 10.4646 104.415 10.2626C105.16 10.0694 105.946 10.0288 106.712 9.91832L106.793 10.0694C106.71 10.2324 106.637 10.4014 106.543 10.5603C105.961 11.5588 105.385 12.5625 104.778 13.5477C104.595 13.8468 104.63 14.0584 104.772 14.3748C104.863 14.5828 105.117 14.9982 105.268 15.3166C105.392 15.4886 105.551 15.6332 105.734 15.7414C105.917 15.8496 106.12 15.9191 106.331 15.9456C107.504 16.0828 108.195 15.6342 108.661 14.5621C109.053 13.6746 109.607 12.8665 110.146 11.9321C111.083 13.3068 111.47 14.6786 111.247 16.1755C110.864 18.6895 108.955 20.4429 106.426 20.7083C106.294 20.7319 106.169 20.7816 106.057 20.8546C105.945 20.9276 105.849 21.0224 105.775 21.1333C103.982 24.1257 102.217 27.1328 100.436 30.1333C100.347 30.26 100.296 30.4096 100.29 30.5642C100.284 30.7189 100.323 30.872 100.401 31.0052C100.868 32.0238 100.995 33.1652 100.765 34.2617C100.536 35.3582 99.9601 36.3521 99.1237 37.0974C97.9004 38.2182 96.0688 38.7729 94.6357 38.4384C94.7284 38.2599 94.8077 38.0892 94.9006 37.9282C95.4774 36.9443 96.0449 35.9583 96.6405 34.9872C96.7262 34.8651 96.7743 34.7207 96.7787 34.5716C96.7832 34.4226 96.7439 34.2755 96.6657 34.1485C95.8283 32.5206 95.8313 32.5066 93.9722 32.6402C93.8494 32.6585 93.7316 32.7016 93.626 32.767C93.5204 32.8323 93.4292 32.9185 93.3579 33.0203C92.754 33.9848 92.1923 34.9759 91.6129 35.9583C91.5061 36.1251 91.4033 36.2819 91.248 36.5341ZM101.43 22.0134C102.126 22.7488 102.415 22.6892 102.705 21.7643C101.922 21.1266 101.9 21.1299 101.43 22.0134ZM100.177 24.1196L101.086 24.7136L101.58 23.8506C101.26 23.6622 100.991 23.5112 100.68 23.3181L100.177 24.1196ZM98.9048 26.2155L99.8494 26.8533L100.316 25.9817L99.4194 25.4088L98.9048 26.2155Z" fill="#404040"/>
<path d="M91 20.8769L80 29.377L80 12.377L91 20.8769Z" fill="#333F48"/>
<rect x="81" y="16.377" width="8" height="10" transform="rotate(90 81 16.377)" fill="#333F48"/>
</svg>
