<svg xmlns="http://www.w3.org/2000/svg" viewBox="0 0 58 36" xmlns:v="https://vecta.io/nano"><path d="M0,5c0-2.8,2.2-5,5-5h48c2.8,0,5,2.2,5,5v26c0,2.8-2.2,5-5,5H5c-2.8,0-5-2.2-5-5V5z" fill="#333f48"/><path d="M24 6.8c-.3 0-.4.3-.4.6s.3.4.5.4l1.4-.2 1.1 2.2c-1.7.5-3.1 2-3.5 3.8l-1.2 4.5-3.3-5.3-.5-2.7.4-.1c.3 0 .4-.3.4-.6s-.3-.4-.5-.4l-2.7.5c-.3 0-.4.3-.4.6s.3.4.5.4l1.5-.3.4 2.6-1.5 3a6.26 6.26 0 0 0-2.7-.3c-2.9.5-4.8 3.3-4.3 6.3s3.3 5 6.2 4.5c2.7-.5 4.5-2.9 4.4-5.7l2-.3c.1.2.3.3.5.4.5.2 1.1-.2 1.2-.7l1.6-6c.3-1.3 1.3-2.3 2.6-2.5l1 1.9c-1.7 1.2-2.7 3.3-2.3 5.5.5 3 3.3 5 6.2 4.5s4.8-3.3 4.3-6.3-3.3-5-6.2-4.5c-.4.1-.8.2-1.2.4l-1.4-2.7-1.6-3.6a.55.55 0 0 0-.5-.3l-2 .4zm5 7.7l2.1 4.1c.1.2.4.3.6.1s.3-.4.1-.7l-2.1-4 .9-.3c2.4-.4 4.6 1.2 5 3.6s-1.1 4.7-3.5 5.1-4.6-1.2-5-3.6c-.2-1.7.5-3.4 1.9-4.3zm-15.4 2.2c.7-.1 1.4-.1 2.1.2l-2.1 4.2c-.1.2-.1.4 0 .5.1.2.3.2.5.2l4.6-.8c0 2.1-1.4 4-3.6 4.4-2.4.4-4.6-1.2-5-3.6s1.1-4.7 3.5-5.1zm1.3 4l3.6-.6c-.3-1.2-1-2.2-2-2.8l-1.6 3.4zm2.1-4.4c1.2.8 2.2 2 2.5 3.6l1.9-.3.1-.2-3.4-5.4-1.1 2.3zm21.7-6.1l-.1-1.6-2.5 3 2.9 2.6-.1-1.6c1.9-.2 3.3.4 4.4 1.7-.5-2-1.8-4-4.6-4.1zM44 15h6c1.1 0 2 .9 2 2v8c0 1.1-.9 2-2 2h-6c-1.1 0-2-.9-2-2v-8c0-1.1.9-2 2-2z" fill="#fff"/></svg>