<svg xmlns="http://www.w3.org/2000/svg" width="36" height="37" fill="none" xmlns:v="https://vecta.io/nano"><rect width="36" height="36.59" rx="5" fill="#333f48"/><g fill="#fff"><path d="M19.897 26.2a.49.49 0 0 0-.215-.27c-.102-.06-.223-.082-.34-.06-3.557.684-7.167-1.4-8.3-4.947a7.27 7.27 0 0 1 4.262-9.006l-.298-.925c-1.923.732-3.5 2.16-4.418 4.005s-1.112 3.97-.543 5.96 1.86 3.693 3.618 4.78 3.855 1.474 5.877 1.087a.48.48 0 0 0 .324-.228c.035-.06.056-.125.064-.193a.49.49 0 0 0-.021-.203z"/><path d="M12.696 13.292h1.824c1.215-.906 2.687-1.395 4.2-1.395s2.985.49 4.2 1.395h1.825a.53.53 0 0 0 .375-.157c.1-.1.155-.235.156-.377V7.5c0-.14-.056-.277-.156-.377a.53.53 0 0 0-.375-.157H12.696a.53.53 0 0 0-.375.157c-.1.1-.155.235-.156.377v5.258c0 .14.056.277.156.377a.53.53 0 0 0 .375.157z"/><path d="M18.637 9.782c-2.42.017-4.734.998-6.434 2.73s-2.648 4.07-2.635 6.502a9.2 9.2 0 0 0 4.507 7.898c.06.035.126.054.195.054s.136-.017.195-.05a.39.39 0 0 0 .144-.143c.034-.06.053-.127.053-.196v-2.2c0-.057-.013-.114-.037-.166a.39.39 0 0 0-.104-.134l-.45-.413a6.62 6.62 0 0 1-1.799-3.383 6.64 6.64 0 0 1 .374-3.818 6.6 6.6 0 0 1 2.421-2.965c1.08-.726 2.35-1.114 3.65-1.114s2.57.388 3.65 1.114a6.6 6.6 0 0 1 2.421 2.965 6.64 6.64 0 0 1 .374 3.818 6.62 6.62 0 0 1-1.799 3.383l-.45.413a.39.39 0 0 0-.104.134c-.024.052-.037.108-.037.166v2.2a.39.39 0 0 0 .195.339c.06.034.126.052.195.052s.135-.02.194-.053c2.7-1.6 4.5-4.552 4.5-7.93 0-5.11-4.142-9.244-9.234-9.2z"/><path d="M12.362 20.16l-3.155 2.203a.56.56 0 0 0-.136.78l1.05 1.486c.18.253.53.315.783.138l3.155-2.203a.56.56 0 0 0 .136-.78l-1.05-1.486c-.18-.253-.53-.315-.783-.138zm-5.08-1.826l-3.475-.52 2.096-1.86 1.38 2.38zm.19 6.636a10.82 10.82 0 0 0 .583.929l-1.08.766a12.24 12.24 0 0 1-.656-1.046 11.95 11.95 0 0 1-1.392-7.624l1.3.203a10.61 10.61 0 0 0 1.236 6.772z"/></g></svg>