<svg width="40" height="40" viewBox="0 0 40 40" fill="none" xmlns="http://www.w3.org/2000/svg">
<path d="M17.4019 4.5C18.5566 2.5 21.4434 2.5 22.5981 4.5L34.7224 25.5C35.8771 27.5 34.4338 30 32.1244 30H7.87565C5.56624 30 4.12287 27.5 5.27757 25.5L17.4019 4.5Z" fill="#2654AE"/>
<path d="M26.8428 23.8082L21.8866 18.822C22.3768 17.5617 22.1045 16.0823 21.0697 15.0412C19.9804 13.9453 18.3465 13.7261 17.0393 14.3289L19.3813 16.685L17.7474 18.3288L15.351 15.9727C14.6974 17.2877 14.9697 18.9316 16.059 20.0274C17.0938 21.0685 18.5643 21.3425 19.817 20.8494L24.7732 25.8356C24.9911 26.0548 25.3179 26.0548 25.5357 25.8356L26.7884 24.5754C27.0607 24.3562 27.0607 23.9726 26.8428 23.8082Z" fill="white"/>
</svg>
