<svg xmlns="http://www.w3.org/2000/svg" width="30" height="30" fill="#000" xmlns:v="https://vecta.io/nano"><path d="M14.518 0A14.5 14.5 0 0 1 24.74 24.772 14.5 14.5 0 0 1 0 14.473c-.004-1.905.37-3.793 1.098-5.553a14.46 14.46 0 0 1 3.148-4.705C5.594 2.87 7.198 1.815 8.96 1.08S12.612-.01 14.518 0zm12.45 14.5c-.026-6.9-5.675-12.512-12.492-12.457a12.47 12.47 0 0 0-8.782 21.299 12.47 12.47 0 0 0 21.273-8.842zm-.513.028a11.96 11.96 0 0 1-20.437 8.424A11.96 11.96 0 0 1 3.451 9.9c.9-2.183 2.447-4.05 4.417-5.36s4.285-2.007 6.65-2.002c1.57 0 3.127.3 4.58.913a12.06 12.06 0 0 1 3.878 2.6 11.97 11.97 0 0 1 2.585 3.888 11.92 11.92 0 0 1 .896 4.582zM5.072 8.643l7.4 4.194.055-.077-5.43-6.546-1.484 1.65a8.68 8.68 0 0 0-.542.781zM5.007 20.4l2.1 2.407 5.43-6.562-.06-.077-7.46 4.233zm9.908 5.275l3.068-.5-3-8.104-.068.03v8.585zM12.127 13.7l.03-.065-7.472-4.342c-.46.968-.93 1.852-.968 2.904l8.4 1.503zm-7.514 6.056l7.536-4.384-.032-.068-8.536 1.523 1.032 2.93zm9.475 5.914v-8.6h-.07l-3 8.088 3.062.503zm3.87-21.78l-3.052-.53v8.578l.07.02 2.987-8.07h-.006zm4.107 2.284l-5.584 6.6.068.074 7.443-4.226-1.926-2.44zm-5.517 10l-.068.074 5.584 6.58L24 20.386l-7.452-4.213zM11.04 3.914l2.98 8.065.052-.026V3.35l-3.033.565zm4.72 8.26l.084.064 5.562-6.56-2.68-1.542-2.965 8.036zm5.646 11.15l-5.56-6.546-.087.058 2.968 8.046 2.678-1.558zm3.9-11.12A7.83 7.83 0 0 0 24.31 9.3L17 13.626l.04.07 8.25-1.494zm-8.266 3.1l-.03.074 7.3 4.333c.474-.968.913-1.858.968-2.904l-8.25-1.503zm8.575-2.32l-8.317 1.46v.12l8.304 1.452.013-3.033zm-22.1 3.04l8.22-1.465-.016-.126-8.204-1.452v3.042zm9.643-3.804l.1-.045-2.975-8.065L7.7 5.66l5.44 6.562zm.077 4.6l-.08-.045L7.7 23.35l2.58 1.523 2.945-8.052z"/></svg>