<?xml version="1.0" encoding="utf-8"?>
<!-- Generator: Adobe Illustrator 21.1.0, SVG Export Plug-In . SVG Version: 6.00 Build 0)  -->
<svg version="1.1" id="Layer_1" xmlns="http://www.w3.org/2000/svg" xmlns:xlink="http://www.w3.org/1999/xlink" x="0px" y="0px"
	 viewBox="0 0 24 24" style="enable-background:new 0 0 24 24;" xml:space="preserve" width="24" height="24">
<style type="text/css">
	.st0{display:none;fill:#f5a623e6;}
	.st1{opacity:0.9;fill:#f5a623e6;}
</style>
<path class="st0" d="M21,0h-1c0,1,0,3,0,4c1,0,3,0,4,0V3C24,1.3,22.7,0,21,0z"/>
<path class="st0" d="M20,4c0-1,0-3,0-4h-1c0,2,0,3,0,5c2,0,3,0,5,0V4C23,4,21,4,20,4z"/>
<path class="st1" d="M19,0H3C1.3,0,0,1.3,0,3v18c0,1.7,1.3,3,3,3h18c1.7,0,3-1.3,3-3V5c-2,0-3,0-5,0C19,3,19,2,19,0z"/>
</svg>













