<svg width="24" height="24" viewBox="0 0 24 24" fill="none" xmlns="http://www.w3.org/2000/svg">
<circle cx="12" cy="12" r="11.5" fill="white" stroke="#363333"/>
<path fill-rule="evenodd" clip-rule="evenodd" d="M14.7042 6C14.5303 6 14.3893 6.14586 14.3893 6.32579C14.3893 6.50572 14.5303 6.65158 14.7042 6.65158H15.6476L16.1067 8.24899C14.8943 8.41732 13.8301 9.20714 13.2946 10.3699L11.9872 13.209L10.3904 9.35394V7.53122H10.6422C10.8162 7.53122 10.9571 7.38536 10.9571 7.20543C10.9571 7.0255 10.8162 6.87964 10.6422 6.87964H8.75296C8.57908 6.87964 8.4381 7.0255 8.4381 7.20543C8.4381 7.38536 8.57908 7.53122 8.75296 7.53122H9.76057V9.30452L8.42633 11.108C7.8945 10.7947 7.27731 10.6154 6.61906 10.6154C4.6203 10.6154 3 12.2685 3 14.3077C3 16.3469 4.6203 18 6.61906 18C8.46644 18 9.99051 16.5878 10.2107 14.7638H11.5722C11.6365 14.8869 11.7378 14.9908 11.8692 15.0556C12.1989 15.2182 12.5935 15.0734 12.7506 14.7323L14.4885 10.9585C14.862 10.1474 15.6387 9.62074 16.5013 9.5856L16.9272 10.9253C15.6523 11.4965 14.7619 12.796 14.7619 14.3077C14.7619 16.3469 16.3822 18 18.3809 18C20.3797 18 22 16.3469 22 14.3077C22 12.2685 20.3797 10.6154 18.3809 10.6154C18.0814 10.6154 17.7903 10.6525 17.5119 10.7225L16.8946 8.79938L16.2083 6.25579C16.1765 6.10641 16.0486 6 15.9007 6H14.7042ZM17.1491 11.6232L18.0883 14.5775C18.1569 14.7429 18.3421 14.8193 18.5018 14.7483C18.6616 14.6773 18.7355 14.4857 18.6669 14.3204L17.7357 11.4194C17.943 11.3719 18.1589 11.3468 18.3809 11.3468C20.0016 11.3468 21.2951 12.684 21.2951 14.3077C21.2951 15.9314 20.0016 17.2686 18.3809 17.2686C16.7603 17.2686 15.4668 15.9314 15.4668 14.3077C15.4668 13.1263 16.1517 12.0965 17.1491 11.6232ZM6.61906 11.3468C7.11696 11.3468 7.58395 11.473 7.99208 11.695L6.11538 14.2317C6.03834 14.3291 6.02244 14.4638 6.07454 14.5775C6.12664 14.6913 6.23742 14.7638 6.35908 14.7638H9.49868C9.28333 16.1744 8.08508 17.2686 6.61906 17.2686C4.99837 17.2686 3.70493 15.9314 3.70493 14.3077C3.70493 12.684 4.99837 11.3468 6.61906 11.3468ZM7.02356 14.1122H9.52687C9.47435 13.2967 9.09544 12.5668 8.51838 12.0619L7.02356 14.1122ZM8.94408 11.478C9.68949 12.1163 10.1791 13.0554 10.2331 14.1122H11.5712L11.6265 13.9923L9.99051 10.0427L8.94408 11.478Z" fill="#363333"/>
</svg>
