<svg width="27" height="24" viewBox="0 0 27 24" fill="none" xmlns="http://www.w3.org/2000/svg">
<circle cx="14" cy="12" r="11.5" fill="white" stroke="#363333"/>
<path fill-rule="evenodd" clip-rule="evenodd" d="M16.7042 6C16.5303 6 16.3893 6.14586 16.3893 6.32579C16.3893 6.50572 16.5303 6.65158 16.7042 6.65158H17.6476L18.1067 8.24899C16.8943 8.41732 15.8301 9.20714 15.2946 10.3699L13.9872 13.209L12.3904 9.35394V7.53122H12.6422C12.8162 7.53122 12.9571 7.38536 12.9571 7.20543C12.9571 7.0255 12.8162 6.87964 12.6422 6.87964H10.753C10.5791 6.87964 10.4381 7.0255 10.4381 7.20543C10.4381 7.38536 10.5791 7.53122 10.753 7.53122H11.7606V9.30452L10.4263 11.108C9.8945 10.7947 9.27731 10.6154 8.61906 10.6154C6.6203 10.6154 5 12.2685 5 14.3077C5 16.3469 6.6203 18 8.61906 18C10.4664 18 11.9905 16.5878 12.2107 14.7638H13.5722C13.6365 14.8869 13.7378 14.9908 13.8692 15.0556C14.1989 15.2182 14.5935 15.0734 14.7506 14.7323L16.4885 10.9585C16.862 10.1474 17.6387 9.62074 18.5013 9.5856L18.9272 10.9253C17.6523 11.4965 16.7619 12.796 16.7619 14.3077C16.7619 16.3469 18.3822 18 20.3809 18C22.3797 18 24 16.3469 24 14.3077C24 12.2685 22.3797 10.6154 20.3809 10.6154C20.0814 10.6154 19.7903 10.6525 19.5119 10.7225L18.8946 8.79938L18.2083 6.25579C18.1765 6.10641 18.0486 6 17.9007 6H16.7042ZM19.1491 11.6232L20.0883 14.5775C20.1569 14.7429 20.3421 14.8193 20.5018 14.7483C20.6616 14.6773 20.7355 14.4857 20.6669 14.3204L19.7357 11.4194C19.943 11.3719 20.1589 11.3468 20.3809 11.3468C22.0016 11.3468 23.2951 12.684 23.2951 14.3077C23.2951 15.9314 22.0016 17.2686 20.3809 17.2686C18.7603 17.2686 17.4668 15.9314 17.4668 14.3077C17.4668 13.1263 18.1517 12.0965 19.1491 11.6232ZM8.61906 11.3468C9.11696 11.3468 9.58395 11.473 9.99208 11.695L8.11538 14.2317C8.03834 14.3291 8.02244 14.4638 8.07454 14.5775C8.12664 14.6913 8.23742 14.7638 8.35908 14.7638H11.4987C11.2833 16.1744 10.0851 17.2686 8.61906 17.2686C6.99837 17.2686 5.70493 15.9314 5.70493 14.3077C5.70493 12.684 6.99837 11.3468 8.61906 11.3468ZM9.02356 14.1122H11.5269C11.4744 13.2967 11.0954 12.5668 10.5184 12.0619L9.02356 14.1122ZM10.9441 11.478C11.6895 12.1163 12.1791 13.0554 12.2331 14.1122H13.5712L13.6265 13.9923L11.9905 10.0427L10.9441 11.478Z" fill="#363333"/>
<path d="M0.332611 19.5071L26.3134 4.50708L26.6884 5.1566L0.707611 20.1566L0.332611 19.5071Z" fill="#D32116"/>
</svg>
