<svg width="27" height="24" viewBox="0 0 27 24" fill="none" xmlns="http://www.w3.org/2000/svg">
<circle cx="14" cy="12" r="11.5" fill="white" stroke="#363333"/>
<path d="M19.8428 15.8082L14.8866 10.822C15.3768 9.5617 15.1045 8.08226 14.0697 7.04118C12.9804 5.94529 11.3465 5.72612 10.0393 6.32885L12.3813 8.685L10.7474 10.3288L8.35095 7.97268C7.69738 9.28773 7.9697 10.9316 9.05898 12.0274C10.0938 13.0685 11.5643 13.3425 12.817 12.8494L17.7732 17.8356C17.9911 18.0548 18.3179 18.0548 18.5357 17.8356L19.7884 16.5754C20.0607 16.3562 20.0607 15.9726 19.8428 15.8082Z" fill="#363333"/>
<path d="M0.332611 19.5071L26.3134 4.50708L26.6884 5.1566L0.707611 20.1566L0.332611 19.5071Z" fill="#D32116"/>
</svg>
