<svg width="29" height="32" viewBox="0 0 29 32" fill="none" xmlns="http://www.w3.org/2000/svg">
<path d="M14.1413 30.7478C14.8955 29.8107 15.6168 29.0278 16.1963 28.1482C16.4203 27.803 16.4018 27.2358 16.3484 26.7857C16.1429 24.9197 15.8531 23.062 15.6127 21.1981C15.4627 20.037 16.5005 18.3744 17.5526 17.91C18.3981 17.5558 19.2092 17.1245 19.9755 16.6215C20.5181 16.2516 20.8818 16.2783 21.4326 16.5907C24.221 18.1655 26.4866 20.5233 27.9491 23.3723C28.3005 24.0381 28.3149 24.5683 27.8505 25.154C23.9788 30.0163 19.0138 32.435 12.7377 31.9357C7.82818 31.539 3.92155 29.2641 0.843095 25.4746C-0.219362 24.1676 -0.244022 24.1101 0.58005 22.688C2.15832 19.963 4.27913 17.7867 7.13358 16.3934C7.5146 16.2609 7.93208 16.2808 8.29879 16.4489C8.94818 16.7366 9.50099 17.2709 10.1607 17.5093C11.3608 17.9408 11.9424 18.9375 12.5363 19.9342C12.7212 20.2466 12.7212 20.7213 12.6781 21.1076C12.4911 22.8072 12.3369 24.5149 12.0123 26.1877C11.7924 27.3283 11.9054 28.2428 12.7603 29.0648C13.2371 29.5313 13.6193 30.1046 14.1413 30.7478Z" fill="white"/>
<path d="M6.11011 7.97567C6.11332 5.86744 6.94986 3.84596 8.43733 2.35194C9.9248 0.857921 11.9426 0.0125233 14.0508 5.09281e-05C15.1215 -0.00373887 16.1824 0.204019 17.1727 0.611394C18.1629 1.01877 19.0628 1.61774 19.8209 2.3739C20.579 3.13007 21.1802 4.02854 21.5901 5.01771C22 6.00689 22.2104 7.06729 22.2093 8.13802C22.2422 12.4536 18.5246 16.128 14.1248 16.126C9.68794 16.1239 6.13271 12.5112 6.11011 7.97567Z" fill="white"/>
</svg>
