<svg width="28" height="34" viewBox="0 0 28 34" fill="none" xmlns="http://www.w3.org/2000/svg">
<path d="M19.1048 20.2383C20.6821 20.5399 22.2061 20.7588 23.6848 21.1294C24.9131 21.439 25.7116 22.3439 26.1887 23.4953C27.0996 25.7035 27.2533 28.03 27.0325 30.3604C26.857 32.2018 25.7924 33.2724 23.9529 33.6135C22.7575 33.8367 21.5451 33.9561 20.3291 33.9703C15.8011 34.0098 11.2717 34.0098 6.74099 33.9703C5.49803 33.9515 4.25936 33.8195 3.04033 33.576C1.28957 33.2349 0.232801 32.05 0.0829606 30.2973C-0.0865955 28.3139 -0.0254765 26.3324 0.542339 24.3963C1.13381 22.3755 2.43703 21.1413 4.52494 20.7726C5.11641 20.6661 5.7276 20.5754 6.33288 20.5104C7.28121 20.3921 8.20391 20.2028 8.63766 21.4961C8.78552 21.9319 9.41249 22.2848 9.89947 22.5155C10.9683 23.0163 12.1287 23.2923 13.3086 23.3262C14.4885 23.3601 15.6627 23.1513 16.7586 22.7126C17.8725 22.3124 18.7538 21.6598 19.1048 20.2383Z" fill="white"/>
<path d="M16.0371 20.7978C14.5604 21.7402 13.1645 21.7836 11.7272 21.129C10.0119 20.3404 8.87826 18.9603 7.95556 17.383C6.86725 15.5337 6.16931 13.5385 6.11608 11.3796C6.07424 9.48578 6.75607 7.64729 8.02264 6.23874C9.2892 4.83019 11.0452 3.95757 12.9328 3.7987C14.8203 3.63983 16.6975 4.20666 18.1817 5.3837C19.6658 6.56073 20.6454 8.25939 20.9207 10.1335C21.2775 12.4147 20.6052 14.471 19.6569 16.4801C19.4243 16.969 18.4266 17.0834 17.8352 16.9808C16.8149 16.7767 15.7725 16.7051 14.7339 16.7679C13.8604 16.8487 13.2532 17.8562 13.2907 18.7099C13.3088 19.1636 13.4767 19.5984 13.7681 19.9466C14.0595 20.2947 14.4581 20.5365 14.9014 20.6342C15.2268 20.715 15.5639 20.7347 16.0371 20.7978Z" fill="white"/>
<path d="M21.9814 14.3787C21.9814 13.5901 21.9006 12.9671 22.0051 12.3756C22.0958 11.861 22.3994 11.3898 22.5966 10.891C22.7129 10.6012 22.9337 10.2857 22.8982 10.0077C22.2239 4.88164 17.8983 1.37419 12.713 1.72711C8.47806 2.0189 4.58813 5.77082 4.22536 9.9486C4.19776 10.2562 4.42252 10.5913 4.55856 10.9068C4.75572 11.38 5.10469 11.8374 5.1382 12.3204C5.22298 13.5034 5.18552 14.7041 5.15989 15.8949C5.13623 16.997 4.35943 17.7679 3.31646 17.7876C2.27349 17.8073 1.48289 17.0345 1.4474 15.9284C1.406 14.6843 1.40205 13.4383 1.4612 12.1942C1.48247 11.777 1.65242 11.3811 1.9403 11.0783C2.37996 10.684 2.48642 10.2286 2.55543 9.69821C2.91084 7.02262 4.22311 4.56625 6.24954 2.78337C8.27598 1.0005 10.8795 0.0117557 13.5785 0C19.1581 0 23.8564 4.19947 24.5938 9.80271C24.647 10.197 24.9625 10.5677 25.13 10.962C25.341 11.4549 25.6525 11.9478 25.6939 12.4643C25.7574 13.5489 25.7646 14.6361 25.7156 15.7214C25.6781 17.2987 24.6529 18.0301 23.1072 17.6358C22.8659 17.5908 22.6165 17.635 22.4053 17.76C21.2005 18.4822 19.8568 18.9417 18.4622 19.1086C18.1078 19.1804 17.7722 19.3247 17.4764 19.5325C16.9677 19.8519 15.14 19.9642 14.7161 19.5581C14.452 19.2978 14.1937 18.7872 14.2785 18.4856C14.3731 18.1425 14.8384 17.6969 15.1696 17.6693C16.0075 17.6062 16.9184 17.3381 17.6893 17.9887C17.7879 18.0715 17.9909 18.0479 18.1447 18.04C18.33 18.0353 18.5137 18.0055 18.6909 17.9513C19.6392 17.6358 20.6624 17.4347 21.5082 16.9497C22.6735 16.2971 21.5871 15.0885 21.9814 14.3787Z" fill="white"/>
</svg>
