<svg width="44" height="30" viewBox="0 0 44 30" fill="none" xmlns="http://www.w3.org/2000/svg">
<path fill-rule="evenodd" clip-rule="evenodd" d="M22 0.333008C28.6733 0.333008 34.2283 5.08134 35.475 11.4063C40.2417 11.7363 44 15.6597 44 20.4997C44 25.5597 39.8933 29.6663 34.8333 29.6663H11C4.93167 29.6663 0 24.7347 0 18.6663C0 13.0013 4.29 8.32634 9.80833 7.73967C12.1 3.33967 16.7017 0.333008 22 0.333008ZM24.5825 7.52454C24.5825 7.23466 24.8125 6.99967 25.0963 6.99967H27.0485C27.2897 6.99967 27.4984 7.1711 27.5503 7.41177L28.67 11.5096L29.6774 14.6081C30.1316 14.4953 30.6065 14.4355 31.0953 14.4355C34.3564 14.4355 37 17.0987 37 20.384C37 23.6692 34.3564 26.3324 31.0953 26.3324C27.8342 26.3324 25.1905 23.6692 25.1905 20.384C25.1905 17.9486 26.6433 15.8551 28.7234 14.9349L28.0285 12.7767C26.621 12.8333 25.3538 13.6818 24.7444 14.9885L21.9089 21.0683C21.6526 21.6178 21.0088 21.8511 20.4709 21.5892C20.2562 21.4847 20.0908 21.3171 19.9859 21.1185H17.7649C17.4057 24.0572 14.919 26.3324 11.9048 26.3324C8.64365 26.3324 6 23.6692 6 20.384C6 17.0987 8.64365 14.4355 11.9048 14.4355C12.9787 14.4355 13.9857 14.7243 14.8533 15.2291L17.0304 12.3234V9.46654H15.3864C15.1026 9.46654 14.8726 9.23155 14.8726 8.94168C14.8726 8.6518 15.1026 8.41681 15.3864 8.41681H18.4689C18.7526 8.41681 18.9826 8.6518 18.9826 8.94168C18.9826 9.23155 18.7526 9.46654 18.4689 9.46654H18.0579V12.403L20.6634 18.614L22.7965 14.0403C23.6701 12.167 25.4065 10.8945 27.3847 10.6234L26.6355 8.0494H25.0963C24.8125 8.0494 24.5825 7.81441 24.5825 7.52454ZM30.6176 20.8184L29.3418 16.8556C28.07 17.5031 27.1905 18.8335 27.1905 20.384C27.1905 22.5786 28.9526 24.3324 31.0953 24.3324C33.2379 24.3324 35 22.5786 35 20.384C35 18.1894 33.2379 16.4355 31.0953 16.4355C30.8225 16.4355 30.5559 16.4639 30.2983 16.5181L31.5618 20.4042C31.6737 20.6706 31.5531 20.9792 31.2924 21.0936C31.0317 21.208 30.7296 21.0848 30.6176 20.8184ZM13.6411 16.847C13.117 16.5834 12.5269 16.4355 11.9048 16.4355C9.7621 16.4355 8 18.1894 8 20.384C8 22.5786 9.7621 24.3324 11.9048 24.3324C13.8021 24.3324 15.401 22.9572 15.7423 21.1185H11.4806C11.282 21.1185 11.1013 21.0017 11.0163 20.8184C10.9313 20.6352 10.9572 20.4183 11.0829 20.2613L13.6411 16.847ZM15.7973 20.0688H12.5647L14.5061 17.4395C15.2323 18.0951 15.7159 19.0222 15.7973 20.0688ZM17.8014 20.0688C17.7132 18.3663 16.9143 16.8533 15.6981 15.8251L17.4055 13.5127L20.0748 19.8759L19.9849 20.0688H17.8014Z" fill="white"/>
</svg>
