<svg width="46" height="28" viewBox="0 0 46 28" fill="none" xmlns="http://www.w3.org/2000/svg">
<path d="M45.7306 14.4394C45.0536 14.4394 44.508 14.4394 43.9644 14.4394C43.2564 14.4549 42.7785 14.778 42.7495 15.5266C42.7205 16.2753 43.2254 16.6351 43.9102 16.6874C44.5951 16.7396 45.2412 16.7009 45.9783 16.7009C45.9783 18.5426 46.0382 20.2469 45.9589 21.9435C45.897 23.2474 44.0108 24.265 42.8772 23.6575C42.6837 23.5492 42.5812 23.1294 42.5503 22.8411C42.411 21.5493 41.8572 20.3373 40.9718 19.3864C40.0865 18.4355 38.917 17.7967 37.6385 17.5656C35.0713 17.0956 32.2217 18.5329 31.1635 20.9124C30.794 21.7501 30.6567 22.6902 30.3897 23.6691H15.4763C15.3564 23.0888 15.2674 22.5181 15.1204 21.9629C14.3466 19.0456 11.8452 17.32 8.73639 17.527C5.99708 17.7204 3.69304 20.0283 3.42607 22.8992C3.37384 23.4795 3.21521 23.7407 2.56714 23.7523C0.413992 23.7949 0 23.4196 0 21.28V2.128C0 0.44301 0.433337 0 2.128 0C12.1489 0 22.1731 0 32.2005 0C35.6923 0 38.1685 1.46638 39.5227 4.76284C40.1504 6.34914 40.8793 7.8935 41.7049 9.3864C42.226 10.2542 42.9051 11.0167 43.7071 11.6343C44.6357 12.3811 45.5062 13.0659 45.7306 14.4394ZM27.043 2.86893C27.043 5.10913 27.0797 7.23132 27.0236 9.35158C27.0023 10.1834 27.2055 10.4678 28.0876 10.4562C31.4711 10.404 34.8585 10.4369 38.2401 10.4311C38.478 10.4311 38.716 10.3808 39.0913 10.3382C38.1569 8.37657 37.3367 6.49426 36.3694 4.68933C35.82 3.66015 34.8488 2.94824 33.661 2.89214C31.5021 2.80702 29.347 2.86893 27.043 2.86893Z" fill="white"/>
<path d="M13.5418 23.4909C13.5418 25.8511 11.7388 27.6289 9.369 27.6289C8.82077 27.6248 8.2787 27.5128 7.77375 27.2993C7.26881 27.0857 6.81087 26.7748 6.42608 26.3843C6.04129 25.9937 5.7372 25.5312 5.53115 25.0232C5.32511 24.5151 5.22115 23.9714 5.22521 23.4232C5.22928 22.875 5.34129 22.3329 5.55484 21.828C5.7684 21.323 6.07932 20.8651 6.46985 20.4803C6.86039 20.0955 7.32289 19.7914 7.83095 19.5853C8.339 19.3793 8.88267 19.2753 9.43091 19.2794C9.97903 19.2803 10.5215 19.3906 11.0264 19.6038C11.5313 19.817 11.9887 20.1289 12.3715 20.5211C12.7544 20.9134 13.0551 21.3781 13.2561 21.888C13.457 22.398 13.5542 22.9429 13.5418 23.4909ZM10.818 23.4909C10.8216 23.1029 10.6726 22.729 10.4029 22.4499C10.1333 22.1708 9.76468 22.009 9.37674 21.9994C8.98791 22.0103 8.61821 22.1705 8.34442 22.4468C8.07063 22.7231 7.9138 23.0943 7.90649 23.4832C7.92114 23.8543 8.07461 24.2063 8.33651 24.4697C8.5984 24.733 8.94962 24.8884 9.32064 24.9051C9.51303 24.9142 9.70527 24.8843 9.88584 24.8173C10.0664 24.7503 10.2316 24.6475 10.3714 24.5151C10.5113 24.3826 10.6229 24.2233 10.6996 24.0466C10.7764 23.87 10.8166 23.6796 10.818 23.487V23.4909Z" fill="white"/>
<path d="M32.4382 23.4181C32.4322 22.8699 32.5363 22.3261 32.7444 21.8189C32.9525 21.3117 33.2604 20.8514 33.6498 20.4655C34.0391 20.0795 34.5021 19.7757 35.0111 19.5721C35.5201 19.3685 36.0649 19.2692 36.613 19.2801C37.1613 19.2793 37.7045 19.3868 38.2112 19.5964C38.7179 19.8059 39.1783 20.1134 39.566 20.5013C39.9537 20.8891 40.2609 21.3497 40.4703 21.8565C40.6796 22.3633 40.7868 22.9065 40.7858 23.4548C40.7858 25.8247 38.9267 27.6489 36.5298 27.6277C34.1774 27.6083 32.4266 25.8073 32.4382 23.4181ZM38.0484 23.4181C38.0251 23.0313 37.8537 22.6685 37.5698 22.4048C37.2859 22.1411 36.9114 21.9968 36.524 22.002C36.1398 22.0318 35.7823 22.21 35.5273 22.4989C35.2724 22.7878 35.14 23.1647 35.1582 23.5496C35.181 23.9198 35.3455 24.2669 35.6174 24.5191C35.8894 24.7712 36.248 24.909 36.6188 24.9038C36.8113 24.9003 37.0012 24.8588 37.1775 24.7816C37.3539 24.7045 37.5133 24.5932 37.6465 24.4542C37.7797 24.3152 37.8842 24.1513 37.9538 23.9718C38.0234 23.7924 38.0569 23.6009 38.0523 23.4084L38.0484 23.4181Z" fill="white"/>
</svg>
