<svg width="39" height="34" viewBox="0 0 39 34" fill="none" xmlns="http://www.w3.org/2000/svg">
<path d="M6.4939 8.4775C6.49732 6.23661 7.38648 4.08794 8.96755 2.49992C10.5486 0.911901 12.6934 0.0133112 14.9342 5.41325e-05C16.0723 -0.00397411 17.2 0.216856 18.2525 0.649863C19.305 1.08287 20.2616 1.71953 21.0674 2.52327C21.8732 3.32701 22.5122 4.28201 22.9479 5.33343C23.3835 6.38484 23.6072 7.51196 23.6061 8.65006C23.641 13.2372 19.6895 17.1428 15.0128 17.1406C10.2968 17.1384 6.51792 13.2983 6.4939 8.4775Z" fill="white"/>
<path d="M29.7068 24.8358C28.1523 21.8076 25.7441 19.3014 22.7802 17.6275C22.6545 17.554 22.5221 17.4926 22.3848 17.444C20.3359 18.2915 17.7737 18.7961 14.9908 18.7961C12.208 18.7961 9.6108 18.2893 7.54441 17.4287C4.53438 18.9097 2.28669 21.2164 0.615669 24.0997C-0.258068 25.6113 -0.23404 25.6724 0.895266 27.0617C4.17178 31.0874 8.32204 33.5077 13.5383 33.9293C20.2005 34.4688 25.4866 31.8978 29.6019 26.7209C30.0956 26.1071 30.0803 25.5436 29.7068 24.8358Z" fill="white"/>
<path d="M38.573 8.13421C38.2322 7.23426 37.601 6.57896 36.6071 6.10059C36.6224 7.01583 36.6464 7.84806 36.6486 8.6803C36.6599 8.8172 36.6419 8.95495 36.5958 9.08436C36.5498 9.21378 36.4767 9.33191 36.3814 9.43089C36.2862 9.52987 36.1709 9.60743 36.0434 9.65842C35.9158 9.7094 35.7788 9.73264 35.6416 9.7266C35.279 9.74189 34.9164 9.7266 34.5494 9.7266C33.833 9.70694 33.4573 9.32468 33.4682 8.60821C33.4813 7.80001 33.5097 6.9918 33.5337 6.13117C33.4596 6.14469 33.3866 6.16367 33.3153 6.18796C32.0505 6.90006 31.3188 7.96383 31.2707 9.42734C31.2227 10.8909 31.8911 12.0311 33.1362 12.8065C33.2302 12.8509 33.3083 12.9231 33.3598 13.0134C33.4114 13.1036 33.434 13.2076 33.4245 13.3111C33.3997 16.8061 33.383 20.301 33.3743 23.796C33.3743 23.9401 33.3743 24.0865 33.3743 24.2328C33.394 24.4988 33.4798 24.7556 33.624 24.98C33.7681 25.2043 33.966 25.3891 34.1997 25.5176C34.4334 25.646 34.6955 25.7141 34.9622 25.7155C35.2289 25.717 35.4917 25.6518 35.7268 25.526C36.3646 25.1918 36.6005 24.6347 36.6005 23.9401C36.6005 20.408 36.6246 16.876 36.6333 13.3461C36.6158 13.2532 36.6274 13.1572 36.6665 13.0712C36.7056 12.9852 36.7703 12.9134 36.8517 12.8655C38.6211 11.8345 39.2829 10.0106 38.573 8.13421Z" fill="white"/>
</svg>
